<?xml version="1.0" encoding="UTF-8" standalone="no"?>
<!-- Created with Inkscape (http://www.inkscape.org/) -->

<svg
   width="512"
   height="512"
   viewBox="0 0 135.46666 135.46666"
   version="1.1"
   id="svg126590"
   inkscape:version="1.1.2 (0a00cf5, 2022-02-04)"
   sodipodi:docname="record4s.svg"
   inkscape:export-filename="/home/windymelt/画像/record4s-2.png"
   inkscape:export-xdpi="96.000008"
   inkscape:export-ydpi="96.000008"
   xmlns:inkscape="http://www.inkscape.org/namespaces/inkscape"
   xmlns:sodipodi="http://sodipodi.sourceforge.net/DTD/sodipodi-0.dtd"
   xmlns="http://www.w3.org/2000/svg"
   xmlns:svg="http://www.w3.org/2000/svg">
  <sodipodi:namedview
     id="namedview126592"
     pagecolor="#ffffff"
     bordercolor="#666666"
     borderopacity="1.0"
     inkscape:pageshadow="2"
     inkscape:pageopacity="0.0"
     inkscape:pagecheckerboard="0"
     inkscape:document-units="px"
     showgrid="false"
     units="px"
     inkscape:zoom="0.77771465"
     inkscape:cx="46.289471"
     inkscape:cy="148.51205"
     inkscape:window-width="1779"
     inkscape:window-height="1088"
     inkscape:window-x="892"
     inkscape:window-y="623"
     inkscape:window-maximized="0"
     inkscape:current-layer="layer1" />
  <defs
     id="defs126587" />
  <g
     inkscape:label="Layer 1"
     inkscape:groupmode="layer"
     id="layer1">
    <rect
       style="fill:#ffffff;stroke:none;stroke-width:3.38666"
       id="rect122476"
       width="135.46666"
       height="135.46657"
       x="1.772931e-05"
       y="4.2031235e-05" />
    <path
       id="path91037"
       style="fill:#dc322f;stroke-width:3.38666;fill-opacity:1"
       d="M 25.400091,-6.5e-5 A 25.399972,25.399993 0 0 0 1.195e-4,25.399928 25.399972,25.399993 0 0 0 4.9345889,40.39517 L 35.56008,2.1232051 A 25.399972,25.399993 0 0 0 25.400091,-6.5e-5 Z M 45.878835,10.384841 15.253344,48.670014 A 25.399972,25.399993 0 0 0 25.400091,50.799922 25.399972,25.399993 0 0 0 50.800063,25.399928 25.399972,25.399993 0 0 0 45.878835,10.384841 Z" />
    <path
       id="path91264"
       style="fill:#002b36;stroke-width:3.38666;fill-opacity:1"
       d="M 135.46667,25.400078 A 25.399972,25.399994 0 0 1 110.06663,50.800008 25.399972,25.399994 0 0 1 84.666722,25.400078 25.399972,25.399994 0 0 1 110.06663,1.959374e-5 25.399972,25.399994 0 0 1 135.46667,25.400078 Z" />
    <path
       id="path91264-8"
       style="fill:#002b36;stroke-width:3.38666;fill-opacity:1"
       d="m 25.400091,84.66658 a 25.399972,25.399993 0 0 0 -10.146747,2.129908 l 30.61225,38.265332 A 25.399972,25.399993 0 0 0 50.800063,110.06657 25.399972,25.399993 0 0 0 25.400091,84.66658 Z M 4.9345889,95.071332 a 25.399972,25.399993 0 0 0 -4.9344694,14.995238 25.399972,25.399993 0 0 0 25.3999715,25.4 25.399972,25.399993 0 0 0 10.146747,-2.12991 z" />
    <path
       id="path91264-8-5"
       style="fill:#002b36;stroke-width:3.38666;fill-opacity:1"
       d="M 135.46667,110.06668 A 25.399972,25.399994 0 0 1 110.06663,135.46661 25.399972,25.399994 0 0 1 84.666722,110.06668 25.399972,25.399994 0 0 1 110.06663,84.666624 25.399972,25.399994 0 0 1 135.46667,110.06668 Z" />
  </g>
</svg>
