<?xml version="1.0" encoding="utf-8" standalone="no"?>
<!DOCTYPE svg PUBLIC "-//W3C//DTD SVG 1.1//EN"
  "http://www.w3.org/Graphics/SVG/1.1/DTD/svg11.dtd">
<svg xmlns:xlink="http://www.w3.org/1999/xlink" width="516.177187pt" height="349.139687pt" viewBox="0 0 516.177187 349.139687" xmlns="http://www.w3.org/2000/svg" version="1.1">
 <metadata>
  <rdf:RDF xmlns:dc="http://purl.org/dc/elements/1.1/" xmlns:cc="http://creativecommons.org/ns#" xmlns:rdf="http://www.w3.org/1999/02/22-rdf-syntax-ns#">
   <cc:Work>
    <dc:type rdf:resource="http://purl.org/dc/dcmitype/StillImage"/>
    <dc:date>2024-01-12T22:22:03.485305</dc:date>
    <dc:format>image/svg+xml</dc:format>
    <dc:creator>
     <cc:Agent>
      <dc:title>Matplotlib v3.7.2, https://matplotlib.org/</dc:title>
     </cc:Agent>
    </dc:creator>
   </cc:Work>
  </rdf:RDF>
 </metadata>
 <defs>
  <style type="text/css">*{stroke-linejoin: round; stroke-linecap: butt}</style>
 </defs>
 <g id="figure_1">
  <g id="patch_1">
   <path d="M 0 349.139687 
L 516.177187 349.139687 
L 516.177187 0 
L 0 0 
z
" style="fill: #ffffff"/>
  </g>
  <g id="axes_1">
   <g id="patch_2">
    <path d="M 49.807188 306.18 
L 336.842388 306.18 
L 336.842388 7.2 
L 49.807188 7.2 
z
" style="fill: #eaeaf2"/>
   </g>
   <g id="matplotlib.axis_1">
    <g id="xtick_1">
     <g id="line2d_1">
      <path d="M 71.271697 306.18 
L 71.271697 7.2 
" clip-path="url(#p2b495e289c)" style="fill: none; stroke: #ffffff; stroke-linecap: round"/>
     </g>
     <g id="text_1">
      <!-- 2 -->
      <g style="fill: #262626" transform="translate(67.772322 324.038281) scale(0.11 -0.11)">
       <defs>
        <path id="DejaVuSans-32" d="M 1228 531 
L 3431 531 
L 3431 0 
L 469 0 
L 469 531 
Q 828 903 1448 1529 
Q 2069 2156 2228 2338 
Q 2531 2678 2651 2914 
Q 2772 3150 2772 3378 
Q 2772 3750 2511 3984 
Q 2250 4219 1831 4219 
Q 1534 4219 1204 4116 
Q 875 4013 500 3803 
L 500 4441 
Q 881 4594 1212 4672 
Q 1544 4750 1819 4750 
Q 2544 4750 2975 4387 
Q 3406 4025 3406 3419 
Q 3406 3131 3298 2873 
Q 3191 2616 2906 2266 
Q 2828 2175 2409 1742 
Q 1991 1309 1228 531 
z
" transform="scale(0.015625)"/>
       </defs>
       <use xlink:href="#DejaVuSans-32"/>
      </g>
     </g>
    </g>
    <g id="xtick_2">
     <g id="line2d_2">
      <path d="M 88.106606 306.18 
L 88.106606 7.2 
" clip-path="url(#p2b495e289c)" style="fill: none; stroke: #ffffff; stroke-linecap: round"/>
     </g>
     <g id="text_2">
      <!-- 4 -->
      <g style="fill: #262626" transform="translate(84.607231 324.038281) scale(0.11 -0.11)">
       <defs>
        <path id="DejaVuSans-34" d="M 2419 4116 
L 825 1625 
L 2419 1625 
L 2419 4116 
z
M 2253 4666 
L 3047 4666 
L 3047 1625 
L 3713 1625 
L 3713 1100 
L 3047 1100 
L 3047 0 
L 2419 0 
L 2419 1100 
L 313 1100 
L 313 1709 
L 2253 4666 
z
" transform="scale(0.015625)"/>
       </defs>
       <use xlink:href="#DejaVuSans-34"/>
      </g>
     </g>
    </g>
    <g id="xtick_3">
     <g id="line2d_3">
      <path d="M 104.941515 306.18 
L 104.941515 7.2 
" clip-path="url(#p2b495e289c)" style="fill: none; stroke: #ffffff; stroke-linecap: round"/>
     </g>
     <g id="text_3">
      <!-- 6 -->
      <g style="fill: #262626" transform="translate(101.44214 324.038281) scale(0.11 -0.11)">
       <defs>
        <path id="DejaVuSans-36" d="M 2113 2584 
Q 1688 2584 1439 2293 
Q 1191 2003 1191 1497 
Q 1191 994 1439 701 
Q 1688 409 2113 409 
Q 2538 409 2786 701 
Q 3034 994 3034 1497 
Q 3034 2003 2786 2293 
Q 2538 2584 2113 2584 
z
M 3366 4563 
L 3366 3988 
Q 3128 4100 2886 4159 
Q 2644 4219 2406 4219 
Q 1781 4219 1451 3797 
Q 1122 3375 1075 2522 
Q 1259 2794 1537 2939 
Q 1816 3084 2150 3084 
Q 2853 3084 3261 2657 
Q 3669 2231 3669 1497 
Q 3669 778 3244 343 
Q 2819 -91 2113 -91 
Q 1303 -91 875 529 
Q 447 1150 447 2328 
Q 447 3434 972 4092 
Q 1497 4750 2381 4750 
Q 2619 4750 2861 4703 
Q 3103 4656 3366 4563 
z
" transform="scale(0.015625)"/>
       </defs>
       <use xlink:href="#DejaVuSans-36"/>
      </g>
     </g>
    </g>
    <g id="xtick_4">
     <g id="line2d_4">
      <path d="M 121.776424 306.18 
L 121.776424 7.2 
" clip-path="url(#p2b495e289c)" style="fill: none; stroke: #ffffff; stroke-linecap: round"/>
     </g>
     <g id="text_4">
      <!-- 8 -->
      <g style="fill: #262626" transform="translate(118.277049 324.038281) scale(0.11 -0.11)">
       <defs>
        <path id="DejaVuSans-38" d="M 2034 2216 
Q 1584 2216 1326 1975 
Q 1069 1734 1069 1313 
Q 1069 891 1326 650 
Q 1584 409 2034 409 
Q 2484 409 2743 651 
Q 3003 894 3003 1313 
Q 3003 1734 2745 1975 
Q 2488 2216 2034 2216 
z
M 1403 2484 
Q 997 2584 770 2862 
Q 544 3141 544 3541 
Q 544 4100 942 4425 
Q 1341 4750 2034 4750 
Q 2731 4750 3128 4425 
Q 3525 4100 3525 3541 
Q 3525 3141 3298 2862 
Q 3072 2584 2669 2484 
Q 3125 2378 3379 2068 
Q 3634 1759 3634 1313 
Q 3634 634 3220 271 
Q 2806 -91 2034 -91 
Q 1263 -91 848 271 
Q 434 634 434 1313 
Q 434 1759 690 2068 
Q 947 2378 1403 2484 
z
M 1172 3481 
Q 1172 3119 1398 2916 
Q 1625 2713 2034 2713 
Q 2441 2713 2670 2916 
Q 2900 3119 2900 3481 
Q 2900 3844 2670 4047 
Q 2441 4250 2034 4250 
Q 1625 4250 1398 4047 
Q 1172 3844 1172 3481 
z
" transform="scale(0.015625)"/>
       </defs>
       <use xlink:href="#DejaVuSans-38"/>
      </g>
     </g>
    </g>
    <g id="xtick_5">
     <g id="line2d_5">
      <path d="M 138.611333 306.18 
L 138.611333 7.2 
" clip-path="url(#p2b495e289c)" style="fill: none; stroke: #ffffff; stroke-linecap: round"/>
     </g>
     <g id="text_5">
      <!-- 10 -->
      <g style="fill: #262626" transform="translate(131.612583 324.038281) scale(0.11 -0.11)">
       <defs>
        <path id="DejaVuSans-31" d="M 794 531 
L 1825 531 
L 1825 4091 
L 703 3866 
L 703 4441 
L 1819 4666 
L 2450 4666 
L 2450 531 
L 3481 531 
L 3481 0 
L 794 0 
L 794 531 
z
" transform="scale(0.015625)"/>
        <path id="DejaVuSans-30" d="M 2034 4250 
Q 1547 4250 1301 3770 
Q 1056 3291 1056 2328 
Q 1056 1369 1301 889 
Q 1547 409 2034 409 
Q 2525 409 2770 889 
Q 3016 1369 3016 2328 
Q 3016 3291 2770 3770 
Q 2525 4250 2034 4250 
z
M 2034 4750 
Q 2819 4750 3233 4129 
Q 3647 3509 3647 2328 
Q 3647 1150 3233 529 
Q 2819 -91 2034 -91 
Q 1250 -91 836 529 
Q 422 1150 422 2328 
Q 422 3509 836 4129 
Q 1250 4750 2034 4750 
z
" transform="scale(0.015625)"/>
       </defs>
       <use xlink:href="#DejaVuSans-31"/>
       <use xlink:href="#DejaVuSans-30" x="63.623047"/>
      </g>
     </g>
    </g>
    <g id="xtick_6">
     <g id="line2d_6">
      <path d="M 155.446242 306.18 
L 155.446242 7.2 
" clip-path="url(#p2b495e289c)" style="fill: none; stroke: #ffffff; stroke-linecap: round"/>
     </g>
     <g id="text_6">
      <!-- 12 -->
      <g style="fill: #262626" transform="translate(148.447492 324.038281) scale(0.11 -0.11)">
       <use xlink:href="#DejaVuSans-31"/>
       <use xlink:href="#DejaVuSans-32" x="63.623047"/>
      </g>
     </g>
    </g>
    <g id="xtick_7">
     <g id="line2d_7">
      <path d="M 172.281151 306.18 
L 172.281151 7.2 
" clip-path="url(#p2b495e289c)" style="fill: none; stroke: #ffffff; stroke-linecap: round"/>
     </g>
     <g id="text_7">
      <!-- 14 -->
      <g style="fill: #262626" transform="translate(165.282401 324.038281) scale(0.11 -0.11)">
       <use xlink:href="#DejaVuSans-31"/>
       <use xlink:href="#DejaVuSans-34" x="63.623047"/>
      </g>
     </g>
    </g>
    <g id="xtick_8">
     <g id="line2d_8">
      <path d="M 189.11606 306.18 
L 189.11606 7.2 
" clip-path="url(#p2b495e289c)" style="fill: none; stroke: #ffffff; stroke-linecap: round"/>
     </g>
     <g id="text_8">
      <!-- 16 -->
      <g style="fill: #262626" transform="translate(182.11731 324.038281) scale(0.11 -0.11)">
       <use xlink:href="#DejaVuSans-31"/>
       <use xlink:href="#DejaVuSans-36" x="63.623047"/>
      </g>
     </g>
    </g>
    <g id="xtick_9">
     <g id="line2d_9">
      <path d="M 205.950969 306.18 
L 205.950969 7.2 
" clip-path="url(#p2b495e289c)" style="fill: none; stroke: #ffffff; stroke-linecap: round"/>
     </g>
     <g id="text_9">
      <!-- 18 -->
      <g style="fill: #262626" transform="translate(198.952219 324.038281) scale(0.11 -0.11)">
       <use xlink:href="#DejaVuSans-31"/>
       <use xlink:href="#DejaVuSans-38" x="63.623047"/>
      </g>
     </g>
    </g>
    <g id="xtick_10">
     <g id="line2d_10">
      <path d="M 222.785878 306.18 
L 222.785878 7.2 
" clip-path="url(#p2b495e289c)" style="fill: none; stroke: #ffffff; stroke-linecap: round"/>
     </g>
     <g id="text_10">
      <!-- 20 -->
      <g style="fill: #262626" transform="translate(215.787128 324.038281) scale(0.11 -0.11)">
       <use xlink:href="#DejaVuSans-32"/>
       <use xlink:href="#DejaVuSans-30" x="63.623047"/>
      </g>
     </g>
    </g>
    <g id="xtick_11">
     <g id="line2d_11">
      <path d="M 239.620788 306.18 
L 239.620788 7.2 
" clip-path="url(#p2b495e289c)" style="fill: none; stroke: #ffffff; stroke-linecap: round"/>
     </g>
     <g id="text_11">
      <!-- 22 -->
      <g style="fill: #262626" transform="translate(232.622038 324.038281) scale(0.11 -0.11)">
       <use xlink:href="#DejaVuSans-32"/>
       <use xlink:href="#DejaVuSans-32" x="63.623047"/>
      </g>
     </g>
    </g>
    <g id="xtick_12">
     <g id="line2d_12">
      <path d="M 256.455697 306.18 
L 256.455697 7.2 
" clip-path="url(#p2b495e289c)" style="fill: none; stroke: #ffffff; stroke-linecap: round"/>
     </g>
     <g id="text_12">
      <!-- 24 -->
      <g style="fill: #262626" transform="translate(249.456947 324.038281) scale(0.11 -0.11)">
       <use xlink:href="#DejaVuSans-32"/>
       <use xlink:href="#DejaVuSans-34" x="63.623047"/>
      </g>
     </g>
    </g>
    <g id="xtick_13">
     <g id="line2d_13">
      <path d="M 273.290606 306.18 
L 273.290606 7.2 
" clip-path="url(#p2b495e289c)" style="fill: none; stroke: #ffffff; stroke-linecap: round"/>
     </g>
     <g id="text_13">
      <!-- 26 -->
      <g style="fill: #262626" transform="translate(266.291856 324.038281) scale(0.11 -0.11)">
       <use xlink:href="#DejaVuSans-32"/>
       <use xlink:href="#DejaVuSans-36" x="63.623047"/>
      </g>
     </g>
    </g>
    <g id="xtick_14">
     <g id="line2d_14">
      <path d="M 290.125515 306.18 
L 290.125515 7.2 
" clip-path="url(#p2b495e289c)" style="fill: none; stroke: #ffffff; stroke-linecap: round"/>
     </g>
     <g id="text_14">
      <!-- 28 -->
      <g style="fill: #262626" transform="translate(283.126765 324.038281) scale(0.11 -0.11)">
       <use xlink:href="#DejaVuSans-32"/>
       <use xlink:href="#DejaVuSans-38" x="63.623047"/>
      </g>
     </g>
    </g>
    <g id="xtick_15">
     <g id="line2d_15">
      <path d="M 306.960424 306.18 
L 306.960424 7.2 
" clip-path="url(#p2b495e289c)" style="fill: none; stroke: #ffffff; stroke-linecap: round"/>
     </g>
     <g id="text_15">
      <!-- 30 -->
      <g style="fill: #262626" transform="translate(299.961674 324.038281) scale(0.11 -0.11)">
       <defs>
        <path id="DejaVuSans-33" d="M 2597 2516 
Q 3050 2419 3304 2112 
Q 3559 1806 3559 1356 
Q 3559 666 3084 287 
Q 2609 -91 1734 -91 
Q 1441 -91 1130 -33 
Q 819 25 488 141 
L 488 750 
Q 750 597 1062 519 
Q 1375 441 1716 441 
Q 2309 441 2620 675 
Q 2931 909 2931 1356 
Q 2931 1769 2642 2001 
Q 2353 2234 1838 2234 
L 1294 2234 
L 1294 2753 
L 1863 2753 
Q 2328 2753 2575 2939 
Q 2822 3125 2822 3475 
Q 2822 3834 2567 4026 
Q 2313 4219 1838 4219 
Q 1578 4219 1281 4162 
Q 984 4106 628 3988 
L 628 4550 
Q 988 4650 1302 4700 
Q 1616 4750 1894 4750 
Q 2613 4750 3031 4423 
Q 3450 4097 3450 3541 
Q 3450 3153 3228 2886 
Q 3006 2619 2597 2516 
z
" transform="scale(0.015625)"/>
       </defs>
       <use xlink:href="#DejaVuSans-33"/>
       <use xlink:href="#DejaVuSans-30" x="63.623047"/>
      </g>
     </g>
    </g>
    <g id="xtick_16">
     <g id="line2d_16">
      <path d="M 323.795333 306.18 
L 323.795333 7.2 
" clip-path="url(#p2b495e289c)" style="fill: none; stroke: #ffffff; stroke-linecap: round"/>
     </g>
     <g id="text_16">
      <!-- 32 -->
      <g style="fill: #262626" transform="translate(316.796583 324.038281) scale(0.11 -0.11)">
       <use xlink:href="#DejaVuSans-33"/>
       <use xlink:href="#DejaVuSans-32" x="63.623047"/>
      </g>
     </g>
    </g>
    <g id="text_17">
     <!-- Field index -->
     <g style="fill: #262626" transform="translate(161.150725 339.444062) scale(0.12 -0.12)">
      <defs>
       <path id="DejaVuSans-46" d="M 628 4666 
L 3309 4666 
L 3309 4134 
L 1259 4134 
L 1259 2759 
L 3109 2759 
L 3109 2228 
L 1259 2228 
L 1259 0 
L 628 0 
L 628 4666 
z
" transform="scale(0.015625)"/>
       <path id="DejaVuSans-69" d="M 603 3500 
L 1178 3500 
L 1178 0 
L 603 0 
L 603 3500 
z
M 603 4863 
L 1178 4863 
L 1178 4134 
L 603 4134 
L 603 4863 
z
" transform="scale(0.015625)"/>
       <path id="DejaVuSans-65" d="M 3597 1894 
L 3597 1613 
L 953 1613 
Q 991 1019 1311 708 
Q 1631 397 2203 397 
Q 2534 397 2845 478 
Q 3156 559 3463 722 
L 3463 178 
Q 3153 47 2828 -22 
Q 2503 -91 2169 -91 
Q 1331 -91 842 396 
Q 353 884 353 1716 
Q 353 2575 817 3079 
Q 1281 3584 2069 3584 
Q 2775 3584 3186 3129 
Q 3597 2675 3597 1894 
z
M 3022 2063 
Q 3016 2534 2758 2815 
Q 2500 3097 2075 3097 
Q 1594 3097 1305 2825 
Q 1016 2553 972 2059 
L 3022 2063 
z
" transform="scale(0.015625)"/>
       <path id="DejaVuSans-6c" d="M 603 4863 
L 1178 4863 
L 1178 0 
L 603 0 
L 603 4863 
z
" transform="scale(0.015625)"/>
       <path id="DejaVuSans-64" d="M 2906 2969 
L 2906 4863 
L 3481 4863 
L 3481 0 
L 2906 0 
L 2906 525 
Q 2725 213 2448 61 
Q 2172 -91 1784 -91 
Q 1150 -91 751 415 
Q 353 922 353 1747 
Q 353 2572 751 3078 
Q 1150 3584 1784 3584 
Q 2172 3584 2448 3432 
Q 2725 3281 2906 2969 
z
M 947 1747 
Q 947 1113 1208 752 
Q 1469 391 1925 391 
Q 2381 391 2643 752 
Q 2906 1113 2906 1747 
Q 2906 2381 2643 2742 
Q 2381 3103 1925 3103 
Q 1469 3103 1208 2742 
Q 947 2381 947 1747 
z
" transform="scale(0.015625)"/>
       <path id="DejaVuSans-20" transform="scale(0.015625)"/>
       <path id="DejaVuSans-6e" d="M 3513 2113 
L 3513 0 
L 2938 0 
L 2938 2094 
Q 2938 2591 2744 2837 
Q 2550 3084 2163 3084 
Q 1697 3084 1428 2787 
Q 1159 2491 1159 1978 
L 1159 0 
L 581 0 
L 581 3500 
L 1159 3500 
L 1159 2956 
Q 1366 3272 1645 3428 
Q 1925 3584 2291 3584 
Q 2894 3584 3203 3211 
Q 3513 2838 3513 2113 
z
" transform="scale(0.015625)"/>
       <path id="DejaVuSans-78" d="M 3513 3500 
L 2247 1797 
L 3578 0 
L 2900 0 
L 1881 1375 
L 863 0 
L 184 0 
L 1544 1831 
L 300 3500 
L 978 3500 
L 1906 2253 
L 2834 3500 
L 3513 3500 
z
" transform="scale(0.015625)"/>
      </defs>
      <use xlink:href="#DejaVuSans-46"/>
      <use xlink:href="#DejaVuSans-69" x="50.269531"/>
      <use xlink:href="#DejaVuSans-65" x="78.052734"/>
      <use xlink:href="#DejaVuSans-6c" x="139.576172"/>
      <use xlink:href="#DejaVuSans-64" x="167.359375"/>
      <use xlink:href="#DejaVuSans-20" x="230.835938"/>
      <use xlink:href="#DejaVuSans-69" x="262.623047"/>
      <use xlink:href="#DejaVuSans-6e" x="290.40625"/>
      <use xlink:href="#DejaVuSans-64" x="353.785156"/>
      <use xlink:href="#DejaVuSans-65" x="417.261719"/>
      <use xlink:href="#DejaVuSans-78" x="477.035156"/>
     </g>
    </g>
   </g>
   <g id="matplotlib.axis_2">
    <g id="ytick_1">
     <g id="line2d_17">
      <path d="M 49.807188 306.18 
L 336.842388 306.18 
" clip-path="url(#p2b495e289c)" style="fill: none; stroke: #ffffff; stroke-linecap: round"/>
     </g>
     <g id="text_18">
      <!-- 0.0 -->
      <g style="fill: #262626" transform="translate(22.81375 310.359141) scale(0.11 -0.11)">
       <defs>
        <path id="DejaVuSans-2e" d="M 684 794 
L 1344 794 
L 1344 0 
L 684 0 
L 684 794 
z
" transform="scale(0.015625)"/>
       </defs>
       <use xlink:href="#DejaVuSans-30"/>
       <use xlink:href="#DejaVuSans-2e" x="63.623047"/>
       <use xlink:href="#DejaVuSans-30" x="95.410156"/>
      </g>
     </g>
    </g>
    <g id="ytick_2">
     <g id="line2d_18">
      <path d="M 49.807188 240.950331 
L 336.842388 240.950331 
" clip-path="url(#p2b495e289c)" style="fill: none; stroke: #ffffff; stroke-linecap: round"/>
     </g>
     <g id="text_19">
      <!-- 0.5 -->
      <g style="fill: #262626" transform="translate(22.81375 245.129472) scale(0.11 -0.11)">
       <defs>
        <path id="DejaVuSans-35" d="M 691 4666 
L 3169 4666 
L 3169 4134 
L 1269 4134 
L 1269 2991 
Q 1406 3038 1543 3061 
Q 1681 3084 1819 3084 
Q 2600 3084 3056 2656 
Q 3513 2228 3513 1497 
Q 3513 744 3044 326 
Q 2575 -91 1722 -91 
Q 1428 -91 1123 -41 
Q 819 9 494 109 
L 494 744 
Q 775 591 1075 516 
Q 1375 441 1709 441 
Q 2250 441 2565 725 
Q 2881 1009 2881 1497 
Q 2881 1984 2565 2268 
Q 2250 2553 1709 2553 
Q 1456 2553 1204 2497 
Q 953 2441 691 2322 
L 691 4666 
z
" transform="scale(0.015625)"/>
       </defs>
       <use xlink:href="#DejaVuSans-30"/>
       <use xlink:href="#DejaVuSans-2e" x="63.623047"/>
       <use xlink:href="#DejaVuSans-35" x="95.410156"/>
      </g>
     </g>
    </g>
    <g id="ytick_3">
     <g id="line2d_19">
      <path d="M 49.807188 175.720663 
L 336.842388 175.720663 
" clip-path="url(#p2b495e289c)" style="fill: none; stroke: #ffffff; stroke-linecap: round"/>
     </g>
     <g id="text_20">
      <!-- 1.0 -->
      <g style="fill: #262626" transform="translate(22.81375 179.899803) scale(0.11 -0.11)">
       <use xlink:href="#DejaVuSans-31"/>
       <use xlink:href="#DejaVuSans-2e" x="63.623047"/>
       <use xlink:href="#DejaVuSans-30" x="95.410156"/>
      </g>
     </g>
    </g>
    <g id="ytick_4">
     <g id="line2d_20">
      <path d="M 49.807188 110.490994 
L 336.842388 110.490994 
" clip-path="url(#p2b495e289c)" style="fill: none; stroke: #ffffff; stroke-linecap: round"/>
     </g>
     <g id="text_21">
      <!-- 1.5 -->
      <g style="fill: #262626" transform="translate(22.81375 114.670135) scale(0.11 -0.11)">
       <use xlink:href="#DejaVuSans-31"/>
       <use xlink:href="#DejaVuSans-2e" x="63.623047"/>
       <use xlink:href="#DejaVuSans-35" x="95.410156"/>
      </g>
     </g>
    </g>
    <g id="ytick_5">
     <g id="line2d_21">
      <path d="M 49.807188 45.261325 
L 336.842388 45.261325 
" clip-path="url(#p2b495e289c)" style="fill: none; stroke: #ffffff; stroke-linecap: round"/>
     </g>
     <g id="text_22">
      <!-- 2.0 -->
      <g style="fill: #262626" transform="translate(22.81375 49.440466) scale(0.11 -0.11)">
       <use xlink:href="#DejaVuSans-32"/>
       <use xlink:href="#DejaVuSans-2e" x="63.623047"/>
       <use xlink:href="#DejaVuSans-30" x="95.410156"/>
      </g>
     </g>
    </g>
    <g id="text_23">
     <!-- Compilation time (field access) [s] -->
     <g style="fill: #262626" transform="translate(16.318125 259.545) rotate(-90) scale(0.12 -0.12)">
      <defs>
       <path id="DejaVuSans-43" d="M 4122 4306 
L 4122 3641 
Q 3803 3938 3442 4084 
Q 3081 4231 2675 4231 
Q 1875 4231 1450 3742 
Q 1025 3253 1025 2328 
Q 1025 1406 1450 917 
Q 1875 428 2675 428 
Q 3081 428 3442 575 
Q 3803 722 4122 1019 
L 4122 359 
Q 3791 134 3420 21 
Q 3050 -91 2638 -91 
Q 1578 -91 968 557 
Q 359 1206 359 2328 
Q 359 3453 968 4101 
Q 1578 4750 2638 4750 
Q 3056 4750 3426 4639 
Q 3797 4528 4122 4306 
z
" transform="scale(0.015625)"/>
       <path id="DejaVuSans-6f" d="M 1959 3097 
Q 1497 3097 1228 2736 
Q 959 2375 959 1747 
Q 959 1119 1226 758 
Q 1494 397 1959 397 
Q 2419 397 2687 759 
Q 2956 1122 2956 1747 
Q 2956 2369 2687 2733 
Q 2419 3097 1959 3097 
z
M 1959 3584 
Q 2709 3584 3137 3096 
Q 3566 2609 3566 1747 
Q 3566 888 3137 398 
Q 2709 -91 1959 -91 
Q 1206 -91 779 398 
Q 353 888 353 1747 
Q 353 2609 779 3096 
Q 1206 3584 1959 3584 
z
" transform="scale(0.015625)"/>
       <path id="DejaVuSans-6d" d="M 3328 2828 
Q 3544 3216 3844 3400 
Q 4144 3584 4550 3584 
Q 5097 3584 5394 3201 
Q 5691 2819 5691 2113 
L 5691 0 
L 5113 0 
L 5113 2094 
Q 5113 2597 4934 2840 
Q 4756 3084 4391 3084 
Q 3944 3084 3684 2787 
Q 3425 2491 3425 1978 
L 3425 0 
L 2847 0 
L 2847 2094 
Q 2847 2600 2669 2842 
Q 2491 3084 2119 3084 
Q 1678 3084 1418 2786 
Q 1159 2488 1159 1978 
L 1159 0 
L 581 0 
L 581 3500 
L 1159 3500 
L 1159 2956 
Q 1356 3278 1631 3431 
Q 1906 3584 2284 3584 
Q 2666 3584 2933 3390 
Q 3200 3197 3328 2828 
z
" transform="scale(0.015625)"/>
       <path id="DejaVuSans-70" d="M 1159 525 
L 1159 -1331 
L 581 -1331 
L 581 3500 
L 1159 3500 
L 1159 2969 
Q 1341 3281 1617 3432 
Q 1894 3584 2278 3584 
Q 2916 3584 3314 3078 
Q 3713 2572 3713 1747 
Q 3713 922 3314 415 
Q 2916 -91 2278 -91 
Q 1894 -91 1617 61 
Q 1341 213 1159 525 
z
M 3116 1747 
Q 3116 2381 2855 2742 
Q 2594 3103 2138 3103 
Q 1681 3103 1420 2742 
Q 1159 2381 1159 1747 
Q 1159 1113 1420 752 
Q 1681 391 2138 391 
Q 2594 391 2855 752 
Q 3116 1113 3116 1747 
z
" transform="scale(0.015625)"/>
       <path id="DejaVuSans-61" d="M 2194 1759 
Q 1497 1759 1228 1600 
Q 959 1441 959 1056 
Q 959 750 1161 570 
Q 1363 391 1709 391 
Q 2188 391 2477 730 
Q 2766 1069 2766 1631 
L 2766 1759 
L 2194 1759 
z
M 3341 1997 
L 3341 0 
L 2766 0 
L 2766 531 
Q 2569 213 2275 61 
Q 1981 -91 1556 -91 
Q 1019 -91 701 211 
Q 384 513 384 1019 
Q 384 1609 779 1909 
Q 1175 2209 1959 2209 
L 2766 2209 
L 2766 2266 
Q 2766 2663 2505 2880 
Q 2244 3097 1772 3097 
Q 1472 3097 1187 3025 
Q 903 2953 641 2809 
L 641 3341 
Q 956 3463 1253 3523 
Q 1550 3584 1831 3584 
Q 2591 3584 2966 3190 
Q 3341 2797 3341 1997 
z
" transform="scale(0.015625)"/>
       <path id="DejaVuSans-74" d="M 1172 4494 
L 1172 3500 
L 2356 3500 
L 2356 3053 
L 1172 3053 
L 1172 1153 
Q 1172 725 1289 603 
Q 1406 481 1766 481 
L 2356 481 
L 2356 0 
L 1766 0 
Q 1100 0 847 248 
Q 594 497 594 1153 
L 594 3053 
L 172 3053 
L 172 3500 
L 594 3500 
L 594 4494 
L 1172 4494 
z
" transform="scale(0.015625)"/>
       <path id="DejaVuSans-28" d="M 1984 4856 
Q 1566 4138 1362 3434 
Q 1159 2731 1159 2009 
Q 1159 1288 1364 580 
Q 1569 -128 1984 -844 
L 1484 -844 
Q 1016 -109 783 600 
Q 550 1309 550 2009 
Q 550 2706 781 3412 
Q 1013 4119 1484 4856 
L 1984 4856 
z
" transform="scale(0.015625)"/>
       <path id="DejaVuSans-66" d="M 2375 4863 
L 2375 4384 
L 1825 4384 
Q 1516 4384 1395 4259 
Q 1275 4134 1275 3809 
L 1275 3500 
L 2222 3500 
L 2222 3053 
L 1275 3053 
L 1275 0 
L 697 0 
L 697 3053 
L 147 3053 
L 147 3500 
L 697 3500 
L 697 3744 
Q 697 4328 969 4595 
Q 1241 4863 1831 4863 
L 2375 4863 
z
" transform="scale(0.015625)"/>
       <path id="DejaVuSans-63" d="M 3122 3366 
L 3122 2828 
Q 2878 2963 2633 3030 
Q 2388 3097 2138 3097 
Q 1578 3097 1268 2742 
Q 959 2388 959 1747 
Q 959 1106 1268 751 
Q 1578 397 2138 397 
Q 2388 397 2633 464 
Q 2878 531 3122 666 
L 3122 134 
Q 2881 22 2623 -34 
Q 2366 -91 2075 -91 
Q 1284 -91 818 406 
Q 353 903 353 1747 
Q 353 2603 823 3093 
Q 1294 3584 2113 3584 
Q 2378 3584 2631 3529 
Q 2884 3475 3122 3366 
z
" transform="scale(0.015625)"/>
       <path id="DejaVuSans-73" d="M 2834 3397 
L 2834 2853 
Q 2591 2978 2328 3040 
Q 2066 3103 1784 3103 
Q 1356 3103 1142 2972 
Q 928 2841 928 2578 
Q 928 2378 1081 2264 
Q 1234 2150 1697 2047 
L 1894 2003 
Q 2506 1872 2764 1633 
Q 3022 1394 3022 966 
Q 3022 478 2636 193 
Q 2250 -91 1575 -91 
Q 1294 -91 989 -36 
Q 684 19 347 128 
L 347 722 
Q 666 556 975 473 
Q 1284 391 1588 391 
Q 1994 391 2212 530 
Q 2431 669 2431 922 
Q 2431 1156 2273 1281 
Q 2116 1406 1581 1522 
L 1381 1569 
Q 847 1681 609 1914 
Q 372 2147 372 2553 
Q 372 3047 722 3315 
Q 1072 3584 1716 3584 
Q 2034 3584 2315 3537 
Q 2597 3491 2834 3397 
z
" transform="scale(0.015625)"/>
       <path id="DejaVuSans-29" d="M 513 4856 
L 1013 4856 
Q 1481 4119 1714 3412 
Q 1947 2706 1947 2009 
Q 1947 1309 1714 600 
Q 1481 -109 1013 -844 
L 513 -844 
Q 928 -128 1133 580 
Q 1338 1288 1338 2009 
Q 1338 2731 1133 3434 
Q 928 4138 513 4856 
z
" transform="scale(0.015625)"/>
       <path id="DejaVuSans-5b" d="M 550 4863 
L 1875 4863 
L 1875 4416 
L 1125 4416 
L 1125 -397 
L 1875 -397 
L 1875 -844 
L 550 -844 
L 550 4863 
z
" transform="scale(0.015625)"/>
       <path id="DejaVuSans-5d" d="M 1947 4863 
L 1947 -844 
L 622 -844 
L 622 -397 
L 1369 -397 
L 1369 4416 
L 622 4416 
L 622 4863 
L 1947 4863 
z
" transform="scale(0.015625)"/>
      </defs>
      <use xlink:href="#DejaVuSans-43"/>
      <use xlink:href="#DejaVuSans-6f" x="69.824219"/>
      <use xlink:href="#DejaVuSans-6d" x="131.005859"/>
      <use xlink:href="#DejaVuSans-70" x="228.417969"/>
      <use xlink:href="#DejaVuSans-69" x="291.894531"/>
      <use xlink:href="#DejaVuSans-6c" x="319.677734"/>
      <use xlink:href="#DejaVuSans-61" x="347.460938"/>
      <use xlink:href="#DejaVuSans-74" x="408.740234"/>
      <use xlink:href="#DejaVuSans-69" x="447.949219"/>
      <use xlink:href="#DejaVuSans-6f" x="475.732422"/>
      <use xlink:href="#DejaVuSans-6e" x="536.914062"/>
      <use xlink:href="#DejaVuSans-20" x="600.292969"/>
      <use xlink:href="#DejaVuSans-74" x="632.080078"/>
      <use xlink:href="#DejaVuSans-69" x="671.289062"/>
      <use xlink:href="#DejaVuSans-6d" x="699.072266"/>
      <use xlink:href="#DejaVuSans-65" x="796.484375"/>
      <use xlink:href="#DejaVuSans-20" x="858.007812"/>
      <use xlink:href="#DejaVuSans-28" x="889.794922"/>
      <use xlink:href="#DejaVuSans-66" x="928.808594"/>
      <use xlink:href="#DejaVuSans-69" x="964.013672"/>
      <use xlink:href="#DejaVuSans-65" x="991.796875"/>
      <use xlink:href="#DejaVuSans-6c" x="1053.320312"/>
      <use xlink:href="#DejaVuSans-64" x="1081.103516"/>
      <use xlink:href="#DejaVuSans-20" x="1144.580078"/>
      <use xlink:href="#DejaVuSans-61" x="1176.367188"/>
      <use xlink:href="#DejaVuSans-63" x="1237.646484"/>
      <use xlink:href="#DejaVuSans-63" x="1292.626953"/>
      <use xlink:href="#DejaVuSans-65" x="1347.607422"/>
      <use xlink:href="#DejaVuSans-73" x="1409.130859"/>
      <use xlink:href="#DejaVuSans-73" x="1461.230469"/>
      <use xlink:href="#DejaVuSans-29" x="1513.330078"/>
      <use xlink:href="#DejaVuSans-20" x="1552.34375"/>
      <use xlink:href="#DejaVuSans-5b" x="1584.130859"/>
      <use xlink:href="#DejaVuSans-73" x="1623.144531"/>
      <use xlink:href="#DejaVuSans-5d" x="1675.244141"/>
     </g>
    </g>
   </g>
   <g id="PolyCollection_1">
    <defs>
     <path id="m86bebadb65" d="M 62.854242 -211.473853 
L 62.854242 -197.618518 
L 71.271697 -201.300302 
L 88.106606 -199.191033 
L 121.776424 -195.422829 
L 138.611333 -200.261061 
L 155.446242 -199.577896 
L 172.281151 -195.870376 
L 189.11606 -198.259662 
L 205.950969 -200.708342 
L 222.785878 -206.671397 
L 239.620788 -208.753242 
L 256.455697 -197.848217 
L 273.290606 -202.26032 
L 290.125515 -202.605381 
L 306.960424 -197.454865 
L 323.795333 -207.213176 
L 323.795333 -210.831215 
L 323.795333 -210.831215 
L 306.960424 -212.199417 
L 290.125515 -217.519854 
L 273.290606 -212.882323 
L 256.455697 -211.452057 
L 239.620788 -215.524294 
L 222.785878 -218.175833 
L 205.950969 -214.630902 
L 189.11606 -215.805321 
L 172.281151 -201.503315 
L 155.446242 -210.295471 
L 138.611333 -209.058243 
L 121.776424 -201.622023 
L 88.106606 -217.237383 
L 71.271697 -219.223538 
L 62.854242 -211.473853 
z
" style="stroke: #4c72b0; stroke-opacity: 0.2"/>
    </defs>
    <g clip-path="url(#p2b495e289c)">
     <use xlink:href="#m86bebadb65" x="0" y="349.139687" style="fill: #4c72b0; fill-opacity: 0.2; stroke: #4c72b0; stroke-opacity: 0.2"/>
    </g>
   </g>
   <g id="PolyCollection_2">
    <defs>
     <path id="m2ea2345f7d" d="M 62.854242 -314.404875 
L 62.854242 -292.87388 
L 71.271697 -289.011411 
L 88.106606 -304.342421 
L 121.776424 -293.834274 
L 138.611333 -302.199894 
L 155.446242 -298.438981 
L 172.281151 -292.269597 
L 189.11606 -284.739311 
L 205.950969 -288.429267 
L 222.785878 -289.065902 
L 239.620788 -296.830758 
L 256.455697 -294.161772 
L 273.290606 -292.377633 
L 290.125515 -285.617988 
L 306.960424 -299.164221 
L 323.795333 -284.478899 
L 323.795333 -317.429806 
L 323.795333 -317.429806 
L 306.960424 -318.090296 
L 290.125515 -312.463258 
L 273.290606 -308.971874 
L 256.455697 -308.068223 
L 239.620788 -315.695657 
L 222.785878 -302.754675 
L 205.950969 -297.59677 
L 189.11606 -301.154732 
L 172.281151 -322.831165 
L 155.446242 -319.87159 
L 138.611333 -328.442624 
L 121.776424 -306.161881 
L 88.106606 -334.948963 
L 71.271697 -310.09019 
L 62.854242 -314.404875 
z
" style="stroke: #dd8452; stroke-opacity: 0.2"/>
    </defs>
    <g clip-path="url(#p2b495e289c)">
     <use xlink:href="#m2ea2345f7d" x="0" y="349.139687" style="fill: #dd8452; fill-opacity: 0.2; stroke: #dd8452; stroke-opacity: 0.2"/>
    </g>
   </g>
   <g id="PolyCollection_3">
    <defs>
     <path id="m5f20ebd773" d="M 62.854242 -237.340895 
L 62.854242 -216.371074 
L 71.271697 -219.169013 
L 88.106606 -215.350798 
L 121.776424 -216.101963 
L 138.611333 -219.845641 
L 155.446242 -221.421602 
L 172.281151 -215.935179 
L 189.11606 -226.721092 
L 205.950969 -217.016025 
L 222.785878 -217.841783 
L 239.620788 -215.834612 
L 256.455697 -215.587902 
L 273.290606 -220.86091 
L 290.125515 -221.050792 
L 306.960424 -220.605973 
L 323.795333 -222.991042 
L 323.795333 -239.543789 
L 323.795333 -239.543789 
L 306.960424 -236.919932 
L 290.125515 -232.636766 
L 273.290606 -241.935728 
L 256.455697 -238.238623 
L 239.620788 -226.774576 
L 222.785878 -240.926423 
L 205.950969 -225.173618 
L 189.11606 -236.538227 
L 172.281151 -240.558225 
L 155.446242 -239.303462 
L 138.611333 -239.722707 
L 121.776424 -236.153142 
L 88.106606 -234.909186 
L 71.271697 -235.899535 
L 62.854242 -237.340895 
z
" style="stroke: #55a868; stroke-opacity: 0.2"/>
    </defs>
    <g clip-path="url(#p2b495e289c)">
     <use xlink:href="#m5f20ebd773" x="0" y="349.139687" style="fill: #55a868; fill-opacity: 0.2; stroke: #55a868; stroke-opacity: 0.2"/>
    </g>
   </g>
   <g id="PolyCollection_4">
    <defs>
     <path id="m8d62a8a98a" d="M 62.854242 -212.343033 
L 62.854242 -201.121464 
L 71.271697 -202.193165 
L 88.106606 -202.497546 
L 121.776424 -198.995528 
L 138.611333 -196.041794 
L 155.446242 -200.174974 
L 172.281151 -199.270347 
L 189.11606 -200.310772 
L 205.950969 -202.81402 
L 222.785878 -198.364231 
L 239.620788 -204.213421 
L 256.455697 -206.317356 
L 273.290606 -202.036203 
L 290.125515 -201.521406 
L 306.960424 -199.841598 
L 323.795333 -195.134464 
L 323.795333 -212.703812 
L 323.795333 -212.703812 
L 306.960424 -216.758598 
L 290.125515 -206.708257 
L 273.290606 -211.201356 
L 256.455697 -218.407837 
L 239.620788 -217.390704 
L 222.785878 -218.751236 
L 205.950969 -217.039594 
L 189.11606 -215.055993 
L 172.281151 -213.048727 
L 155.446242 -208.788084 
L 138.611333 -211.062954 
L 121.776424 -215.675184 
L 88.106606 -215.419589 
L 71.271697 -213.957679 
L 62.854242 -212.343033 
z
" style="stroke: #c44e52; stroke-opacity: 0.2"/>
    </defs>
    <g clip-path="url(#p2b495e289c)">
     <use xlink:href="#m8d62a8a98a" x="0" y="349.139687" style="fill: #c44e52; fill-opacity: 0.2; stroke: #c44e52; stroke-opacity: 0.2"/>
    </g>
   </g>
   <g id="PolyCollection_5">
    <defs>
     <path id="m17cead847d" d="M 62.854242 -268.487558 
L 62.854242 -254.863195 
L 71.271697 -245.965088 
L 88.106606 -254.232295 
L 121.776424 -251.508859 
L 138.611333 -254.566222 
L 155.446242 -255.793716 
L 172.281151 -253.341441 
L 189.11606 -250.035229 
L 205.950969 -248.440367 
L 222.785878 -249.614529 
L 239.620788 -244.468871 
L 256.455697 -249.456412 
L 273.290606 -252.843798 
L 290.125515 -248.910196 
L 306.960424 -244.492545 
L 323.795333 -255.18885 
L 323.795333 -264.948003 
L 323.795333 -264.948003 
L 306.960424 -260.184626 
L 290.125515 -265.699774 
L 273.290606 -280.440806 
L 256.455697 -267.078595 
L 239.620788 -280.197299 
L 222.785878 -271.426478 
L 205.950969 -254.754896 
L 189.11606 -271.433803 
L 172.281151 -264.845243 
L 155.446242 -275.316973 
L 138.611333 -274.331036 
L 121.776424 -272.290286 
L 88.106606 -276.445354 
L 71.271697 -260.068478 
L 62.854242 -268.487558 
z
" style="stroke: #8172b3; stroke-opacity: 0.2"/>
    </defs>
    <g clip-path="url(#p2b495e289c)">
     <use xlink:href="#m17cead847d" x="0" y="349.139687" style="fill: #8172b3; fill-opacity: 0.2; stroke: #8172b3; stroke-opacity: 0.2"/>
    </g>
   </g>
   <g id="PolyCollection_6">
    <defs>
     <path id="m1bde9e1c2d" d="M 62.854242 -241.402237 
L 62.854242 -230.549104 
L 71.271697 -228.00968 
L 88.106606 -240.652244 
L 121.776424 -240.644857 
L 138.611333 -228.87109 
L 155.446242 -229.634611 
L 172.281151 -230.531598 
L 189.11606 -238.631553 
L 205.950969 -230.622029 
L 222.785878 -239.400704 
L 239.620788 -226.043671 
L 256.455697 -227.326297 
L 273.290606 -226.135912 
L 290.125515 -242.097341 
L 306.960424 -233.40763 
L 323.795333 -235.666285 
L 323.795333 -250.663065 
L 323.795333 -250.663065 
L 306.960424 -246.032716 
L 290.125515 -261.855791 
L 273.290606 -239.912929 
L 256.455697 -251.439646 
L 239.620788 -243.204604 
L 222.785878 -265.05198 
L 205.950969 -243.808748 
L 189.11606 -246.130668 
L 172.281151 -249.526774 
L 155.446242 -257.994259 
L 138.611333 -241.255357 
L 121.776424 -261.747622 
L 88.106606 -262.189482 
L 71.271697 -257.307377 
L 62.854242 -241.402237 
z
" style="stroke: #937860; stroke-opacity: 0.2"/>
    </defs>
    <g clip-path="url(#p2b495e289c)">
     <use xlink:href="#m1bde9e1c2d" x="0" y="349.139687" style="fill: #937860; fill-opacity: 0.2; stroke: #937860; stroke-opacity: 0.2"/>
    </g>
   </g>
   <g id="line2d_22">
    <path d="M 62.854242 144.593502 
L 71.271697 140.714096 
L 88.106606 140.925479 
L 121.776424 150.617262 
L 138.611333 144.677073 
L 155.446242 144.427373 
L 172.281151 150.247742 
L 189.11606 143.491367 
L 205.950969 141.428177 
L 222.785878 136.716072 
L 239.620788 137.279357 
L 256.455697 145.134627 
L 273.290606 141.034906 
L 290.125515 139.07707 
L 306.960424 143.932033 
L 323.795333 140.231009 
" clip-path="url(#p2b495e289c)" style="fill: none; stroke: #4c72b0; stroke-width: 1.5; stroke-linecap: round"/>
    <defs>
     <path id="mbf27e8b027" d="M 0 3 
C 0.795609 3 1.55874 2.683901 2.12132 2.12132 
C 2.683901 1.55874 3 0.795609 3 0 
C 3 -0.795609 2.683901 -1.55874 2.12132 -2.12132 
C 1.55874 -2.683901 0.795609 -3 0 -3 
C -0.795609 -3 -1.55874 -2.683901 -2.12132 -2.12132 
C -2.683901 -1.55874 -3 -0.795609 -3 0 
C -3 0.795609 -2.683901 1.55874 -2.12132 2.12132 
C -1.55874 2.683901 -0.795609 3 0 3 
z
" style="stroke: #ffffff; stroke-width: 0.75"/>
    </defs>
    <g clip-path="url(#p2b495e289c)">
     <use xlink:href="#mbf27e8b027" x="62.854242" y="144.593502" style="fill: #4c72b0; stroke: #ffffff; stroke-width: 0.75"/>
     <use xlink:href="#mbf27e8b027" x="71.271697" y="140.714096" style="fill: #4c72b0; stroke: #ffffff; stroke-width: 0.75"/>
     <use xlink:href="#mbf27e8b027" x="88.106606" y="140.925479" style="fill: #4c72b0; stroke: #ffffff; stroke-width: 0.75"/>
     <use xlink:href="#mbf27e8b027" x="121.776424" y="150.617262" style="fill: #4c72b0; stroke: #ffffff; stroke-width: 0.75"/>
     <use xlink:href="#mbf27e8b027" x="138.611333" y="144.677073" style="fill: #4c72b0; stroke: #ffffff; stroke-width: 0.75"/>
     <use xlink:href="#mbf27e8b027" x="155.446242" y="144.427373" style="fill: #4c72b0; stroke: #ffffff; stroke-width: 0.75"/>
     <use xlink:href="#mbf27e8b027" x="172.281151" y="150.247742" style="fill: #4c72b0; stroke: #ffffff; stroke-width: 0.75"/>
     <use xlink:href="#mbf27e8b027" x="189.11606" y="143.491367" style="fill: #4c72b0; stroke: #ffffff; stroke-width: 0.75"/>
     <use xlink:href="#mbf27e8b027" x="205.950969" y="141.428177" style="fill: #4c72b0; stroke: #ffffff; stroke-width: 0.75"/>
     <use xlink:href="#mbf27e8b027" x="222.785878" y="136.716072" style="fill: #4c72b0; stroke: #ffffff; stroke-width: 0.75"/>
     <use xlink:href="#mbf27e8b027" x="239.620788" y="137.279357" style="fill: #4c72b0; stroke: #ffffff; stroke-width: 0.75"/>
     <use xlink:href="#mbf27e8b027" x="256.455697" y="145.134627" style="fill: #4c72b0; stroke: #ffffff; stroke-width: 0.75"/>
     <use xlink:href="#mbf27e8b027" x="273.290606" y="141.034906" style="fill: #4c72b0; stroke: #ffffff; stroke-width: 0.75"/>
     <use xlink:href="#mbf27e8b027" x="290.125515" y="139.07707" style="fill: #4c72b0; stroke: #ffffff; stroke-width: 0.75"/>
     <use xlink:href="#mbf27e8b027" x="306.960424" y="143.932033" style="fill: #4c72b0; stroke: #ffffff; stroke-width: 0.75"/>
     <use xlink:href="#mbf27e8b027" x="323.795333" y="140.231009" style="fill: #4c72b0; stroke: #ffffff; stroke-width: 0.75"/>
    </g>
   </g>
   <g id="line2d_23">
    <path d="M 62.854242 45.496832 
L 71.271697 49.634357 
L 88.106606 29.347024 
L 121.776424 48.826658 
L 138.611333 34.409022 
L 155.446242 38.636149 
L 172.281151 42.493353 
L 189.11606 55.764081 
L 205.950969 56.126669 
L 222.785878 53.261179 
L 239.620788 41.751065 
L 256.455697 48.80923 
L 273.290606 48.202003 
L 290.125515 50.756868 
L 306.960424 40.460285 
L 323.795333 49.258147 
" clip-path="url(#p2b495e289c)" style="fill: none; stroke: #dd8452; stroke-width: 1.5; stroke-linecap: round"/>
    <defs>
     <path id="me9367487dd" d="M -1.5 3 
L 0 1.5 
L 1.5 3 
L 3 1.5 
L 1.5 0 
L 3 -1.5 
L 1.5 -3 
L 0 -1.5 
L -1.5 -3 
L -3 -1.5 
L -1.5 0 
L -3 1.5 
z
" style="stroke: #ffffff; stroke-width: 0.75; stroke-linejoin: miter"/>
    </defs>
    <g clip-path="url(#p2b495e289c)">
     <use xlink:href="#me9367487dd" x="62.854242" y="45.496832" style="fill: #dd8452; stroke: #ffffff; stroke-width: 0.75; stroke-linejoin: miter"/>
     <use xlink:href="#me9367487dd" x="71.271697" y="49.634357" style="fill: #dd8452; stroke: #ffffff; stroke-width: 0.75; stroke-linejoin: miter"/>
     <use xlink:href="#me9367487dd" x="88.106606" y="29.347024" style="fill: #dd8452; stroke: #ffffff; stroke-width: 0.75; stroke-linejoin: miter"/>
     <use xlink:href="#me9367487dd" x="121.776424" y="48.826658" style="fill: #dd8452; stroke: #ffffff; stroke-width: 0.75; stroke-linejoin: miter"/>
     <use xlink:href="#me9367487dd" x="138.611333" y="34.409022" style="fill: #dd8452; stroke: #ffffff; stroke-width: 0.75; stroke-linejoin: miter"/>
     <use xlink:href="#me9367487dd" x="155.446242" y="38.636149" style="fill: #dd8452; stroke: #ffffff; stroke-width: 0.75; stroke-linejoin: miter"/>
     <use xlink:href="#me9367487dd" x="172.281151" y="42.493353" style="fill: #dd8452; stroke: #ffffff; stroke-width: 0.75; stroke-linejoin: miter"/>
     <use xlink:href="#me9367487dd" x="189.11606" y="55.764081" style="fill: #dd8452; stroke: #ffffff; stroke-width: 0.75; stroke-linejoin: miter"/>
     <use xlink:href="#me9367487dd" x="205.950969" y="56.126669" style="fill: #dd8452; stroke: #ffffff; stroke-width: 0.75; stroke-linejoin: miter"/>
     <use xlink:href="#me9367487dd" x="222.785878" y="53.261179" style="fill: #dd8452; stroke: #ffffff; stroke-width: 0.75; stroke-linejoin: miter"/>
     <use xlink:href="#me9367487dd" x="239.620788" y="41.751065" style="fill: #dd8452; stroke: #ffffff; stroke-width: 0.75; stroke-linejoin: miter"/>
     <use xlink:href="#me9367487dd" x="256.455697" y="48.80923" style="fill: #dd8452; stroke: #ffffff; stroke-width: 0.75; stroke-linejoin: miter"/>
     <use xlink:href="#me9367487dd" x="273.290606" y="48.202003" style="fill: #dd8452; stroke: #ffffff; stroke-width: 0.75; stroke-linejoin: miter"/>
     <use xlink:href="#me9367487dd" x="290.125515" y="50.756868" style="fill: #dd8452; stroke: #ffffff; stroke-width: 0.75; stroke-linejoin: miter"/>
     <use xlink:href="#me9367487dd" x="306.960424" y="40.460285" style="fill: #dd8452; stroke: #ffffff; stroke-width: 0.75; stroke-linejoin: miter"/>
     <use xlink:href="#me9367487dd" x="323.795333" y="49.258147" style="fill: #dd8452; stroke: #ffffff; stroke-width: 0.75; stroke-linejoin: miter"/>
    </g>
   </g>
   <g id="line2d_24">
    <path d="M 62.854242 123.447081 
L 71.271697 122.843125 
L 88.106606 122.966836 
L 121.776424 123.557306 
L 138.611333 119.826345 
L 155.446242 118.919629 
L 172.281151 121.897318 
L 189.11606 117.510028 
L 205.950969 128.140059 
L 222.785878 119.523796 
L 239.620788 127.726786 
L 256.455697 123.878675 
L 273.290606 117.685381 
L 290.125515 121.901292 
L 306.960424 119.159193 
L 323.795333 117.97955 
" clip-path="url(#p2b495e289c)" style="fill: none; stroke: #55a868; stroke-width: 1.5; stroke-linecap: round"/>
    <defs>
     <path id="m00fc20149c" d="M -2.12132 -2.12132 
L -2.12132 2.12132 
L 2.12132 2.12132 
L 2.12132 -2.12132 
z
" style="stroke: #ffffff; stroke-width: 0.75; stroke-linejoin: miter"/>
    </defs>
    <g clip-path="url(#p2b495e289c)">
     <use xlink:href="#m00fc20149c" x="62.854242" y="123.447081" style="fill: #55a868; stroke: #ffffff; stroke-width: 0.75; stroke-linejoin: miter"/>
     <use xlink:href="#m00fc20149c" x="71.271697" y="122.843125" style="fill: #55a868; stroke: #ffffff; stroke-width: 0.75; stroke-linejoin: miter"/>
     <use xlink:href="#m00fc20149c" x="88.106606" y="122.966836" style="fill: #55a868; stroke: #ffffff; stroke-width: 0.75; stroke-linejoin: miter"/>
     <use xlink:href="#m00fc20149c" x="121.776424" y="123.557306" style="fill: #55a868; stroke: #ffffff; stroke-width: 0.75; stroke-linejoin: miter"/>
     <use xlink:href="#m00fc20149c" x="138.611333" y="119.826345" style="fill: #55a868; stroke: #ffffff; stroke-width: 0.75; stroke-linejoin: miter"/>
     <use xlink:href="#m00fc20149c" x="155.446242" y="118.919629" style="fill: #55a868; stroke: #ffffff; stroke-width: 0.75; stroke-linejoin: miter"/>
     <use xlink:href="#m00fc20149c" x="172.281151" y="121.897318" style="fill: #55a868; stroke: #ffffff; stroke-width: 0.75; stroke-linejoin: miter"/>
     <use xlink:href="#m00fc20149c" x="189.11606" y="117.510028" style="fill: #55a868; stroke: #ffffff; stroke-width: 0.75; stroke-linejoin: miter"/>
     <use xlink:href="#m00fc20149c" x="205.950969" y="128.140059" style="fill: #55a868; stroke: #ffffff; stroke-width: 0.75; stroke-linejoin: miter"/>
     <use xlink:href="#m00fc20149c" x="222.785878" y="119.523796" style="fill: #55a868; stroke: #ffffff; stroke-width: 0.75; stroke-linejoin: miter"/>
     <use xlink:href="#m00fc20149c" x="239.620788" y="127.726786" style="fill: #55a868; stroke: #ffffff; stroke-width: 0.75; stroke-linejoin: miter"/>
     <use xlink:href="#m00fc20149c" x="256.455697" y="123.878675" style="fill: #55a868; stroke: #ffffff; stroke-width: 0.75; stroke-linejoin: miter"/>
     <use xlink:href="#m00fc20149c" x="273.290606" y="117.685381" style="fill: #55a868; stroke: #ffffff; stroke-width: 0.75; stroke-linejoin: miter"/>
     <use xlink:href="#m00fc20149c" x="290.125515" y="121.901292" style="fill: #55a868; stroke: #ffffff; stroke-width: 0.75; stroke-linejoin: miter"/>
     <use xlink:href="#m00fc20149c" x="306.960424" y="119.159193" style="fill: #55a868; stroke: #ffffff; stroke-width: 0.75; stroke-linejoin: miter"/>
     <use xlink:href="#m00fc20149c" x="323.795333" y="117.97955" style="fill: #55a868; stroke: #ffffff; stroke-width: 0.75; stroke-linejoin: miter"/>
    </g>
   </g>
   <g id="line2d_25">
    <path d="M 62.854242 142.182492 
L 71.271697 141.547502 
L 88.106606 139.556662 
L 121.776424 141.634146 
L 138.611333 147.388336 
L 155.446242 145.77109 
L 172.281151 143.133154 
L 189.11606 141.30066 
L 205.950969 139.330767 
L 222.785878 140.69544 
L 239.620788 137.723066 
L 256.455697 136.777091 
L 273.290606 142.71422 
L 290.125515 144.86541 
L 306.960424 140.053142 
L 323.795333 146.001341 
" clip-path="url(#p2b495e289c)" style="fill: none; stroke: #c44e52; stroke-width: 1.5; stroke-linecap: round"/>
    <defs>
     <path id="ma729ec7fb9" d="M -1 3 
L 1 3 
L 1 1 
L 3 1 
L 3 -1 
L 1 -1 
L 1 -3 
L -1 -3 
L -1 -1 
L -3 -1 
L -3 1 
L -1 1 
z
" style="stroke: #ffffff; stroke-width: 0.75; stroke-linejoin: miter"/>
    </defs>
    <g clip-path="url(#p2b495e289c)">
     <use xlink:href="#ma729ec7fb9" x="62.854242" y="142.182492" style="fill: #c44e52; stroke: #ffffff; stroke-width: 0.75; stroke-linejoin: miter"/>
     <use xlink:href="#ma729ec7fb9" x="71.271697" y="141.547502" style="fill: #c44e52; stroke: #ffffff; stroke-width: 0.75; stroke-linejoin: miter"/>
     <use xlink:href="#ma729ec7fb9" x="88.106606" y="139.556662" style="fill: #c44e52; stroke: #ffffff; stroke-width: 0.75; stroke-linejoin: miter"/>
     <use xlink:href="#ma729ec7fb9" x="121.776424" y="141.634146" style="fill: #c44e52; stroke: #ffffff; stroke-width: 0.75; stroke-linejoin: miter"/>
     <use xlink:href="#ma729ec7fb9" x="138.611333" y="147.388336" style="fill: #c44e52; stroke: #ffffff; stroke-width: 0.75; stroke-linejoin: miter"/>
     <use xlink:href="#ma729ec7fb9" x="155.446242" y="145.77109" style="fill: #c44e52; stroke: #ffffff; stroke-width: 0.75; stroke-linejoin: miter"/>
     <use xlink:href="#ma729ec7fb9" x="172.281151" y="143.133154" style="fill: #c44e52; stroke: #ffffff; stroke-width: 0.75; stroke-linejoin: miter"/>
     <use xlink:href="#ma729ec7fb9" x="189.11606" y="141.30066" style="fill: #c44e52; stroke: #ffffff; stroke-width: 0.75; stroke-linejoin: miter"/>
     <use xlink:href="#ma729ec7fb9" x="205.950969" y="139.330767" style="fill: #c44e52; stroke: #ffffff; stroke-width: 0.75; stroke-linejoin: miter"/>
     <use xlink:href="#ma729ec7fb9" x="222.785878" y="140.69544" style="fill: #c44e52; stroke: #ffffff; stroke-width: 0.75; stroke-linejoin: miter"/>
     <use xlink:href="#ma729ec7fb9" x="239.620788" y="137.723066" style="fill: #c44e52; stroke: #ffffff; stroke-width: 0.75; stroke-linejoin: miter"/>
     <use xlink:href="#ma729ec7fb9" x="256.455697" y="136.777091" style="fill: #c44e52; stroke: #ffffff; stroke-width: 0.75; stroke-linejoin: miter"/>
     <use xlink:href="#ma729ec7fb9" x="273.290606" y="142.71422" style="fill: #c44e52; stroke: #ffffff; stroke-width: 0.75; stroke-linejoin: miter"/>
     <use xlink:href="#ma729ec7fb9" x="290.125515" y="144.86541" style="fill: #c44e52; stroke: #ffffff; stroke-width: 0.75; stroke-linejoin: miter"/>
     <use xlink:href="#ma729ec7fb9" x="306.960424" y="140.053142" style="fill: #c44e52; stroke: #ffffff; stroke-width: 0.75; stroke-linejoin: miter"/>
     <use xlink:href="#ma729ec7fb9" x="323.795333" y="146.001341" style="fill: #c44e52; stroke: #ffffff; stroke-width: 0.75; stroke-linejoin: miter"/>
    </g>
   </g>
   <g id="line2d_26">
    <path d="M 62.854242 87.267851 
L 71.271697 95.877412 
L 88.106606 86.953208 
L 121.776424 88.214514 
L 138.611333 84.691059 
L 155.446242 83.551893 
L 172.281151 90.394264 
L 189.11606 87.89258 
L 205.950969 97.543458 
L 222.785878 90.704697 
L 239.620788 87.470459 
L 256.455697 92.79242 
L 273.290606 82.508839 
L 290.125515 91.353909 
L 306.960424 95.105786 
L 323.795333 89.071261 
" clip-path="url(#p2b495e289c)" style="fill: none; stroke: #8172b3; stroke-width: 1.5; stroke-linecap: round"/>
    <defs>
     <path id="m5ffc88d38b" d="M 0 -3 
L -3 -0 
L -0 3 
L 3 0 
z
" style="stroke: #ffffff; stroke-width: 0.75; stroke-linejoin: miter"/>
    </defs>
    <g clip-path="url(#p2b495e289c)">
     <use xlink:href="#m5ffc88d38b" x="62.854242" y="87.267851" style="fill: #8172b3; stroke: #ffffff; stroke-width: 0.75; stroke-linejoin: miter"/>
     <use xlink:href="#m5ffc88d38b" x="71.271697" y="95.877412" style="fill: #8172b3; stroke: #ffffff; stroke-width: 0.75; stroke-linejoin: miter"/>
     <use xlink:href="#m5ffc88d38b" x="88.106606" y="86.953208" style="fill: #8172b3; stroke: #ffffff; stroke-width: 0.75; stroke-linejoin: miter"/>
     <use xlink:href="#m5ffc88d38b" x="121.776424" y="88.214514" style="fill: #8172b3; stroke: #ffffff; stroke-width: 0.75; stroke-linejoin: miter"/>
     <use xlink:href="#m5ffc88d38b" x="138.611333" y="84.691059" style="fill: #8172b3; stroke: #ffffff; stroke-width: 0.75; stroke-linejoin: miter"/>
     <use xlink:href="#m5ffc88d38b" x="155.446242" y="83.551893" style="fill: #8172b3; stroke: #ffffff; stroke-width: 0.75; stroke-linejoin: miter"/>
     <use xlink:href="#m5ffc88d38b" x="172.281151" y="90.394264" style="fill: #8172b3; stroke: #ffffff; stroke-width: 0.75; stroke-linejoin: miter"/>
     <use xlink:href="#m5ffc88d38b" x="189.11606" y="87.89258" style="fill: #8172b3; stroke: #ffffff; stroke-width: 0.75; stroke-linejoin: miter"/>
     <use xlink:href="#m5ffc88d38b" x="205.950969" y="97.543458" style="fill: #8172b3; stroke: #ffffff; stroke-width: 0.75; stroke-linejoin: miter"/>
     <use xlink:href="#m5ffc88d38b" x="222.785878" y="90.704697" style="fill: #8172b3; stroke: #ffffff; stroke-width: 0.75; stroke-linejoin: miter"/>
     <use xlink:href="#m5ffc88d38b" x="239.620788" y="87.470459" style="fill: #8172b3; stroke: #ffffff; stroke-width: 0.75; stroke-linejoin: miter"/>
     <use xlink:href="#m5ffc88d38b" x="256.455697" y="92.79242" style="fill: #8172b3; stroke: #ffffff; stroke-width: 0.75; stroke-linejoin: miter"/>
     <use xlink:href="#m5ffc88d38b" x="273.290606" y="82.508839" style="fill: #8172b3; stroke: #ffffff; stroke-width: 0.75; stroke-linejoin: miter"/>
     <use xlink:href="#m5ffc88d38b" x="290.125515" y="91.353909" style="fill: #8172b3; stroke: #ffffff; stroke-width: 0.75; stroke-linejoin: miter"/>
     <use xlink:href="#m5ffc88d38b" x="306.960424" y="95.105786" style="fill: #8172b3; stroke: #ffffff; stroke-width: 0.75; stroke-linejoin: miter"/>
     <use xlink:href="#m5ffc88d38b" x="323.795333" y="89.071261" style="fill: #8172b3; stroke: #ffffff; stroke-width: 0.75; stroke-linejoin: miter"/>
    </g>
   </g>
   <g id="line2d_27">
    <path d="M 62.854242 113.664541 
L 71.271697 106.938069 
L 88.106606 97.176784 
L 121.776424 99.368165 
L 138.611333 113.87077 
L 155.446242 105.325253 
L 172.281151 111.039332 
L 189.11606 106.697875 
L 205.950969 111.924299 
L 222.785878 96.523194 
L 239.620788 113.915055 
L 256.455697 109.728163 
L 273.290606 116.670115 
L 290.125515 96.512278 
L 306.960424 109.05177 
L 323.795333 105.957644 
" clip-path="url(#p2b495e289c)" style="fill: none; stroke: #937860; stroke-width: 1.5; stroke-linecap: round"/>
    <defs>
     <path id="m3a30b07d74" d="M 0 -3 
L -1.06066 -1.06066 
L -3 -0 
L -1.06066 1.06066 
L -0 3 
L 1.06066 1.06066 
L 3 0 
L 1.06066 -1.06066 
z
" style="stroke: #ffffff; stroke-width: 0.75; stroke-linejoin: bevel"/>
    </defs>
    <g clip-path="url(#p2b495e289c)">
     <use xlink:href="#m3a30b07d74" x="62.854242" y="113.664541" style="fill: #937860; stroke: #ffffff; stroke-width: 0.75; stroke-linejoin: bevel"/>
     <use xlink:href="#m3a30b07d74" x="71.271697" y="106.938069" style="fill: #937860; stroke: #ffffff; stroke-width: 0.75; stroke-linejoin: bevel"/>
     <use xlink:href="#m3a30b07d74" x="88.106606" y="97.176784" style="fill: #937860; stroke: #ffffff; stroke-width: 0.75; stroke-linejoin: bevel"/>
     <use xlink:href="#m3a30b07d74" x="121.776424" y="99.368165" style="fill: #937860; stroke: #ffffff; stroke-width: 0.75; stroke-linejoin: bevel"/>
     <use xlink:href="#m3a30b07d74" x="138.611333" y="113.87077" style="fill: #937860; stroke: #ffffff; stroke-width: 0.75; stroke-linejoin: bevel"/>
     <use xlink:href="#m3a30b07d74" x="155.446242" y="105.325253" style="fill: #937860; stroke: #ffffff; stroke-width: 0.75; stroke-linejoin: bevel"/>
     <use xlink:href="#m3a30b07d74" x="172.281151" y="111.039332" style="fill: #937860; stroke: #ffffff; stroke-width: 0.75; stroke-linejoin: bevel"/>
     <use xlink:href="#m3a30b07d74" x="189.11606" y="106.697875" style="fill: #937860; stroke: #ffffff; stroke-width: 0.75; stroke-linejoin: bevel"/>
     <use xlink:href="#m3a30b07d74" x="205.950969" y="111.924299" style="fill: #937860; stroke: #ffffff; stroke-width: 0.75; stroke-linejoin: bevel"/>
     <use xlink:href="#m3a30b07d74" x="222.785878" y="96.523194" style="fill: #937860; stroke: #ffffff; stroke-width: 0.75; stroke-linejoin: bevel"/>
     <use xlink:href="#m3a30b07d74" x="239.620788" y="113.915055" style="fill: #937860; stroke: #ffffff; stroke-width: 0.75; stroke-linejoin: bevel"/>
     <use xlink:href="#m3a30b07d74" x="256.455697" y="109.728163" style="fill: #937860; stroke: #ffffff; stroke-width: 0.75; stroke-linejoin: bevel"/>
     <use xlink:href="#m3a30b07d74" x="273.290606" y="116.670115" style="fill: #937860; stroke: #ffffff; stroke-width: 0.75; stroke-linejoin: bevel"/>
     <use xlink:href="#m3a30b07d74" x="290.125515" y="96.512278" style="fill: #937860; stroke: #ffffff; stroke-width: 0.75; stroke-linejoin: bevel"/>
     <use xlink:href="#m3a30b07d74" x="306.960424" y="109.05177" style="fill: #937860; stroke: #ffffff; stroke-width: 0.75; stroke-linejoin: bevel"/>
     <use xlink:href="#m3a30b07d74" x="323.795333" y="105.957644" style="fill: #937860; stroke: #ffffff; stroke-width: 0.75; stroke-linejoin: bevel"/>
    </g>
   </g>
   <g id="line2d_28"/>
   <g id="line2d_29"/>
   <g id="line2d_30"/>
   <g id="line2d_31"/>
   <g id="line2d_32"/>
   <g id="line2d_33"/>
   <g id="patch_3">
    <path d="M 49.807188 306.18 
L 49.807188 7.2 
" style="fill: none; stroke: #ffffff; stroke-width: 1.25; stroke-linejoin: miter; stroke-linecap: square"/>
   </g>
   <g id="patch_4">
    <path d="M 49.807188 306.18 
L 336.842388 306.18 
" style="fill: none; stroke: #ffffff; stroke-width: 1.25; stroke-linejoin: miter; stroke-linecap: square"/>
   </g>
  </g>
  <g id="legend_1">
   <g id="line2d_34">
    <path d="M 356.48125 133.390312 
L 367.48125 133.390312 
L 378.48125 133.390312 
" style="fill: none; stroke: #4c72b0; stroke-width: 1.5; stroke-linecap: round"/>
    <defs>
     <path id="m3cf43ae808" d="M 0 3 
C 0.795609 3 1.55874 2.683901 2.12132 2.12132 
C 2.683901 1.55874 3 0.795609 3 0 
C 3 -0.795609 2.683901 -1.55874 2.12132 -2.12132 
C 1.55874 -2.683901 0.795609 -3 0 -3 
C -0.795609 -3 -1.55874 -2.683901 -2.12132 -2.12132 
C -2.683901 -1.55874 -3 -0.795609 -3 0 
C -3 0.795609 -2.683901 1.55874 -2.12132 2.12132 
C -1.55874 2.683901 -0.795609 3 0 3 
z
" style="stroke: #4c72b0"/>
    </defs>
    <g>
     <use xlink:href="#m3cf43ae808" x="367.48125" y="133.390312" style="fill: #4c72b0; stroke: #4c72b0"/>
    </g>
   </g>
   <g id="text_24">
    <!-- record4s % -->
    <g style="fill: #262626" transform="translate(387.28125 137.240312) scale(0.11 -0.11)">
     <defs>
      <path id="DejaVuSans-72" d="M 2631 2963 
Q 2534 3019 2420 3045 
Q 2306 3072 2169 3072 
Q 1681 3072 1420 2755 
Q 1159 2438 1159 1844 
L 1159 0 
L 581 0 
L 581 3500 
L 1159 3500 
L 1159 2956 
Q 1341 3275 1631 3429 
Q 1922 3584 2338 3584 
Q 2397 3584 2469 3576 
Q 2541 3569 2628 3553 
L 2631 2963 
z
" transform="scale(0.015625)"/>
      <path id="DejaVuSans-25" d="M 4653 2053 
Q 4381 2053 4226 1822 
Q 4072 1591 4072 1178 
Q 4072 772 4226 539 
Q 4381 306 4653 306 
Q 4919 306 5073 539 
Q 5228 772 5228 1178 
Q 5228 1588 5073 1820 
Q 4919 2053 4653 2053 
z
M 4653 2450 
Q 5147 2450 5437 2106 
Q 5728 1763 5728 1178 
Q 5728 594 5436 251 
Q 5144 -91 4653 -91 
Q 4153 -91 3862 251 
Q 3572 594 3572 1178 
Q 3572 1766 3864 2108 
Q 4156 2450 4653 2450 
z
M 1428 4353 
Q 1159 4353 1004 4120 
Q 850 3888 850 3481 
Q 850 3069 1003 2837 
Q 1156 2606 1428 2606 
Q 1700 2606 1854 2837 
Q 2009 3069 2009 3481 
Q 2009 3884 1853 4118 
Q 1697 4353 1428 4353 
z
M 4250 4750 
L 4750 4750 
L 1831 -91 
L 1331 -91 
L 4250 4750 
z
M 1428 4750 
Q 1922 4750 2215 4408 
Q 2509 4066 2509 3481 
Q 2509 2891 2217 2550 
Q 1925 2209 1428 2209 
Q 931 2209 642 2551 
Q 353 2894 353 3481 
Q 353 4063 643 4406 
Q 934 4750 1428 4750 
z
" transform="scale(0.015625)"/>
     </defs>
     <use xlink:href="#DejaVuSans-72"/>
     <use xlink:href="#DejaVuSans-65" x="38.863281"/>
     <use xlink:href="#DejaVuSans-63" x="100.386719"/>
     <use xlink:href="#DejaVuSans-6f" x="155.367188"/>
     <use xlink:href="#DejaVuSans-72" x="216.548828"/>
     <use xlink:href="#DejaVuSans-64" x="255.912109"/>
     <use xlink:href="#DejaVuSans-34" x="319.388672"/>
     <use xlink:href="#DejaVuSans-73" x="383.011719"/>
     <use xlink:href="#DejaVuSans-20" x="435.111328"/>
     <use xlink:href="#DejaVuSans-25" x="466.898438"/>
    </g>
   </g>
   <g id="line2d_35">
    <path d="M 356.48125 149.53625 
L 367.48125 149.53625 
L 378.48125 149.53625 
" style="fill: none; stroke: #dd8452; stroke-width: 1.5; stroke-linecap: round"/>
    <defs>
     <path id="mdf7ecba0c5" d="M -1.5 3 
L 0 1.5 
L 1.5 3 
L 3 1.5 
L 1.5 0 
L 3 -1.5 
L 1.5 -3 
L 0 -1.5 
L -1.5 -3 
L -3 -1.5 
L -1.5 0 
L -3 1.5 
z
" style="stroke: #dd8452; stroke-linejoin: miter"/>
    </defs>
    <g>
     <use xlink:href="#mdf7ecba0c5" x="367.48125" y="149.53625" style="fill: #dd8452; stroke: #dd8452; stroke-linejoin: miter"/>
    </g>
   </g>
   <g id="text_25">
    <!-- record4s ArrayRecord -->
    <g style="fill: #262626" transform="translate(387.28125 153.38625) scale(0.11 -0.11)">
     <defs>
      <path id="DejaVuSans-41" d="M 2188 4044 
L 1331 1722 
L 3047 1722 
L 2188 4044 
z
M 1831 4666 
L 2547 4666 
L 4325 0 
L 3669 0 
L 3244 1197 
L 1141 1197 
L 716 0 
L 50 0 
L 1831 4666 
z
" transform="scale(0.015625)"/>
      <path id="DejaVuSans-79" d="M 2059 -325 
Q 1816 -950 1584 -1140 
Q 1353 -1331 966 -1331 
L 506 -1331 
L 506 -850 
L 844 -850 
Q 1081 -850 1212 -737 
Q 1344 -625 1503 -206 
L 1606 56 
L 191 3500 
L 800 3500 
L 1894 763 
L 2988 3500 
L 3597 3500 
L 2059 -325 
z
" transform="scale(0.015625)"/>
      <path id="DejaVuSans-52" d="M 2841 2188 
Q 3044 2119 3236 1894 
Q 3428 1669 3622 1275 
L 4263 0 
L 3584 0 
L 2988 1197 
Q 2756 1666 2539 1819 
Q 2322 1972 1947 1972 
L 1259 1972 
L 1259 0 
L 628 0 
L 628 4666 
L 2053 4666 
Q 2853 4666 3247 4331 
Q 3641 3997 3641 3322 
Q 3641 2881 3436 2590 
Q 3231 2300 2841 2188 
z
M 1259 4147 
L 1259 2491 
L 2053 2491 
Q 2509 2491 2742 2702 
Q 2975 2913 2975 3322 
Q 2975 3731 2742 3939 
Q 2509 4147 2053 4147 
L 1259 4147 
z
" transform="scale(0.015625)"/>
     </defs>
     <use xlink:href="#DejaVuSans-72"/>
     <use xlink:href="#DejaVuSans-65" x="38.863281"/>
     <use xlink:href="#DejaVuSans-63" x="100.386719"/>
     <use xlink:href="#DejaVuSans-6f" x="155.367188"/>
     <use xlink:href="#DejaVuSans-72" x="216.548828"/>
     <use xlink:href="#DejaVuSans-64" x="255.912109"/>
     <use xlink:href="#DejaVuSans-34" x="319.388672"/>
     <use xlink:href="#DejaVuSans-73" x="383.011719"/>
     <use xlink:href="#DejaVuSans-20" x="435.111328"/>
     <use xlink:href="#DejaVuSans-41" x="466.898438"/>
     <use xlink:href="#DejaVuSans-72" x="535.306641"/>
     <use xlink:href="#DejaVuSans-72" x="574.669922"/>
     <use xlink:href="#DejaVuSans-61" x="615.783203"/>
     <use xlink:href="#DejaVuSans-79" x="677.0625"/>
     <use xlink:href="#DejaVuSans-52" x="736.242188"/>
     <use xlink:href="#DejaVuSans-65" x="801.224609"/>
     <use xlink:href="#DejaVuSans-63" x="862.748047"/>
     <use xlink:href="#DejaVuSans-6f" x="917.728516"/>
     <use xlink:href="#DejaVuSans-72" x="978.910156"/>
     <use xlink:href="#DejaVuSans-64" x="1018.273438"/>
    </g>
   </g>
   <g id="line2d_36">
    <path d="M 356.48125 165.682187 
L 367.48125 165.682187 
L 378.48125 165.682187 
" style="fill: none; stroke: #55a868; stroke-width: 1.5; stroke-linecap: round"/>
    <defs>
     <path id="meddb1d3e51" d="M -2.12132 -2.12132 
L -2.12132 2.12132 
L 2.12132 2.12132 
L 2.12132 -2.12132 
z
" style="stroke: #55a868; stroke-linejoin: miter"/>
    </defs>
    <g>
     <use xlink:href="#meddb1d3e51" x="367.48125" y="165.682187" style="fill: #55a868; stroke: #55a868; stroke-linejoin: miter"/>
    </g>
   </g>
   <g id="text_26">
    <!-- Scala 3 Map -->
    <g style="fill: #262626" transform="translate(387.28125 169.532187) scale(0.11 -0.11)">
     <defs>
      <path id="DejaVuSans-53" d="M 3425 4513 
L 3425 3897 
Q 3066 4069 2747 4153 
Q 2428 4238 2131 4238 
Q 1616 4238 1336 4038 
Q 1056 3838 1056 3469 
Q 1056 3159 1242 3001 
Q 1428 2844 1947 2747 
L 2328 2669 
Q 3034 2534 3370 2195 
Q 3706 1856 3706 1288 
Q 3706 609 3251 259 
Q 2797 -91 1919 -91 
Q 1588 -91 1214 -16 
Q 841 59 441 206 
L 441 856 
Q 825 641 1194 531 
Q 1563 422 1919 422 
Q 2459 422 2753 634 
Q 3047 847 3047 1241 
Q 3047 1584 2836 1778 
Q 2625 1972 2144 2069 
L 1759 2144 
Q 1053 2284 737 2584 
Q 422 2884 422 3419 
Q 422 4038 858 4394 
Q 1294 4750 2059 4750 
Q 2388 4750 2728 4690 
Q 3069 4631 3425 4513 
z
" transform="scale(0.015625)"/>
      <path id="DejaVuSans-4d" d="M 628 4666 
L 1569 4666 
L 2759 1491 
L 3956 4666 
L 4897 4666 
L 4897 0 
L 4281 0 
L 4281 4097 
L 3078 897 
L 2444 897 
L 1241 4097 
L 1241 0 
L 628 0 
L 628 4666 
z
" transform="scale(0.015625)"/>
     </defs>
     <use xlink:href="#DejaVuSans-53"/>
     <use xlink:href="#DejaVuSans-63" x="63.476562"/>
     <use xlink:href="#DejaVuSans-61" x="118.457031"/>
     <use xlink:href="#DejaVuSans-6c" x="179.736328"/>
     <use xlink:href="#DejaVuSans-61" x="207.519531"/>
     <use xlink:href="#DejaVuSans-20" x="268.798828"/>
     <use xlink:href="#DejaVuSans-33" x="300.585938"/>
     <use xlink:href="#DejaVuSans-20" x="364.208984"/>
     <use xlink:href="#DejaVuSans-4d" x="395.996094"/>
     <use xlink:href="#DejaVuSans-61" x="482.275391"/>
     <use xlink:href="#DejaVuSans-70" x="543.554688"/>
    </g>
   </g>
   <g id="line2d_37">
    <path d="M 356.48125 181.828125 
L 367.48125 181.828125 
L 378.48125 181.828125 
" style="fill: none; stroke: #c44e52; stroke-width: 1.5; stroke-linecap: round"/>
    <defs>
     <path id="mf074bc3bb2" d="M -1 3 
L 1 3 
L 1 1 
L 3 1 
L 3 -1 
L 1 -1 
L 1 -3 
L -1 -3 
L -1 -1 
L -3 -1 
L -3 1 
L -1 1 
z
" style="stroke: #c44e52; stroke-linejoin: miter"/>
    </defs>
    <g>
     <use xlink:href="#mf074bc3bb2" x="367.48125" y="181.828125" style="fill: #c44e52; stroke: #c44e52; stroke-linejoin: miter"/>
    </g>
   </g>
   <g id="text_27">
    <!-- Scala 3 case class -->
    <g style="fill: #262626" transform="translate(387.28125 185.678125) scale(0.11 -0.11)">
     <use xlink:href="#DejaVuSans-53"/>
     <use xlink:href="#DejaVuSans-63" x="63.476562"/>
     <use xlink:href="#DejaVuSans-61" x="118.457031"/>
     <use xlink:href="#DejaVuSans-6c" x="179.736328"/>
     <use xlink:href="#DejaVuSans-61" x="207.519531"/>
     <use xlink:href="#DejaVuSans-20" x="268.798828"/>
     <use xlink:href="#DejaVuSans-33" x="300.585938"/>
     <use xlink:href="#DejaVuSans-20" x="364.208984"/>
     <use xlink:href="#DejaVuSans-63" x="395.996094"/>
     <use xlink:href="#DejaVuSans-61" x="450.976562"/>
     <use xlink:href="#DejaVuSans-73" x="512.255859"/>
     <use xlink:href="#DejaVuSans-65" x="564.355469"/>
     <use xlink:href="#DejaVuSans-20" x="625.878906"/>
     <use xlink:href="#DejaVuSans-63" x="657.666016"/>
     <use xlink:href="#DejaVuSans-6c" x="712.646484"/>
     <use xlink:href="#DejaVuSans-61" x="740.429688"/>
     <use xlink:href="#DejaVuSans-73" x="801.708984"/>
     <use xlink:href="#DejaVuSans-73" x="853.808594"/>
    </g>
   </g>
   <g id="line2d_38">
    <path d="M 356.48125 197.974062 
L 367.48125 197.974062 
L 378.48125 197.974062 
" style="fill: none; stroke: #8172b3; stroke-width: 1.5; stroke-linecap: round"/>
    <defs>
     <path id="m6d9e55ebc4" d="M 0 -3 
L -3 -0 
L -0 3 
L 3 0 
z
" style="stroke: #8172b3; stroke-linejoin: miter"/>
    </defs>
    <g>
     <use xlink:href="#m6d9e55ebc4" x="367.48125" y="197.974062" style="fill: #8172b3; stroke: #8172b3; stroke-linejoin: miter"/>
    </g>
   </g>
   <g id="text_28">
    <!-- shapeless Record -->
    <g style="fill: #262626" transform="translate(387.28125 201.824062) scale(0.11 -0.11)">
     <defs>
      <path id="DejaVuSans-68" d="M 3513 2113 
L 3513 0 
L 2938 0 
L 2938 2094 
Q 2938 2591 2744 2837 
Q 2550 3084 2163 3084 
Q 1697 3084 1428 2787 
Q 1159 2491 1159 1978 
L 1159 0 
L 581 0 
L 581 4863 
L 1159 4863 
L 1159 2956 
Q 1366 3272 1645 3428 
Q 1925 3584 2291 3584 
Q 2894 3584 3203 3211 
Q 3513 2838 3513 2113 
z
" transform="scale(0.015625)"/>
     </defs>
     <use xlink:href="#DejaVuSans-73"/>
     <use xlink:href="#DejaVuSans-68" x="52.099609"/>
     <use xlink:href="#DejaVuSans-61" x="115.478516"/>
     <use xlink:href="#DejaVuSans-70" x="176.757812"/>
     <use xlink:href="#DejaVuSans-65" x="240.234375"/>
     <use xlink:href="#DejaVuSans-6c" x="301.757812"/>
     <use xlink:href="#DejaVuSans-65" x="329.541016"/>
     <use xlink:href="#DejaVuSans-73" x="391.064453"/>
     <use xlink:href="#DejaVuSans-73" x="443.164062"/>
     <use xlink:href="#DejaVuSans-20" x="495.263672"/>
     <use xlink:href="#DejaVuSans-52" x="527.050781"/>
     <use xlink:href="#DejaVuSans-65" x="592.033203"/>
     <use xlink:href="#DejaVuSans-63" x="653.556641"/>
     <use xlink:href="#DejaVuSans-6f" x="708.537109"/>
     <use xlink:href="#DejaVuSans-72" x="769.71875"/>
     <use xlink:href="#DejaVuSans-64" x="809.082031"/>
    </g>
   </g>
   <g id="line2d_39">
    <path d="M 356.48125 214.12 
L 367.48125 214.12 
L 378.48125 214.12 
" style="fill: none; stroke: #937860; stroke-width: 1.5; stroke-linecap: round"/>
    <defs>
     <path id="mde2d41e4fd" d="M 0 -3 
L -1.06066 -1.06066 
L -3 -0 
L -1.06066 1.06066 
L -0 3 
L 1.06066 1.06066 
L 3 0 
L 1.06066 -1.06066 
z
" style="stroke: #937860; stroke-linejoin: bevel"/>
    </defs>
    <g>
     <use xlink:href="#mde2d41e4fd" x="367.48125" y="214.12" style="fill: #937860; stroke: #937860; stroke-linejoin: bevel"/>
    </g>
   </g>
   <g id="text_29">
    <!-- scala-records Rec -->
    <g style="fill: #262626" transform="translate(387.28125 217.97) scale(0.11 -0.11)">
     <defs>
      <path id="DejaVuSans-2d" d="M 313 2009 
L 1997 2009 
L 1997 1497 
L 313 1497 
L 313 2009 
z
" transform="scale(0.015625)"/>
     </defs>
     <use xlink:href="#DejaVuSans-73"/>
     <use xlink:href="#DejaVuSans-63" x="52.099609"/>
     <use xlink:href="#DejaVuSans-61" x="107.080078"/>
     <use xlink:href="#DejaVuSans-6c" x="168.359375"/>
     <use xlink:href="#DejaVuSans-61" x="196.142578"/>
     <use xlink:href="#DejaVuSans-2d" x="257.421875"/>
     <use xlink:href="#DejaVuSans-72" x="293.505859"/>
     <use xlink:href="#DejaVuSans-65" x="332.369141"/>
     <use xlink:href="#DejaVuSans-63" x="393.892578"/>
     <use xlink:href="#DejaVuSans-6f" x="448.873047"/>
     <use xlink:href="#DejaVuSans-72" x="510.054688"/>
     <use xlink:href="#DejaVuSans-64" x="549.417969"/>
     <use xlink:href="#DejaVuSans-73" x="612.894531"/>
     <use xlink:href="#DejaVuSans-20" x="664.994141"/>
     <use xlink:href="#DejaVuSans-52" x="696.78125"/>
     <use xlink:href="#DejaVuSans-65" x="761.763672"/>
     <use xlink:href="#DejaVuSans-63" x="823.287109"/>
    </g>
   </g>
  </g>
 </g>
 <defs>
  <clipPath id="p2b495e289c">
   <rect x="49.807188" y="7.2" width="287.0352" height="298.98"/>
  </clipPath>
 </defs>
</svg>
