<?xml version="1.0" encoding="utf-8" standalone="no"?>
<!DOCTYPE svg PUBLIC "-//W3C//DTD SVG 1.1//EN"
  "http://www.w3.org/Graphics/SVG/1.1/DTD/svg11.dtd">
<svg xmlns:xlink="http://www.w3.org/1999/xlink" width="516.19125pt" height="349.139687pt" viewBox="0 0 516.19125 349.139687" xmlns="http://www.w3.org/2000/svg" version="1.1">
 <metadata>
  <rdf:RDF xmlns:dc="http://purl.org/dc/elements/1.1/" xmlns:cc="http://creativecommons.org/ns#" xmlns:rdf="http://www.w3.org/1999/02/22-rdf-syntax-ns#">
   <cc:Work>
    <dc:type rdf:resource="http://purl.org/dc/dcmitype/StillImage"/>
    <dc:date>2023-11-17T15:05:33.089739</dc:date>
    <dc:format>image/svg+xml</dc:format>
    <dc:creator>
     <cc:Agent>
      <dc:title>Matplotlib v3.7.2, https://matplotlib.org/</dc:title>
     </cc:Agent>
    </dc:creator>
   </cc:Work>
  </rdf:RDF>
 </metadata>
 <defs>
  <style type="text/css">*{stroke-linejoin: round; stroke-linecap: butt}</style>
 </defs>
 <g id="figure_1">
  <g id="patch_1">
   <path d="M 0 349.139687 
L 516.19125 349.139687 
L 516.19125 0 
L 0 0 
z
" style="fill: #ffffff"/>
  </g>
  <g id="axes_1">
   <g id="patch_2">
    <path d="M 46.31125 306.18 
L 336.85645 306.18 
L 336.85645 7.2 
L 46.31125 7.2 
z
" style="fill: #eaeaf2"/>
   </g>
   <g id="matplotlib.axis_1">
    <g id="xtick_1">
     <g id="line2d_1">
      <path d="M 68.038237 306.18 
L 68.038237 7.2 
" clip-path="url(#p03fe439811)" style="fill: none; stroke: #ffffff; stroke-linecap: round"/>
     </g>
     <g id="text_1">
      <!-- 2 -->
      <g style="fill: #262626" transform="translate(64.538862 324.038281) scale(0.11 -0.11)">
       <defs>
        <path id="DejaVuSans-32" d="M 1228 531 
L 3431 531 
L 3431 0 
L 469 0 
L 469 531 
Q 828 903 1448 1529 
Q 2069 2156 2228 2338 
Q 2531 2678 2651 2914 
Q 2772 3150 2772 3378 
Q 2772 3750 2511 3984 
Q 2250 4219 1831 4219 
Q 1534 4219 1204 4116 
Q 875 4013 500 3803 
L 500 4441 
Q 881 4594 1212 4672 
Q 1544 4750 1819 4750 
Q 2544 4750 2975 4387 
Q 3406 4025 3406 3419 
Q 3406 3131 3298 2873 
Q 3191 2616 2906 2266 
Q 2828 2175 2409 1742 
Q 1991 1309 1228 531 
z
" transform="scale(0.015625)"/>
       </defs>
       <use xlink:href="#DejaVuSans-32"/>
      </g>
     </g>
    </g>
    <g id="xtick_2">
     <g id="line2d_2">
      <path d="M 85.079011 306.18 
L 85.079011 7.2 
" clip-path="url(#p03fe439811)" style="fill: none; stroke: #ffffff; stroke-linecap: round"/>
     </g>
     <g id="text_2">
      <!-- 4 -->
      <g style="fill: #262626" transform="translate(81.579636 324.038281) scale(0.11 -0.11)">
       <defs>
        <path id="DejaVuSans-34" d="M 2419 4116 
L 825 1625 
L 2419 1625 
L 2419 4116 
z
M 2253 4666 
L 3047 4666 
L 3047 1625 
L 3713 1625 
L 3713 1100 
L 3047 1100 
L 3047 0 
L 2419 0 
L 2419 1100 
L 313 1100 
L 313 1709 
L 2253 4666 
z
" transform="scale(0.015625)"/>
       </defs>
       <use xlink:href="#DejaVuSans-34"/>
      </g>
     </g>
    </g>
    <g id="xtick_3">
     <g id="line2d_3">
      <path d="M 102.119785 306.18 
L 102.119785 7.2 
" clip-path="url(#p03fe439811)" style="fill: none; stroke: #ffffff; stroke-linecap: round"/>
     </g>
     <g id="text_3">
      <!-- 6 -->
      <g style="fill: #262626" transform="translate(98.62041 324.038281) scale(0.11 -0.11)">
       <defs>
        <path id="DejaVuSans-36" d="M 2113 2584 
Q 1688 2584 1439 2293 
Q 1191 2003 1191 1497 
Q 1191 994 1439 701 
Q 1688 409 2113 409 
Q 2538 409 2786 701 
Q 3034 994 3034 1497 
Q 3034 2003 2786 2293 
Q 2538 2584 2113 2584 
z
M 3366 4563 
L 3366 3988 
Q 3128 4100 2886 4159 
Q 2644 4219 2406 4219 
Q 1781 4219 1451 3797 
Q 1122 3375 1075 2522 
Q 1259 2794 1537 2939 
Q 1816 3084 2150 3084 
Q 2853 3084 3261 2657 
Q 3669 2231 3669 1497 
Q 3669 778 3244 343 
Q 2819 -91 2113 -91 
Q 1303 -91 875 529 
Q 447 1150 447 2328 
Q 447 3434 972 4092 
Q 1497 4750 2381 4750 
Q 2619 4750 2861 4703 
Q 3103 4656 3366 4563 
z
" transform="scale(0.015625)"/>
       </defs>
       <use xlink:href="#DejaVuSans-36"/>
      </g>
     </g>
    </g>
    <g id="xtick_4">
     <g id="line2d_4">
      <path d="M 119.16056 306.18 
L 119.16056 7.2 
" clip-path="url(#p03fe439811)" style="fill: none; stroke: #ffffff; stroke-linecap: round"/>
     </g>
     <g id="text_4">
      <!-- 8 -->
      <g style="fill: #262626" transform="translate(115.661185 324.038281) scale(0.11 -0.11)">
       <defs>
        <path id="DejaVuSans-38" d="M 2034 2216 
Q 1584 2216 1326 1975 
Q 1069 1734 1069 1313 
Q 1069 891 1326 650 
Q 1584 409 2034 409 
Q 2484 409 2743 651 
Q 3003 894 3003 1313 
Q 3003 1734 2745 1975 
Q 2488 2216 2034 2216 
z
M 1403 2484 
Q 997 2584 770 2862 
Q 544 3141 544 3541 
Q 544 4100 942 4425 
Q 1341 4750 2034 4750 
Q 2731 4750 3128 4425 
Q 3525 4100 3525 3541 
Q 3525 3141 3298 2862 
Q 3072 2584 2669 2484 
Q 3125 2378 3379 2068 
Q 3634 1759 3634 1313 
Q 3634 634 3220 271 
Q 2806 -91 2034 -91 
Q 1263 -91 848 271 
Q 434 634 434 1313 
Q 434 1759 690 2068 
Q 947 2378 1403 2484 
z
M 1172 3481 
Q 1172 3119 1398 2916 
Q 1625 2713 2034 2713 
Q 2441 2713 2670 2916 
Q 2900 3119 2900 3481 
Q 2900 3844 2670 4047 
Q 2441 4250 2034 4250 
Q 1625 4250 1398 4047 
Q 1172 3844 1172 3481 
z
" transform="scale(0.015625)"/>
       </defs>
       <use xlink:href="#DejaVuSans-38"/>
      </g>
     </g>
    </g>
    <g id="xtick_5">
     <g id="line2d_5">
      <path d="M 136.201334 306.18 
L 136.201334 7.2 
" clip-path="url(#p03fe439811)" style="fill: none; stroke: #ffffff; stroke-linecap: round"/>
     </g>
     <g id="text_5">
      <!-- 10 -->
      <g style="fill: #262626" transform="translate(129.202584 324.038281) scale(0.11 -0.11)">
       <defs>
        <path id="DejaVuSans-31" d="M 794 531 
L 1825 531 
L 1825 4091 
L 703 3866 
L 703 4441 
L 1819 4666 
L 2450 4666 
L 2450 531 
L 3481 531 
L 3481 0 
L 794 0 
L 794 531 
z
" transform="scale(0.015625)"/>
        <path id="DejaVuSans-30" d="M 2034 4250 
Q 1547 4250 1301 3770 
Q 1056 3291 1056 2328 
Q 1056 1369 1301 889 
Q 1547 409 2034 409 
Q 2525 409 2770 889 
Q 3016 1369 3016 2328 
Q 3016 3291 2770 3770 
Q 2525 4250 2034 4250 
z
M 2034 4750 
Q 2819 4750 3233 4129 
Q 3647 3509 3647 2328 
Q 3647 1150 3233 529 
Q 2819 -91 2034 -91 
Q 1250 -91 836 529 
Q 422 1150 422 2328 
Q 422 3509 836 4129 
Q 1250 4750 2034 4750 
z
" transform="scale(0.015625)"/>
       </defs>
       <use xlink:href="#DejaVuSans-31"/>
       <use xlink:href="#DejaVuSans-30" x="63.623047"/>
      </g>
     </g>
    </g>
    <g id="xtick_6">
     <g id="line2d_6">
      <path d="M 153.242108 306.18 
L 153.242108 7.2 
" clip-path="url(#p03fe439811)" style="fill: none; stroke: #ffffff; stroke-linecap: round"/>
     </g>
     <g id="text_6">
      <!-- 12 -->
      <g style="fill: #262626" transform="translate(146.243358 324.038281) scale(0.11 -0.11)">
       <use xlink:href="#DejaVuSans-31"/>
       <use xlink:href="#DejaVuSans-32" x="63.623047"/>
      </g>
     </g>
    </g>
    <g id="xtick_7">
     <g id="line2d_7">
      <path d="M 170.282882 306.18 
L 170.282882 7.2 
" clip-path="url(#p03fe439811)" style="fill: none; stroke: #ffffff; stroke-linecap: round"/>
     </g>
     <g id="text_7">
      <!-- 14 -->
      <g style="fill: #262626" transform="translate(163.284132 324.038281) scale(0.11 -0.11)">
       <use xlink:href="#DejaVuSans-31"/>
       <use xlink:href="#DejaVuSans-34" x="63.623047"/>
      </g>
     </g>
    </g>
    <g id="xtick_8">
     <g id="line2d_8">
      <path d="M 187.323656 306.18 
L 187.323656 7.2 
" clip-path="url(#p03fe439811)" style="fill: none; stroke: #ffffff; stroke-linecap: round"/>
     </g>
     <g id="text_8">
      <!-- 16 -->
      <g style="fill: #262626" transform="translate(180.324906 324.038281) scale(0.11 -0.11)">
       <use xlink:href="#DejaVuSans-31"/>
       <use xlink:href="#DejaVuSans-36" x="63.623047"/>
      </g>
     </g>
    </g>
    <g id="xtick_9">
     <g id="line2d_9">
      <path d="M 204.364431 306.18 
L 204.364431 7.2 
" clip-path="url(#p03fe439811)" style="fill: none; stroke: #ffffff; stroke-linecap: round"/>
     </g>
     <g id="text_9">
      <!-- 18 -->
      <g style="fill: #262626" transform="translate(197.365681 324.038281) scale(0.11 -0.11)">
       <use xlink:href="#DejaVuSans-31"/>
       <use xlink:href="#DejaVuSans-38" x="63.623047"/>
      </g>
     </g>
    </g>
    <g id="xtick_10">
     <g id="line2d_10">
      <path d="M 221.405205 306.18 
L 221.405205 7.2 
" clip-path="url(#p03fe439811)" style="fill: none; stroke: #ffffff; stroke-linecap: round"/>
     </g>
     <g id="text_10">
      <!-- 20 -->
      <g style="fill: #262626" transform="translate(214.406455 324.038281) scale(0.11 -0.11)">
       <use xlink:href="#DejaVuSans-32"/>
       <use xlink:href="#DejaVuSans-30" x="63.623047"/>
      </g>
     </g>
    </g>
    <g id="xtick_11">
     <g id="line2d_11">
      <path d="M 238.445979 306.18 
L 238.445979 7.2 
" clip-path="url(#p03fe439811)" style="fill: none; stroke: #ffffff; stroke-linecap: round"/>
     </g>
     <g id="text_11">
      <!-- 22 -->
      <g style="fill: #262626" transform="translate(231.447229 324.038281) scale(0.11 -0.11)">
       <use xlink:href="#DejaVuSans-32"/>
       <use xlink:href="#DejaVuSans-32" x="63.623047"/>
      </g>
     </g>
    </g>
    <g id="xtick_12">
     <g id="line2d_12">
      <path d="M 255.486753 306.18 
L 255.486753 7.2 
" clip-path="url(#p03fe439811)" style="fill: none; stroke: #ffffff; stroke-linecap: round"/>
     </g>
     <g id="text_12">
      <!-- 24 -->
      <g style="fill: #262626" transform="translate(248.488003 324.038281) scale(0.11 -0.11)">
       <use xlink:href="#DejaVuSans-32"/>
       <use xlink:href="#DejaVuSans-34" x="63.623047"/>
      </g>
     </g>
    </g>
    <g id="xtick_13">
     <g id="line2d_13">
      <path d="M 272.527527 306.18 
L 272.527527 7.2 
" clip-path="url(#p03fe439811)" style="fill: none; stroke: #ffffff; stroke-linecap: round"/>
     </g>
     <g id="text_13">
      <!-- 26 -->
      <g style="fill: #262626" transform="translate(265.528777 324.038281) scale(0.11 -0.11)">
       <use xlink:href="#DejaVuSans-32"/>
       <use xlink:href="#DejaVuSans-36" x="63.623047"/>
      </g>
     </g>
    </g>
    <g id="xtick_14">
     <g id="line2d_14">
      <path d="M 289.568302 306.18 
L 289.568302 7.2 
" clip-path="url(#p03fe439811)" style="fill: none; stroke: #ffffff; stroke-linecap: round"/>
     </g>
     <g id="text_14">
      <!-- 28 -->
      <g style="fill: #262626" transform="translate(282.569552 324.038281) scale(0.11 -0.11)">
       <use xlink:href="#DejaVuSans-32"/>
       <use xlink:href="#DejaVuSans-38" x="63.623047"/>
      </g>
     </g>
    </g>
    <g id="xtick_15">
     <g id="line2d_15">
      <path d="M 306.609076 306.18 
L 306.609076 7.2 
" clip-path="url(#p03fe439811)" style="fill: none; stroke: #ffffff; stroke-linecap: round"/>
     </g>
     <g id="text_15">
      <!-- 30 -->
      <g style="fill: #262626" transform="translate(299.610326 324.038281) scale(0.11 -0.11)">
       <defs>
        <path id="DejaVuSans-33" d="M 2597 2516 
Q 3050 2419 3304 2112 
Q 3559 1806 3559 1356 
Q 3559 666 3084 287 
Q 2609 -91 1734 -91 
Q 1441 -91 1130 -33 
Q 819 25 488 141 
L 488 750 
Q 750 597 1062 519 
Q 1375 441 1716 441 
Q 2309 441 2620 675 
Q 2931 909 2931 1356 
Q 2931 1769 2642 2001 
Q 2353 2234 1838 2234 
L 1294 2234 
L 1294 2753 
L 1863 2753 
Q 2328 2753 2575 2939 
Q 2822 3125 2822 3475 
Q 2822 3834 2567 4026 
Q 2313 4219 1838 4219 
Q 1578 4219 1281 4162 
Q 984 4106 628 3988 
L 628 4550 
Q 988 4650 1302 4700 
Q 1616 4750 1894 4750 
Q 2613 4750 3031 4423 
Q 3450 4097 3450 3541 
Q 3450 3153 3228 2886 
Q 3006 2619 2597 2516 
z
" transform="scale(0.015625)"/>
       </defs>
       <use xlink:href="#DejaVuSans-33"/>
       <use xlink:href="#DejaVuSans-30" x="63.623047"/>
      </g>
     </g>
    </g>
    <g id="xtick_16">
     <g id="line2d_16">
      <path d="M 323.64985 306.18 
L 323.64985 7.2 
" clip-path="url(#p03fe439811)" style="fill: none; stroke: #ffffff; stroke-linecap: round"/>
     </g>
     <g id="text_16">
      <!-- 32 -->
      <g style="fill: #262626" transform="translate(316.6511 324.038281) scale(0.11 -0.11)">
       <use xlink:href="#DejaVuSans-33"/>
       <use xlink:href="#DejaVuSans-32" x="63.623047"/>
      </g>
     </g>
    </g>
    <g id="text_17">
     <!-- Field index -->
     <g style="fill: #262626" transform="translate(159.409788 339.444062) scale(0.12 -0.12)">
      <defs>
       <path id="DejaVuSans-46" d="M 628 4666 
L 3309 4666 
L 3309 4134 
L 1259 4134 
L 1259 2759 
L 3109 2759 
L 3109 2228 
L 1259 2228 
L 1259 0 
L 628 0 
L 628 4666 
z
" transform="scale(0.015625)"/>
       <path id="DejaVuSans-69" d="M 603 3500 
L 1178 3500 
L 1178 0 
L 603 0 
L 603 3500 
z
M 603 4863 
L 1178 4863 
L 1178 4134 
L 603 4134 
L 603 4863 
z
" transform="scale(0.015625)"/>
       <path id="DejaVuSans-65" d="M 3597 1894 
L 3597 1613 
L 953 1613 
Q 991 1019 1311 708 
Q 1631 397 2203 397 
Q 2534 397 2845 478 
Q 3156 559 3463 722 
L 3463 178 
Q 3153 47 2828 -22 
Q 2503 -91 2169 -91 
Q 1331 -91 842 396 
Q 353 884 353 1716 
Q 353 2575 817 3079 
Q 1281 3584 2069 3584 
Q 2775 3584 3186 3129 
Q 3597 2675 3597 1894 
z
M 3022 2063 
Q 3016 2534 2758 2815 
Q 2500 3097 2075 3097 
Q 1594 3097 1305 2825 
Q 1016 2553 972 2059 
L 3022 2063 
z
" transform="scale(0.015625)"/>
       <path id="DejaVuSans-6c" d="M 603 4863 
L 1178 4863 
L 1178 0 
L 603 0 
L 603 4863 
z
" transform="scale(0.015625)"/>
       <path id="DejaVuSans-64" d="M 2906 2969 
L 2906 4863 
L 3481 4863 
L 3481 0 
L 2906 0 
L 2906 525 
Q 2725 213 2448 61 
Q 2172 -91 1784 -91 
Q 1150 -91 751 415 
Q 353 922 353 1747 
Q 353 2572 751 3078 
Q 1150 3584 1784 3584 
Q 2172 3584 2448 3432 
Q 2725 3281 2906 2969 
z
M 947 1747 
Q 947 1113 1208 752 
Q 1469 391 1925 391 
Q 2381 391 2643 752 
Q 2906 1113 2906 1747 
Q 2906 2381 2643 2742 
Q 2381 3103 1925 3103 
Q 1469 3103 1208 2742 
Q 947 2381 947 1747 
z
" transform="scale(0.015625)"/>
       <path id="DejaVuSans-20" transform="scale(0.015625)"/>
       <path id="DejaVuSans-6e" d="M 3513 2113 
L 3513 0 
L 2938 0 
L 2938 2094 
Q 2938 2591 2744 2837 
Q 2550 3084 2163 3084 
Q 1697 3084 1428 2787 
Q 1159 2491 1159 1978 
L 1159 0 
L 581 0 
L 581 3500 
L 1159 3500 
L 1159 2956 
Q 1366 3272 1645 3428 
Q 1925 3584 2291 3584 
Q 2894 3584 3203 3211 
Q 3513 2838 3513 2113 
z
" transform="scale(0.015625)"/>
       <path id="DejaVuSans-78" d="M 3513 3500 
L 2247 1797 
L 3578 0 
L 2900 0 
L 1881 1375 
L 863 0 
L 184 0 
L 1544 1831 
L 300 3500 
L 978 3500 
L 1906 2253 
L 2834 3500 
L 3513 3500 
z
" transform="scale(0.015625)"/>
      </defs>
      <use xlink:href="#DejaVuSans-46"/>
      <use xlink:href="#DejaVuSans-69" x="50.269531"/>
      <use xlink:href="#DejaVuSans-65" x="78.052734"/>
      <use xlink:href="#DejaVuSans-6c" x="139.576172"/>
      <use xlink:href="#DejaVuSans-64" x="167.359375"/>
      <use xlink:href="#DejaVuSans-20" x="230.835938"/>
      <use xlink:href="#DejaVuSans-69" x="262.623047"/>
      <use xlink:href="#DejaVuSans-6e" x="290.40625"/>
      <use xlink:href="#DejaVuSans-64" x="353.785156"/>
      <use xlink:href="#DejaVuSans-65" x="417.261719"/>
      <use xlink:href="#DejaVuSans-78" x="477.035156"/>
     </g>
    </g>
   </g>
   <g id="matplotlib.axis_2">
    <g id="ytick_1">
     <g id="line2d_17">
      <path d="M 46.31125 306.18 
L 336.85645 306.18 
" clip-path="url(#p03fe439811)" style="fill: none; stroke: #ffffff; stroke-linecap: round"/>
     </g>
     <g id="text_18">
      <!-- 0 -->
      <g style="fill: #262626" transform="translate(29.8125 310.359141) scale(0.11 -0.11)">
       <use xlink:href="#DejaVuSans-30"/>
      </g>
     </g>
    </g>
    <g id="ytick_2">
     <g id="line2d_18">
      <path d="M 46.31125 247.110023 
L 336.85645 247.110023 
" clip-path="url(#p03fe439811)" style="fill: none; stroke: #ffffff; stroke-linecap: round"/>
     </g>
     <g id="text_19">
      <!-- 5 -->
      <g style="fill: #262626" transform="translate(29.8125 251.289164) scale(0.11 -0.11)">
       <defs>
        <path id="DejaVuSans-35" d="M 691 4666 
L 3169 4666 
L 3169 4134 
L 1269 4134 
L 1269 2991 
Q 1406 3038 1543 3061 
Q 1681 3084 1819 3084 
Q 2600 3084 3056 2656 
Q 3513 2228 3513 1497 
Q 3513 744 3044 326 
Q 2575 -91 1722 -91 
Q 1428 -91 1123 -41 
Q 819 9 494 109 
L 494 744 
Q 775 591 1075 516 
Q 1375 441 1709 441 
Q 2250 441 2565 725 
Q 2881 1009 2881 1497 
Q 2881 1984 2565 2268 
Q 2250 2553 1709 2553 
Q 1456 2553 1204 2497 
Q 953 2441 691 2322 
L 691 4666 
z
" transform="scale(0.015625)"/>
       </defs>
       <use xlink:href="#DejaVuSans-35"/>
      </g>
     </g>
    </g>
    <g id="ytick_3">
     <g id="line2d_19">
      <path d="M 46.31125 188.040046 
L 336.85645 188.040046 
" clip-path="url(#p03fe439811)" style="fill: none; stroke: #ffffff; stroke-linecap: round"/>
     </g>
     <g id="text_20">
      <!-- 10 -->
      <g style="fill: #262626" transform="translate(22.81375 192.219187) scale(0.11 -0.11)">
       <use xlink:href="#DejaVuSans-31"/>
       <use xlink:href="#DejaVuSans-30" x="63.623047"/>
      </g>
     </g>
    </g>
    <g id="ytick_4">
     <g id="line2d_20">
      <path d="M 46.31125 128.97007 
L 336.85645 128.97007 
" clip-path="url(#p03fe439811)" style="fill: none; stroke: #ffffff; stroke-linecap: round"/>
     </g>
     <g id="text_21">
      <!-- 15 -->
      <g style="fill: #262626" transform="translate(22.81375 133.14921) scale(0.11 -0.11)">
       <use xlink:href="#DejaVuSans-31"/>
       <use xlink:href="#DejaVuSans-35" x="63.623047"/>
      </g>
     </g>
    </g>
    <g id="ytick_5">
     <g id="line2d_21">
      <path d="M 46.31125 69.900093 
L 336.85645 69.900093 
" clip-path="url(#p03fe439811)" style="fill: none; stroke: #ffffff; stroke-linecap: round"/>
     </g>
     <g id="text_22">
      <!-- 20 -->
      <g style="fill: #262626" transform="translate(22.81375 74.079233) scale(0.11 -0.11)">
       <use xlink:href="#DejaVuSans-32"/>
       <use xlink:href="#DejaVuSans-30" x="63.623047"/>
      </g>
     </g>
    </g>
    <g id="text_23">
     <!-- Access time [ns] -->
     <g style="fill: #262626" transform="translate(16.318125 206.209687) rotate(-90) scale(0.12 -0.12)">
      <defs>
       <path id="DejaVuSans-41" d="M 2188 4044 
L 1331 1722 
L 3047 1722 
L 2188 4044 
z
M 1831 4666 
L 2547 4666 
L 4325 0 
L 3669 0 
L 3244 1197 
L 1141 1197 
L 716 0 
L 50 0 
L 1831 4666 
z
" transform="scale(0.015625)"/>
       <path id="DejaVuSans-63" d="M 3122 3366 
L 3122 2828 
Q 2878 2963 2633 3030 
Q 2388 3097 2138 3097 
Q 1578 3097 1268 2742 
Q 959 2388 959 1747 
Q 959 1106 1268 751 
Q 1578 397 2138 397 
Q 2388 397 2633 464 
Q 2878 531 3122 666 
L 3122 134 
Q 2881 22 2623 -34 
Q 2366 -91 2075 -91 
Q 1284 -91 818 406 
Q 353 903 353 1747 
Q 353 2603 823 3093 
Q 1294 3584 2113 3584 
Q 2378 3584 2631 3529 
Q 2884 3475 3122 3366 
z
" transform="scale(0.015625)"/>
       <path id="DejaVuSans-73" d="M 2834 3397 
L 2834 2853 
Q 2591 2978 2328 3040 
Q 2066 3103 1784 3103 
Q 1356 3103 1142 2972 
Q 928 2841 928 2578 
Q 928 2378 1081 2264 
Q 1234 2150 1697 2047 
L 1894 2003 
Q 2506 1872 2764 1633 
Q 3022 1394 3022 966 
Q 3022 478 2636 193 
Q 2250 -91 1575 -91 
Q 1294 -91 989 -36 
Q 684 19 347 128 
L 347 722 
Q 666 556 975 473 
Q 1284 391 1588 391 
Q 1994 391 2212 530 
Q 2431 669 2431 922 
Q 2431 1156 2273 1281 
Q 2116 1406 1581 1522 
L 1381 1569 
Q 847 1681 609 1914 
Q 372 2147 372 2553 
Q 372 3047 722 3315 
Q 1072 3584 1716 3584 
Q 2034 3584 2315 3537 
Q 2597 3491 2834 3397 
z
" transform="scale(0.015625)"/>
       <path id="DejaVuSans-74" d="M 1172 4494 
L 1172 3500 
L 2356 3500 
L 2356 3053 
L 1172 3053 
L 1172 1153 
Q 1172 725 1289 603 
Q 1406 481 1766 481 
L 2356 481 
L 2356 0 
L 1766 0 
Q 1100 0 847 248 
Q 594 497 594 1153 
L 594 3053 
L 172 3053 
L 172 3500 
L 594 3500 
L 594 4494 
L 1172 4494 
z
" transform="scale(0.015625)"/>
       <path id="DejaVuSans-6d" d="M 3328 2828 
Q 3544 3216 3844 3400 
Q 4144 3584 4550 3584 
Q 5097 3584 5394 3201 
Q 5691 2819 5691 2113 
L 5691 0 
L 5113 0 
L 5113 2094 
Q 5113 2597 4934 2840 
Q 4756 3084 4391 3084 
Q 3944 3084 3684 2787 
Q 3425 2491 3425 1978 
L 3425 0 
L 2847 0 
L 2847 2094 
Q 2847 2600 2669 2842 
Q 2491 3084 2119 3084 
Q 1678 3084 1418 2786 
Q 1159 2488 1159 1978 
L 1159 0 
L 581 0 
L 581 3500 
L 1159 3500 
L 1159 2956 
Q 1356 3278 1631 3431 
Q 1906 3584 2284 3584 
Q 2666 3584 2933 3390 
Q 3200 3197 3328 2828 
z
" transform="scale(0.015625)"/>
       <path id="DejaVuSans-5b" d="M 550 4863 
L 1875 4863 
L 1875 4416 
L 1125 4416 
L 1125 -397 
L 1875 -397 
L 1875 -844 
L 550 -844 
L 550 4863 
z
" transform="scale(0.015625)"/>
       <path id="DejaVuSans-5d" d="M 1947 4863 
L 1947 -844 
L 622 -844 
L 622 -397 
L 1369 -397 
L 1369 4416 
L 622 4416 
L 622 4863 
L 1947 4863 
z
" transform="scale(0.015625)"/>
      </defs>
      <use xlink:href="#DejaVuSans-41"/>
      <use xlink:href="#DejaVuSans-63" x="66.658203"/>
      <use xlink:href="#DejaVuSans-63" x="121.638672"/>
      <use xlink:href="#DejaVuSans-65" x="176.619141"/>
      <use xlink:href="#DejaVuSans-73" x="238.142578"/>
      <use xlink:href="#DejaVuSans-73" x="290.242188"/>
      <use xlink:href="#DejaVuSans-20" x="342.341797"/>
      <use xlink:href="#DejaVuSans-74" x="374.128906"/>
      <use xlink:href="#DejaVuSans-69" x="413.337891"/>
      <use xlink:href="#DejaVuSans-6d" x="441.121094"/>
      <use xlink:href="#DejaVuSans-65" x="538.533203"/>
      <use xlink:href="#DejaVuSans-20" x="600.056641"/>
      <use xlink:href="#DejaVuSans-5b" x="631.84375"/>
      <use xlink:href="#DejaVuSans-6e" x="670.857422"/>
      <use xlink:href="#DejaVuSans-73" x="734.236328"/>
      <use xlink:href="#DejaVuSans-5d" x="786.335938"/>
     </g>
    </g>
   </g>
   <g id="PolyCollection_1">
    <defs>
     <path id="md66ec81117" d="M 59.51785 -223.507727 
L 59.51785 -222.852074 
L 68.038237 -175.311273 
L 85.079011 -174.576259 
L 102.119785 -134.962266 
L 119.16056 -175.051733 
L 136.201334 -141.389241 
L 153.242108 -180.148043 
L 170.282882 -180.593546 
L 187.323656 -181.288562 
L 204.364431 -140.94254 
L 221.405205 -180.423633 
L 238.445979 -141.293296 
L 255.486753 -180.317329 
L 272.527527 -141.203448 
L 289.568302 -141.301045 
L 306.609076 -141.125508 
L 323.64985 -180.424715 
L 323.64985 -180.597693 
L 323.64985 -180.597693 
L 306.609076 -141.333837 
L 289.568302 -141.430101 
L 272.527527 -141.312749 
L 255.486753 -180.507759 
L 238.445979 -141.387978 
L 221.405205 -180.907208 
L 204.364431 -141.114222 
L 187.323656 -182.060861 
L 170.282882 -180.759745 
L 153.242108 -180.476529 
L 136.201334 -141.65588 
L 119.16056 -175.275203 
L 102.119785 -135.348358 
L 85.079011 -174.93197 
L 68.038237 -176.325701 
L 59.51785 -223.507727 
z
" style="stroke: #4c72b0; stroke-opacity: 0.2"/>
    </defs>
    <g clip-path="url(#p03fe439811)">
     <use xlink:href="#md66ec81117" x="0" y="349.139687" style="fill: #4c72b0; fill-opacity: 0.2; stroke: #4c72b0; stroke-opacity: 0.2"/>
    </g>
   </g>
   <g id="PolyCollection_2">
    <defs>
     <path id="mfdb7181638" d="M 59.51785 -87.76423 
L 59.51785 -87.472411 
L 68.038237 -87.756078 
L 85.079011 -87.575056 
L 102.119785 -87.652701 
L 119.16056 -87.701304 
L 136.201334 -87.772832 
L 153.242108 -87.778157 
L 170.282882 -87.723708 
L 187.323656 -87.705209 
L 204.364431 -87.83285 
L 221.405205 -87.740273 
L 238.445979 -87.715473 
L 255.486753 -87.708241 
L 272.527527 -87.699252 
L 289.568302 -88.823543 
L 306.609076 -87.685987 
L 323.64985 -87.681951 
L 323.64985 -87.755598 
L 323.64985 -87.755598 
L 306.609076 -87.73467 
L 289.568302 -94.412747 
L 272.527527 -87.755317 
L 255.486753 -87.770725 
L 238.445979 -87.772477 
L 221.405205 -87.8073 
L 204.364431 -87.955375 
L 187.323656 -87.77025 
L 170.282882 -87.839878 
L 153.242108 -87.919755 
L 136.201334 -88.093138 
L 119.16056 -87.758133 
L 102.119785 -87.721295 
L 85.079011 -87.614706 
L 68.038237 -87.809008 
L 59.51785 -87.76423 
z
" style="stroke: #dd8452; stroke-opacity: 0.2"/>
    </defs>
    <g clip-path="url(#p03fe439811)">
     <use xlink:href="#mfdb7181638" x="0" y="349.139687" style="fill: #dd8452; fill-opacity: 0.2; stroke: #dd8452; stroke-opacity: 0.2"/>
    </g>
   </g>
   <g id="PolyCollection_3">
    <defs>
     <path id="m8944e6d4ad" d="M 59.51785 -186.473514 
L 59.51785 -185.584032 
L 68.038237 -129.398376 
L 85.079011 -129.70198 
L 102.119785 -99.357841 
L 119.16056 -129.834898 
L 136.201334 -102.104568 
L 153.242108 -129.35306 
L 170.282882 -129.586765 
L 187.323656 -129.395256 
L 204.364431 -100.404985 
L 221.405205 -129.794241 
L 238.445979 -99.320996 
L 255.486753 -129.408131 
L 272.527527 -99.427042 
L 289.568302 -109.445744 
L 306.609076 -99.389717 
L 323.64985 -129.716004 
L 323.64985 -129.925722 
L 323.64985 -129.925722 
L 306.609076 -99.46256 
L 289.568302 -112.414268 
L 272.527527 -99.518533 
L 255.486753 -129.554487 
L 238.445979 -99.384846 
L 221.405205 -129.954557 
L 204.364431 -102.30544 
L 187.323656 -129.605027 
L 170.282882 -129.785837 
L 153.242108 -129.570849 
L 136.201334 -104.881913 
L 119.16056 -130.029527 
L 102.119785 -99.434471 
L 85.079011 -129.818968 
L 68.038237 -129.587496 
L 59.51785 -186.473514 
z
" style="stroke: #55a868; stroke-opacity: 0.2"/>
    </defs>
    <g clip-path="url(#p03fe439811)">
     <use xlink:href="#m8944e6d4ad" x="0" y="349.139687" style="fill: #55a868; fill-opacity: 0.2; stroke: #55a868; stroke-opacity: 0.2"/>
    </g>
   </g>
   <g id="PolyCollection_4">
    <defs>
     <path id="m5461ffc392" d="M 59.51785 -65.430982 
L 59.51785 -65.044147 
L 68.038237 -64.991458 
L 85.079011 -64.943159 
L 102.119785 -64.953861 
L 119.16056 -64.976683 
L 136.201334 -65.030796 
L 153.242108 -64.984636 
L 170.282882 -64.967234 
L 187.323656 -64.963605 
L 204.364431 -65.021041 
L 221.405205 -65.028197 
L 238.445979 -64.942575 
L 255.486753 -64.997751 
L 272.527527 -64.983985 
L 289.568302 -64.980572 
L 306.609076 -65.03005 
L 323.64985 -66.691717 
L 323.64985 -67.783535 
L 323.64985 -67.783535 
L 306.609076 -65.361774 
L 289.568302 -65.36146 
L 272.527527 -65.335493 
L 255.486753 -65.390773 
L 238.445979 -65.250808 
L 221.405205 -65.354673 
L 204.364431 -65.382421 
L 187.323656 -65.290169 
L 170.282882 -65.283541 
L 153.242108 -65.345756 
L 136.201334 -65.411747 
L 119.16056 -65.295717 
L 102.119785 -65.269565 
L 85.079011 -65.250158 
L 68.038237 -65.323704 
L 59.51785 -65.430982 
z
" style="stroke: #c44e52; stroke-opacity: 0.2"/>
    </defs>
    <g clip-path="url(#p03fe439811)">
     <use xlink:href="#m5461ffc392" x="0" y="349.139687" style="fill: #c44e52; fill-opacity: 0.2; stroke: #c44e52; stroke-opacity: 0.2"/>
    </g>
   </g>
   <g id="PolyCollection_5">
    <defs>
     <path id="m6e00ab219d" d="M 59.51785 -69.337313 
L 59.51785 -69.254023 
L 68.038237 -73.622497 
L 85.079011 -81.548856 
L 102.119785 -94.898143 
L 119.16056 -106.232241 
L 136.201334 -124.054721 
L 153.242108 -135.385568 
L 170.282882 -157.219453 
L 187.323656 -171.970294 
L 204.364431 -195.906786 
L 221.405205 -210.70273 
L 238.445979 -234.431714 
L 255.486753 -249.048987 
L 272.527527 -272.716948 
L 289.568302 -288.13434 
L 306.609076 -311.544198 
L 323.64985 -328.550673 
L 323.64985 -328.749349 
L 323.64985 -328.749349 
L 306.609076 -311.880193 
L 289.568302 -288.480286 
L 272.527527 -272.998425 
L 255.486753 -249.233349 
L 238.445979 -234.72161 
L 221.405205 -211.000502 
L 204.364431 -196.052984 
L 187.323656 -172.178049 
L 170.282882 -157.387447 
L 153.242108 -136.066292 
L 136.201334 -124.203604 
L 119.16056 -106.333391 
L 102.119785 -94.988971 
L 85.079011 -81.677375 
L 68.038237 -73.659865 
L 59.51785 -69.337313 
z
" style="stroke: #8172b3; stroke-opacity: 0.2"/>
    </defs>
    <g clip-path="url(#p03fe439811)">
     <use xlink:href="#m6e00ab219d" x="0" y="349.139687" style="fill: #8172b3; fill-opacity: 0.2; stroke: #8172b3; stroke-opacity: 0.2"/>
    </g>
   </g>
   <g id="PolyCollection_6">
    <defs>
     <path id="mc170a8b41d" d="M 59.51785 -191.490201 
L 59.51785 -190.553354 
L 68.038237 -142.12625 
L 85.079011 -142.017145 
L 102.119785 -104.307433 
L 119.16056 -143.664134 
L 136.201334 -104.303393 
L 153.242108 -143.305189 
L 170.282882 -142.211585 
L 187.323656 -142.462522 
L 204.364431 -104.209888 
L 221.405205 -142.761185 
L 238.445979 -105.023466 
L 255.486753 -142.631043 
L 272.527527 -104.181633 
L 289.568302 -104.205482 
L 306.609076 -104.475709 
L 323.64985 -142.493441 
L 323.64985 -143.365306 
L 323.64985 -143.365306 
L 306.609076 -105.578746 
L 289.568302 -104.277283 
L 272.527527 -104.287418 
L 255.486753 -143.194527 
L 238.445979 -106.698371 
L 221.405205 -143.572368 
L 204.364431 -104.395303 
L 187.323656 -143.134993 
L 170.282882 -142.962929 
L 153.242108 -144.351145 
L 136.201334 -104.490976 
L 119.16056 -144.601379 
L 102.119785 -104.377727 
L 85.079011 -142.62117 
L 68.038237 -142.950159 
L 59.51785 -191.490201 
z
" style="stroke: #937860; stroke-opacity: 0.2"/>
    </defs>
    <g clip-path="url(#p03fe439811)">
     <use xlink:href="#mc170a8b41d" x="0" y="349.139687" style="fill: #937860; fill-opacity: 0.2; stroke: #937860; stroke-opacity: 0.2"/>
    </g>
   </g>
   <g id="line2d_22">
    <path d="M 59.51785 125.968767 
L 68.038237 173.342519 
L 85.079011 174.379912 
L 102.119785 213.984869 
L 119.16056 173.978774 
L 136.201334 207.646656 
L 153.242108 168.844454 
L 170.282882 168.470856 
L 187.323656 167.485211 
L 204.364431 208.114181 
L 221.405205 168.517559 
L 238.445979 207.798232 
L 255.486753 168.736507 
L 272.527527 207.881141 
L 289.568302 207.779536 
L 306.609076 207.905384 
L 323.64985 168.628677 
" clip-path="url(#p03fe439811)" style="fill: none; stroke: #4c72b0; stroke-width: 1.5; stroke-linecap: round"/>
    <defs>
     <path id="made260c40a" d="M 0 3 
C 0.795609 3 1.55874 2.683901 2.12132 2.12132 
C 2.683901 1.55874 3 0.795609 3 0 
C 3 -0.795609 2.683901 -1.55874 2.12132 -2.12132 
C 1.55874 -2.683901 0.795609 -3 0 -3 
C -0.795609 -3 -1.55874 -2.683901 -2.12132 -2.12132 
C -2.683901 -1.55874 -3 -0.795609 -3 0 
C -3 0.795609 -2.683901 1.55874 -2.12132 2.12132 
C -1.55874 2.683901 -0.795609 3 0 3 
z
" style="stroke: #ffffff; stroke-width: 0.75"/>
    </defs>
    <g clip-path="url(#p03fe439811)">
     <use xlink:href="#made260c40a" x="59.51785" y="125.968767" style="fill: #4c72b0; stroke: #ffffff; stroke-width: 0.75"/>
     <use xlink:href="#made260c40a" x="68.038237" y="173.342519" style="fill: #4c72b0; stroke: #ffffff; stroke-width: 0.75"/>
     <use xlink:href="#made260c40a" x="85.079011" y="174.379912" style="fill: #4c72b0; stroke: #ffffff; stroke-width: 0.75"/>
     <use xlink:href="#made260c40a" x="102.119785" y="213.984869" style="fill: #4c72b0; stroke: #ffffff; stroke-width: 0.75"/>
     <use xlink:href="#made260c40a" x="119.16056" y="173.978774" style="fill: #4c72b0; stroke: #ffffff; stroke-width: 0.75"/>
     <use xlink:href="#made260c40a" x="136.201334" y="207.646656" style="fill: #4c72b0; stroke: #ffffff; stroke-width: 0.75"/>
     <use xlink:href="#made260c40a" x="153.242108" y="168.844454" style="fill: #4c72b0; stroke: #ffffff; stroke-width: 0.75"/>
     <use xlink:href="#made260c40a" x="170.282882" y="168.470856" style="fill: #4c72b0; stroke: #ffffff; stroke-width: 0.75"/>
     <use xlink:href="#made260c40a" x="187.323656" y="167.485211" style="fill: #4c72b0; stroke: #ffffff; stroke-width: 0.75"/>
     <use xlink:href="#made260c40a" x="204.364431" y="208.114181" style="fill: #4c72b0; stroke: #ffffff; stroke-width: 0.75"/>
     <use xlink:href="#made260c40a" x="221.405205" y="168.517559" style="fill: #4c72b0; stroke: #ffffff; stroke-width: 0.75"/>
     <use xlink:href="#made260c40a" x="238.445979" y="207.798232" style="fill: #4c72b0; stroke: #ffffff; stroke-width: 0.75"/>
     <use xlink:href="#made260c40a" x="255.486753" y="168.736507" style="fill: #4c72b0; stroke: #ffffff; stroke-width: 0.75"/>
     <use xlink:href="#made260c40a" x="272.527527" y="207.881141" style="fill: #4c72b0; stroke: #ffffff; stroke-width: 0.75"/>
     <use xlink:href="#made260c40a" x="289.568302" y="207.779536" style="fill: #4c72b0; stroke: #ffffff; stroke-width: 0.75"/>
     <use xlink:href="#made260c40a" x="306.609076" y="207.905384" style="fill: #4c72b0; stroke: #ffffff; stroke-width: 0.75"/>
     <use xlink:href="#made260c40a" x="323.64985" y="168.628677" style="fill: #4c72b0; stroke: #ffffff; stroke-width: 0.75"/>
    </g>
   </g>
   <g id="line2d_23">
    <path d="M 59.51785 261.540287 
L 68.038237 261.357833 
L 85.079011 261.545091 
L 102.119785 261.453753 
L 119.16056 261.409946 
L 136.201334 261.230037 
L 153.242108 261.297307 
L 170.282882 261.368175 
L 187.323656 261.401174 
L 204.364431 261.257764 
L 221.405205 261.36955 
L 238.445979 261.396135 
L 255.486753 261.402313 
L 272.527527 261.412174 
L 289.568302 257.835576 
L 306.609076 261.429177 
L 323.64985 261.423509 
" clip-path="url(#p03fe439811)" style="fill: none; stroke: #dd8452; stroke-width: 1.5; stroke-linecap: round"/>
    <defs>
     <path id="m61a8ca3238" d="M -1.5 3 
L 0 1.5 
L 1.5 3 
L 3 1.5 
L 1.5 0 
L 3 -1.5 
L 1.5 -3 
L 0 -1.5 
L -1.5 -3 
L -3 -1.5 
L -1.5 0 
L -3 1.5 
z
" style="stroke: #ffffff; stroke-width: 0.75; stroke-linejoin: miter"/>
    </defs>
    <g clip-path="url(#p03fe439811)">
     <use xlink:href="#m61a8ca3238" x="59.51785" y="261.540287" style="fill: #dd8452; stroke: #ffffff; stroke-width: 0.75; stroke-linejoin: miter"/>
     <use xlink:href="#m61a8ca3238" x="68.038237" y="261.357833" style="fill: #dd8452; stroke: #ffffff; stroke-width: 0.75; stroke-linejoin: miter"/>
     <use xlink:href="#m61a8ca3238" x="85.079011" y="261.545091" style="fill: #dd8452; stroke: #ffffff; stroke-width: 0.75; stroke-linejoin: miter"/>
     <use xlink:href="#m61a8ca3238" x="102.119785" y="261.453753" style="fill: #dd8452; stroke: #ffffff; stroke-width: 0.75; stroke-linejoin: miter"/>
     <use xlink:href="#m61a8ca3238" x="119.16056" y="261.409946" style="fill: #dd8452; stroke: #ffffff; stroke-width: 0.75; stroke-linejoin: miter"/>
     <use xlink:href="#m61a8ca3238" x="136.201334" y="261.230037" style="fill: #dd8452; stroke: #ffffff; stroke-width: 0.75; stroke-linejoin: miter"/>
     <use xlink:href="#m61a8ca3238" x="153.242108" y="261.297307" style="fill: #dd8452; stroke: #ffffff; stroke-width: 0.75; stroke-linejoin: miter"/>
     <use xlink:href="#m61a8ca3238" x="170.282882" y="261.368175" style="fill: #dd8452; stroke: #ffffff; stroke-width: 0.75; stroke-linejoin: miter"/>
     <use xlink:href="#m61a8ca3238" x="187.323656" y="261.401174" style="fill: #dd8452; stroke: #ffffff; stroke-width: 0.75; stroke-linejoin: miter"/>
     <use xlink:href="#m61a8ca3238" x="204.364431" y="261.257764" style="fill: #dd8452; stroke: #ffffff; stroke-width: 0.75; stroke-linejoin: miter"/>
     <use xlink:href="#m61a8ca3238" x="221.405205" y="261.36955" style="fill: #dd8452; stroke: #ffffff; stroke-width: 0.75; stroke-linejoin: miter"/>
     <use xlink:href="#m61a8ca3238" x="238.445979" y="261.396135" style="fill: #dd8452; stroke: #ffffff; stroke-width: 0.75; stroke-linejoin: miter"/>
     <use xlink:href="#m61a8ca3238" x="255.486753" y="261.402313" style="fill: #dd8452; stroke: #ffffff; stroke-width: 0.75; stroke-linejoin: miter"/>
     <use xlink:href="#m61a8ca3238" x="272.527527" y="261.412174" style="fill: #dd8452; stroke: #ffffff; stroke-width: 0.75; stroke-linejoin: miter"/>
     <use xlink:href="#m61a8ca3238" x="289.568302" y="257.835576" style="fill: #dd8452; stroke: #ffffff; stroke-width: 0.75; stroke-linejoin: miter"/>
     <use xlink:href="#m61a8ca3238" x="306.609076" y="261.429177" style="fill: #dd8452; stroke: #ffffff; stroke-width: 0.75; stroke-linejoin: miter"/>
     <use xlink:href="#m61a8ca3238" x="323.64985" y="261.423509" style="fill: #dd8452; stroke: #ffffff; stroke-width: 0.75; stroke-linejoin: miter"/>
    </g>
   </g>
   <g id="line2d_24">
    <path d="M 59.51785 163.214036 
L 68.038237 219.64641 
L 85.079011 219.376588 
L 102.119785 249.744703 
L 119.16056 219.208515 
L 136.201334 245.717184 
L 153.242108 219.69266 
L 170.282882 219.455232 
L 187.323656 219.638042 
L 204.364431 247.797204 
L 221.405205 219.269077 
L 238.445979 249.786526 
L 255.486753 219.661318 
L 272.527527 249.666824 
L 289.568302 238.195283 
L 306.609076 249.713864 
L 323.64985 219.315381 
" clip-path="url(#p03fe439811)" style="fill: none; stroke: #55a868; stroke-width: 1.5; stroke-linecap: round"/>
    <defs>
     <path id="mbddc177c11" d="M -2.12132 -2.12132 
L -2.12132 2.12132 
L 2.12132 2.12132 
L 2.12132 -2.12132 
z
" style="stroke: #ffffff; stroke-width: 0.75; stroke-linejoin: miter"/>
    </defs>
    <g clip-path="url(#p03fe439811)">
     <use xlink:href="#mbddc177c11" x="59.51785" y="163.214036" style="fill: #55a868; stroke: #ffffff; stroke-width: 0.75; stroke-linejoin: miter"/>
     <use xlink:href="#mbddc177c11" x="68.038237" y="219.64641" style="fill: #55a868; stroke: #ffffff; stroke-width: 0.75; stroke-linejoin: miter"/>
     <use xlink:href="#mbddc177c11" x="85.079011" y="219.376588" style="fill: #55a868; stroke: #ffffff; stroke-width: 0.75; stroke-linejoin: miter"/>
     <use xlink:href="#mbddc177c11" x="102.119785" y="249.744703" style="fill: #55a868; stroke: #ffffff; stroke-width: 0.75; stroke-linejoin: miter"/>
     <use xlink:href="#mbddc177c11" x="119.16056" y="219.208515" style="fill: #55a868; stroke: #ffffff; stroke-width: 0.75; stroke-linejoin: miter"/>
     <use xlink:href="#mbddc177c11" x="136.201334" y="245.717184" style="fill: #55a868; stroke: #ffffff; stroke-width: 0.75; stroke-linejoin: miter"/>
     <use xlink:href="#mbddc177c11" x="153.242108" y="219.69266" style="fill: #55a868; stroke: #ffffff; stroke-width: 0.75; stroke-linejoin: miter"/>
     <use xlink:href="#mbddc177c11" x="170.282882" y="219.455232" style="fill: #55a868; stroke: #ffffff; stroke-width: 0.75; stroke-linejoin: miter"/>
     <use xlink:href="#mbddc177c11" x="187.323656" y="219.638042" style="fill: #55a868; stroke: #ffffff; stroke-width: 0.75; stroke-linejoin: miter"/>
     <use xlink:href="#mbddc177c11" x="204.364431" y="247.797204" style="fill: #55a868; stroke: #ffffff; stroke-width: 0.75; stroke-linejoin: miter"/>
     <use xlink:href="#mbddc177c11" x="221.405205" y="219.269077" style="fill: #55a868; stroke: #ffffff; stroke-width: 0.75; stroke-linejoin: miter"/>
     <use xlink:href="#mbddc177c11" x="238.445979" y="249.786526" style="fill: #55a868; stroke: #ffffff; stroke-width: 0.75; stroke-linejoin: miter"/>
     <use xlink:href="#mbddc177c11" x="255.486753" y="219.661318" style="fill: #55a868; stroke: #ffffff; stroke-width: 0.75; stroke-linejoin: miter"/>
     <use xlink:href="#mbddc177c11" x="272.527527" y="249.666824" style="fill: #55a868; stroke: #ffffff; stroke-width: 0.75; stroke-linejoin: miter"/>
     <use xlink:href="#mbddc177c11" x="289.568302" y="238.195283" style="fill: #55a868; stroke: #ffffff; stroke-width: 0.75; stroke-linejoin: miter"/>
     <use xlink:href="#mbddc177c11" x="306.609076" y="249.713864" style="fill: #55a868; stroke: #ffffff; stroke-width: 0.75; stroke-linejoin: miter"/>
     <use xlink:href="#mbddc177c11" x="323.64985" y="219.315381" style="fill: #55a868; stroke: #ffffff; stroke-width: 0.75; stroke-linejoin: miter"/>
    </g>
   </g>
   <g id="line2d_25">
    <path d="M 59.51785 283.926396 
L 68.038237 284.006226 
L 85.079011 284.06058 
L 102.119785 284.050329 
L 119.16056 284.022113 
L 136.201334 283.948929 
L 153.242108 283.986484 
L 170.282882 284.028218 
L 187.323656 284.033767 
L 204.364431 283.953579 
L 221.405205 283.971325 
L 238.445979 284.063381 
L 255.486753 283.965953 
L 272.527527 283.992786 
L 289.568302 283.984377 
L 306.609076 283.96272 
L 323.64985 281.99812 
" clip-path="url(#p03fe439811)" style="fill: none; stroke: #c44e52; stroke-width: 1.5; stroke-linecap: round"/>
    <defs>
     <path id="m91750c8c83" d="M -1 3 
L 1 3 
L 1 1 
L 3 1 
L 3 -1 
L 1 -1 
L 1 -3 
L -1 -3 
L -1 -1 
L -3 -1 
L -3 1 
L -1 1 
z
" style="stroke: #ffffff; stroke-width: 0.75; stroke-linejoin: miter"/>
    </defs>
    <g clip-path="url(#p03fe439811)">
     <use xlink:href="#m91750c8c83" x="59.51785" y="283.926396" style="fill: #c44e52; stroke: #ffffff; stroke-width: 0.75; stroke-linejoin: miter"/>
     <use xlink:href="#m91750c8c83" x="68.038237" y="284.006226" style="fill: #c44e52; stroke: #ffffff; stroke-width: 0.75; stroke-linejoin: miter"/>
     <use xlink:href="#m91750c8c83" x="85.079011" y="284.06058" style="fill: #c44e52; stroke: #ffffff; stroke-width: 0.75; stroke-linejoin: miter"/>
     <use xlink:href="#m91750c8c83" x="102.119785" y="284.050329" style="fill: #c44e52; stroke: #ffffff; stroke-width: 0.75; stroke-linejoin: miter"/>
     <use xlink:href="#m91750c8c83" x="119.16056" y="284.022113" style="fill: #c44e52; stroke: #ffffff; stroke-width: 0.75; stroke-linejoin: miter"/>
     <use xlink:href="#m91750c8c83" x="136.201334" y="283.948929" style="fill: #c44e52; stroke: #ffffff; stroke-width: 0.75; stroke-linejoin: miter"/>
     <use xlink:href="#m91750c8c83" x="153.242108" y="283.986484" style="fill: #c44e52; stroke: #ffffff; stroke-width: 0.75; stroke-linejoin: miter"/>
     <use xlink:href="#m91750c8c83" x="170.282882" y="284.028218" style="fill: #c44e52; stroke: #ffffff; stroke-width: 0.75; stroke-linejoin: miter"/>
     <use xlink:href="#m91750c8c83" x="187.323656" y="284.033767" style="fill: #c44e52; stroke: #ffffff; stroke-width: 0.75; stroke-linejoin: miter"/>
     <use xlink:href="#m91750c8c83" x="204.364431" y="283.953579" style="fill: #c44e52; stroke: #ffffff; stroke-width: 0.75; stroke-linejoin: miter"/>
     <use xlink:href="#m91750c8c83" x="221.405205" y="283.971325" style="fill: #c44e52; stroke: #ffffff; stroke-width: 0.75; stroke-linejoin: miter"/>
     <use xlink:href="#m91750c8c83" x="238.445979" y="284.063381" style="fill: #c44e52; stroke: #ffffff; stroke-width: 0.75; stroke-linejoin: miter"/>
     <use xlink:href="#m91750c8c83" x="255.486753" y="283.965953" style="fill: #c44e52; stroke: #ffffff; stroke-width: 0.75; stroke-linejoin: miter"/>
     <use xlink:href="#m91750c8c83" x="272.527527" y="283.992786" style="fill: #c44e52; stroke: #ffffff; stroke-width: 0.75; stroke-linejoin: miter"/>
     <use xlink:href="#m91750c8c83" x="289.568302" y="283.984377" style="fill: #c44e52; stroke: #ffffff; stroke-width: 0.75; stroke-linejoin: miter"/>
     <use xlink:href="#m91750c8c83" x="306.609076" y="283.96272" style="fill: #c44e52; stroke: #ffffff; stroke-width: 0.75; stroke-linejoin: miter"/>
     <use xlink:href="#m91750c8c83" x="323.64985" y="281.99812" style="fill: #c44e52; stroke: #ffffff; stroke-width: 0.75; stroke-linejoin: miter"/>
    </g>
   </g>
   <g id="line2d_26">
    <path d="M 59.51785 279.850017 
L 68.038237 275.502171 
L 85.079011 267.541388 
L 102.119785 254.200065 
L 119.16056 242.855757 
L 136.201334 225.017599 
L 153.242108 213.511858 
L 170.282882 191.837151 
L 187.323656 177.065734 
L 204.364431 153.163102 
L 221.405205 138.313457 
L 238.445979 114.579717 
L 255.486753 99.998686 
L 272.527527 76.292583 
L 289.568302 60.828247 
L 306.609076 37.44614 
L 323.64985 20.489558 
" clip-path="url(#p03fe439811)" style="fill: none; stroke: #8172b3; stroke-width: 1.5; stroke-linecap: round"/>
    <defs>
     <path id="mb07b2b9a80" d="M 0 -3 
L -3 -0 
L -0 3 
L 3 0 
z
" style="stroke: #ffffff; stroke-width: 0.75; stroke-linejoin: miter"/>
    </defs>
    <g clip-path="url(#p03fe439811)">
     <use xlink:href="#mb07b2b9a80" x="59.51785" y="279.850017" style="fill: #8172b3; stroke: #ffffff; stroke-width: 0.75; stroke-linejoin: miter"/>
     <use xlink:href="#mb07b2b9a80" x="68.038237" y="275.502171" style="fill: #8172b3; stroke: #ffffff; stroke-width: 0.75; stroke-linejoin: miter"/>
     <use xlink:href="#mb07b2b9a80" x="85.079011" y="267.541388" style="fill: #8172b3; stroke: #ffffff; stroke-width: 0.75; stroke-linejoin: miter"/>
     <use xlink:href="#mb07b2b9a80" x="102.119785" y="254.200065" style="fill: #8172b3; stroke: #ffffff; stroke-width: 0.75; stroke-linejoin: miter"/>
     <use xlink:href="#mb07b2b9a80" x="119.16056" y="242.855757" style="fill: #8172b3; stroke: #ffffff; stroke-width: 0.75; stroke-linejoin: miter"/>
     <use xlink:href="#mb07b2b9a80" x="136.201334" y="225.017599" style="fill: #8172b3; stroke: #ffffff; stroke-width: 0.75; stroke-linejoin: miter"/>
     <use xlink:href="#mb07b2b9a80" x="153.242108" y="213.511858" style="fill: #8172b3; stroke: #ffffff; stroke-width: 0.75; stroke-linejoin: miter"/>
     <use xlink:href="#mb07b2b9a80" x="170.282882" y="191.837151" style="fill: #8172b3; stroke: #ffffff; stroke-width: 0.75; stroke-linejoin: miter"/>
     <use xlink:href="#mb07b2b9a80" x="187.323656" y="177.065734" style="fill: #8172b3; stroke: #ffffff; stroke-width: 0.75; stroke-linejoin: miter"/>
     <use xlink:href="#mb07b2b9a80" x="204.364431" y="153.163102" style="fill: #8172b3; stroke: #ffffff; stroke-width: 0.75; stroke-linejoin: miter"/>
     <use xlink:href="#mb07b2b9a80" x="221.405205" y="138.313457" style="fill: #8172b3; stroke: #ffffff; stroke-width: 0.75; stroke-linejoin: miter"/>
     <use xlink:href="#mb07b2b9a80" x="238.445979" y="114.579717" style="fill: #8172b3; stroke: #ffffff; stroke-width: 0.75; stroke-linejoin: miter"/>
     <use xlink:href="#mb07b2b9a80" x="255.486753" y="99.998686" style="fill: #8172b3; stroke: #ffffff; stroke-width: 0.75; stroke-linejoin: miter"/>
     <use xlink:href="#mb07b2b9a80" x="272.527527" y="76.292583" style="fill: #8172b3; stroke: #ffffff; stroke-width: 0.75; stroke-linejoin: miter"/>
     <use xlink:href="#mb07b2b9a80" x="289.568302" y="60.828247" style="fill: #8172b3; stroke: #ffffff; stroke-width: 0.75; stroke-linejoin: miter"/>
     <use xlink:href="#mb07b2b9a80" x="306.609076" y="37.44614" style="fill: #8172b3; stroke: #ffffff; stroke-width: 0.75; stroke-linejoin: miter"/>
     <use xlink:href="#mb07b2b9a80" x="323.64985" y="20.489558" style="fill: #8172b3; stroke: #ffffff; stroke-width: 0.75; stroke-linejoin: miter"/>
    </g>
   </g>
   <g id="line2d_27">
    <path d="M 59.51785 158.152397 
L 68.038237 206.660915 
L 85.079011 206.841233 
L 102.119785 244.801094 
L 119.16056 205.006013 
L 136.201334 244.758113 
L 153.242108 205.311427 
L 170.282882 206.574778 
L 187.323656 206.366968 
L 204.364431 244.851029 
L 221.405205 205.987215 
L 238.445979 243.307943 
L 255.486753 206.21551 
L 272.527527 244.909472 
L 289.568302 244.897432 
L 306.609076 244.162482 
L 323.64985 206.262238 
" clip-path="url(#p03fe439811)" style="fill: none; stroke: #937860; stroke-width: 1.5; stroke-linecap: round"/>
    <defs>
     <path id="m96f6067798" d="M 0 -3 
L -1.06066 -1.06066 
L -3 -0 
L -1.06066 1.06066 
L -0 3 
L 1.06066 1.06066 
L 3 0 
L 1.06066 -1.06066 
z
" style="stroke: #ffffff; stroke-width: 0.75; stroke-linejoin: bevel"/>
    </defs>
    <g clip-path="url(#p03fe439811)">
     <use xlink:href="#m96f6067798" x="59.51785" y="158.152397" style="fill: #937860; stroke: #ffffff; stroke-width: 0.75; stroke-linejoin: bevel"/>
     <use xlink:href="#m96f6067798" x="68.038237" y="206.660915" style="fill: #937860; stroke: #ffffff; stroke-width: 0.75; stroke-linejoin: bevel"/>
     <use xlink:href="#m96f6067798" x="85.079011" y="206.841233" style="fill: #937860; stroke: #ffffff; stroke-width: 0.75; stroke-linejoin: bevel"/>
     <use xlink:href="#m96f6067798" x="102.119785" y="244.801094" style="fill: #937860; stroke: #ffffff; stroke-width: 0.75; stroke-linejoin: bevel"/>
     <use xlink:href="#m96f6067798" x="119.16056" y="205.006013" style="fill: #937860; stroke: #ffffff; stroke-width: 0.75; stroke-linejoin: bevel"/>
     <use xlink:href="#m96f6067798" x="136.201334" y="244.758113" style="fill: #937860; stroke: #ffffff; stroke-width: 0.75; stroke-linejoin: bevel"/>
     <use xlink:href="#m96f6067798" x="153.242108" y="205.311427" style="fill: #937860; stroke: #ffffff; stroke-width: 0.75; stroke-linejoin: bevel"/>
     <use xlink:href="#m96f6067798" x="170.282882" y="206.574778" style="fill: #937860; stroke: #ffffff; stroke-width: 0.75; stroke-linejoin: bevel"/>
     <use xlink:href="#m96f6067798" x="187.323656" y="206.366968" style="fill: #937860; stroke: #ffffff; stroke-width: 0.75; stroke-linejoin: bevel"/>
     <use xlink:href="#m96f6067798" x="204.364431" y="244.851029" style="fill: #937860; stroke: #ffffff; stroke-width: 0.75; stroke-linejoin: bevel"/>
     <use xlink:href="#m96f6067798" x="221.405205" y="205.987215" style="fill: #937860; stroke: #ffffff; stroke-width: 0.75; stroke-linejoin: bevel"/>
     <use xlink:href="#m96f6067798" x="238.445979" y="243.307943" style="fill: #937860; stroke: #ffffff; stroke-width: 0.75; stroke-linejoin: bevel"/>
     <use xlink:href="#m96f6067798" x="255.486753" y="206.21551" style="fill: #937860; stroke: #ffffff; stroke-width: 0.75; stroke-linejoin: bevel"/>
     <use xlink:href="#m96f6067798" x="272.527527" y="244.909472" style="fill: #937860; stroke: #ffffff; stroke-width: 0.75; stroke-linejoin: bevel"/>
     <use xlink:href="#m96f6067798" x="289.568302" y="244.897432" style="fill: #937860; stroke: #ffffff; stroke-width: 0.75; stroke-linejoin: bevel"/>
     <use xlink:href="#m96f6067798" x="306.609076" y="244.162482" style="fill: #937860; stroke: #ffffff; stroke-width: 0.75; stroke-linejoin: bevel"/>
     <use xlink:href="#m96f6067798" x="323.64985" y="206.262238" style="fill: #937860; stroke: #ffffff; stroke-width: 0.75; stroke-linejoin: bevel"/>
    </g>
   </g>
   <g id="line2d_28"/>
   <g id="line2d_29"/>
   <g id="line2d_30"/>
   <g id="line2d_31"/>
   <g id="line2d_32"/>
   <g id="line2d_33"/>
   <g id="patch_3">
    <path d="M 46.31125 306.18 
L 46.31125 7.2 
" style="fill: none; stroke: #ffffff; stroke-width: 1.25; stroke-linejoin: miter; stroke-linecap: square"/>
   </g>
   <g id="patch_4">
    <path d="M 46.31125 306.18 
L 336.85645 306.18 
" style="fill: none; stroke: #ffffff; stroke-width: 1.25; stroke-linejoin: miter; stroke-linecap: square"/>
   </g>
  </g>
  <g id="legend_1">
   <g id="line2d_34">
    <path d="M 356.495312 133.390312 
L 367.495312 133.390312 
L 378.495312 133.390312 
" style="fill: none; stroke: #4c72b0; stroke-width: 1.5; stroke-linecap: round"/>
    <defs>
     <path id="md36b126124" d="M 0 3 
C 0.795609 3 1.55874 2.683901 2.12132 2.12132 
C 2.683901 1.55874 3 0.795609 3 0 
C 3 -0.795609 2.683901 -1.55874 2.12132 -2.12132 
C 1.55874 -2.683901 0.795609 -3 0 -3 
C -0.795609 -3 -1.55874 -2.683901 -2.12132 -2.12132 
C -2.683901 -1.55874 -3 -0.795609 -3 0 
C -3 0.795609 -2.683901 1.55874 -2.12132 2.12132 
C -1.55874 2.683901 -0.795609 3 0 3 
z
" style="stroke: #4c72b0"/>
    </defs>
    <g>
     <use xlink:href="#md36b126124" x="367.495312" y="133.390312" style="fill: #4c72b0; stroke: #4c72b0"/>
    </g>
   </g>
   <g id="text_24">
    <!-- record4s % -->
    <g style="fill: #262626" transform="translate(387.295312 137.240312) scale(0.11 -0.11)">
     <defs>
      <path id="DejaVuSans-72" d="M 2631 2963 
Q 2534 3019 2420 3045 
Q 2306 3072 2169 3072 
Q 1681 3072 1420 2755 
Q 1159 2438 1159 1844 
L 1159 0 
L 581 0 
L 581 3500 
L 1159 3500 
L 1159 2956 
Q 1341 3275 1631 3429 
Q 1922 3584 2338 3584 
Q 2397 3584 2469 3576 
Q 2541 3569 2628 3553 
L 2631 2963 
z
" transform="scale(0.015625)"/>
      <path id="DejaVuSans-6f" d="M 1959 3097 
Q 1497 3097 1228 2736 
Q 959 2375 959 1747 
Q 959 1119 1226 758 
Q 1494 397 1959 397 
Q 2419 397 2687 759 
Q 2956 1122 2956 1747 
Q 2956 2369 2687 2733 
Q 2419 3097 1959 3097 
z
M 1959 3584 
Q 2709 3584 3137 3096 
Q 3566 2609 3566 1747 
Q 3566 888 3137 398 
Q 2709 -91 1959 -91 
Q 1206 -91 779 398 
Q 353 888 353 1747 
Q 353 2609 779 3096 
Q 1206 3584 1959 3584 
z
" transform="scale(0.015625)"/>
      <path id="DejaVuSans-25" d="M 4653 2053 
Q 4381 2053 4226 1822 
Q 4072 1591 4072 1178 
Q 4072 772 4226 539 
Q 4381 306 4653 306 
Q 4919 306 5073 539 
Q 5228 772 5228 1178 
Q 5228 1588 5073 1820 
Q 4919 2053 4653 2053 
z
M 4653 2450 
Q 5147 2450 5437 2106 
Q 5728 1763 5728 1178 
Q 5728 594 5436 251 
Q 5144 -91 4653 -91 
Q 4153 -91 3862 251 
Q 3572 594 3572 1178 
Q 3572 1766 3864 2108 
Q 4156 2450 4653 2450 
z
M 1428 4353 
Q 1159 4353 1004 4120 
Q 850 3888 850 3481 
Q 850 3069 1003 2837 
Q 1156 2606 1428 2606 
Q 1700 2606 1854 2837 
Q 2009 3069 2009 3481 
Q 2009 3884 1853 4118 
Q 1697 4353 1428 4353 
z
M 4250 4750 
L 4750 4750 
L 1831 -91 
L 1331 -91 
L 4250 4750 
z
M 1428 4750 
Q 1922 4750 2215 4408 
Q 2509 4066 2509 3481 
Q 2509 2891 2217 2550 
Q 1925 2209 1428 2209 
Q 931 2209 642 2551 
Q 353 2894 353 3481 
Q 353 4063 643 4406 
Q 934 4750 1428 4750 
z
" transform="scale(0.015625)"/>
     </defs>
     <use xlink:href="#DejaVuSans-72"/>
     <use xlink:href="#DejaVuSans-65" x="38.863281"/>
     <use xlink:href="#DejaVuSans-63" x="100.386719"/>
     <use xlink:href="#DejaVuSans-6f" x="155.367188"/>
     <use xlink:href="#DejaVuSans-72" x="216.548828"/>
     <use xlink:href="#DejaVuSans-64" x="255.912109"/>
     <use xlink:href="#DejaVuSans-34" x="319.388672"/>
     <use xlink:href="#DejaVuSans-73" x="383.011719"/>
     <use xlink:href="#DejaVuSans-20" x="435.111328"/>
     <use xlink:href="#DejaVuSans-25" x="466.898438"/>
    </g>
   </g>
   <g id="line2d_35">
    <path d="M 356.495312 149.53625 
L 367.495312 149.53625 
L 378.495312 149.53625 
" style="fill: none; stroke: #dd8452; stroke-width: 1.5; stroke-linecap: round"/>
    <defs>
     <path id="m8d2525ab1c" d="M -1.5 3 
L 0 1.5 
L 1.5 3 
L 3 1.5 
L 1.5 0 
L 3 -1.5 
L 1.5 -3 
L 0 -1.5 
L -1.5 -3 
L -3 -1.5 
L -1.5 0 
L -3 1.5 
z
" style="stroke: #dd8452; stroke-linejoin: miter"/>
    </defs>
    <g>
     <use xlink:href="#m8d2525ab1c" x="367.495312" y="149.53625" style="fill: #dd8452; stroke: #dd8452; stroke-linejoin: miter"/>
    </g>
   </g>
   <g id="text_25">
    <!-- record4s ArrayRecord -->
    <g style="fill: #262626" transform="translate(387.295312 153.38625) scale(0.11 -0.11)">
     <defs>
      <path id="DejaVuSans-61" d="M 2194 1759 
Q 1497 1759 1228 1600 
Q 959 1441 959 1056 
Q 959 750 1161 570 
Q 1363 391 1709 391 
Q 2188 391 2477 730 
Q 2766 1069 2766 1631 
L 2766 1759 
L 2194 1759 
z
M 3341 1997 
L 3341 0 
L 2766 0 
L 2766 531 
Q 2569 213 2275 61 
Q 1981 -91 1556 -91 
Q 1019 -91 701 211 
Q 384 513 384 1019 
Q 384 1609 779 1909 
Q 1175 2209 1959 2209 
L 2766 2209 
L 2766 2266 
Q 2766 2663 2505 2880 
Q 2244 3097 1772 3097 
Q 1472 3097 1187 3025 
Q 903 2953 641 2809 
L 641 3341 
Q 956 3463 1253 3523 
Q 1550 3584 1831 3584 
Q 2591 3584 2966 3190 
Q 3341 2797 3341 1997 
z
" transform="scale(0.015625)"/>
      <path id="DejaVuSans-79" d="M 2059 -325 
Q 1816 -950 1584 -1140 
Q 1353 -1331 966 -1331 
L 506 -1331 
L 506 -850 
L 844 -850 
Q 1081 -850 1212 -737 
Q 1344 -625 1503 -206 
L 1606 56 
L 191 3500 
L 800 3500 
L 1894 763 
L 2988 3500 
L 3597 3500 
L 2059 -325 
z
" transform="scale(0.015625)"/>
      <path id="DejaVuSans-52" d="M 2841 2188 
Q 3044 2119 3236 1894 
Q 3428 1669 3622 1275 
L 4263 0 
L 3584 0 
L 2988 1197 
Q 2756 1666 2539 1819 
Q 2322 1972 1947 1972 
L 1259 1972 
L 1259 0 
L 628 0 
L 628 4666 
L 2053 4666 
Q 2853 4666 3247 4331 
Q 3641 3997 3641 3322 
Q 3641 2881 3436 2590 
Q 3231 2300 2841 2188 
z
M 1259 4147 
L 1259 2491 
L 2053 2491 
Q 2509 2491 2742 2702 
Q 2975 2913 2975 3322 
Q 2975 3731 2742 3939 
Q 2509 4147 2053 4147 
L 1259 4147 
z
" transform="scale(0.015625)"/>
     </defs>
     <use xlink:href="#DejaVuSans-72"/>
     <use xlink:href="#DejaVuSans-65" x="38.863281"/>
     <use xlink:href="#DejaVuSans-63" x="100.386719"/>
     <use xlink:href="#DejaVuSans-6f" x="155.367188"/>
     <use xlink:href="#DejaVuSans-72" x="216.548828"/>
     <use xlink:href="#DejaVuSans-64" x="255.912109"/>
     <use xlink:href="#DejaVuSans-34" x="319.388672"/>
     <use xlink:href="#DejaVuSans-73" x="383.011719"/>
     <use xlink:href="#DejaVuSans-20" x="435.111328"/>
     <use xlink:href="#DejaVuSans-41" x="466.898438"/>
     <use xlink:href="#DejaVuSans-72" x="535.306641"/>
     <use xlink:href="#DejaVuSans-72" x="574.669922"/>
     <use xlink:href="#DejaVuSans-61" x="615.783203"/>
     <use xlink:href="#DejaVuSans-79" x="677.0625"/>
     <use xlink:href="#DejaVuSans-52" x="736.242188"/>
     <use xlink:href="#DejaVuSans-65" x="801.224609"/>
     <use xlink:href="#DejaVuSans-63" x="862.748047"/>
     <use xlink:href="#DejaVuSans-6f" x="917.728516"/>
     <use xlink:href="#DejaVuSans-72" x="978.910156"/>
     <use xlink:href="#DejaVuSans-64" x="1018.273438"/>
    </g>
   </g>
   <g id="line2d_36">
    <path d="M 356.495312 165.682187 
L 367.495312 165.682187 
L 378.495312 165.682187 
" style="fill: none; stroke: #55a868; stroke-width: 1.5; stroke-linecap: round"/>
    <defs>
     <path id="mf6a56399d7" d="M -2.12132 -2.12132 
L -2.12132 2.12132 
L 2.12132 2.12132 
L 2.12132 -2.12132 
z
" style="stroke: #55a868; stroke-linejoin: miter"/>
    </defs>
    <g>
     <use xlink:href="#mf6a56399d7" x="367.495312" y="165.682187" style="fill: #55a868; stroke: #55a868; stroke-linejoin: miter"/>
    </g>
   </g>
   <g id="text_26">
    <!-- Scala 3 Map -->
    <g style="fill: #262626" transform="translate(387.295312 169.532187) scale(0.11 -0.11)">
     <defs>
      <path id="DejaVuSans-53" d="M 3425 4513 
L 3425 3897 
Q 3066 4069 2747 4153 
Q 2428 4238 2131 4238 
Q 1616 4238 1336 4038 
Q 1056 3838 1056 3469 
Q 1056 3159 1242 3001 
Q 1428 2844 1947 2747 
L 2328 2669 
Q 3034 2534 3370 2195 
Q 3706 1856 3706 1288 
Q 3706 609 3251 259 
Q 2797 -91 1919 -91 
Q 1588 -91 1214 -16 
Q 841 59 441 206 
L 441 856 
Q 825 641 1194 531 
Q 1563 422 1919 422 
Q 2459 422 2753 634 
Q 3047 847 3047 1241 
Q 3047 1584 2836 1778 
Q 2625 1972 2144 2069 
L 1759 2144 
Q 1053 2284 737 2584 
Q 422 2884 422 3419 
Q 422 4038 858 4394 
Q 1294 4750 2059 4750 
Q 2388 4750 2728 4690 
Q 3069 4631 3425 4513 
z
" transform="scale(0.015625)"/>
      <path id="DejaVuSans-4d" d="M 628 4666 
L 1569 4666 
L 2759 1491 
L 3956 4666 
L 4897 4666 
L 4897 0 
L 4281 0 
L 4281 4097 
L 3078 897 
L 2444 897 
L 1241 4097 
L 1241 0 
L 628 0 
L 628 4666 
z
" transform="scale(0.015625)"/>
      <path id="DejaVuSans-70" d="M 1159 525 
L 1159 -1331 
L 581 -1331 
L 581 3500 
L 1159 3500 
L 1159 2969 
Q 1341 3281 1617 3432 
Q 1894 3584 2278 3584 
Q 2916 3584 3314 3078 
Q 3713 2572 3713 1747 
Q 3713 922 3314 415 
Q 2916 -91 2278 -91 
Q 1894 -91 1617 61 
Q 1341 213 1159 525 
z
M 3116 1747 
Q 3116 2381 2855 2742 
Q 2594 3103 2138 3103 
Q 1681 3103 1420 2742 
Q 1159 2381 1159 1747 
Q 1159 1113 1420 752 
Q 1681 391 2138 391 
Q 2594 391 2855 752 
Q 3116 1113 3116 1747 
z
" transform="scale(0.015625)"/>
     </defs>
     <use xlink:href="#DejaVuSans-53"/>
     <use xlink:href="#DejaVuSans-63" x="63.476562"/>
     <use xlink:href="#DejaVuSans-61" x="118.457031"/>
     <use xlink:href="#DejaVuSans-6c" x="179.736328"/>
     <use xlink:href="#DejaVuSans-61" x="207.519531"/>
     <use xlink:href="#DejaVuSans-20" x="268.798828"/>
     <use xlink:href="#DejaVuSans-33" x="300.585938"/>
     <use xlink:href="#DejaVuSans-20" x="364.208984"/>
     <use xlink:href="#DejaVuSans-4d" x="395.996094"/>
     <use xlink:href="#DejaVuSans-61" x="482.275391"/>
     <use xlink:href="#DejaVuSans-70" x="543.554688"/>
    </g>
   </g>
   <g id="line2d_37">
    <path d="M 356.495312 181.828125 
L 367.495312 181.828125 
L 378.495312 181.828125 
" style="fill: none; stroke: #c44e52; stroke-width: 1.5; stroke-linecap: round"/>
    <defs>
     <path id="mfb8df343c1" d="M -1 3 
L 1 3 
L 1 1 
L 3 1 
L 3 -1 
L 1 -1 
L 1 -3 
L -1 -3 
L -1 -1 
L -3 -1 
L -3 1 
L -1 1 
z
" style="stroke: #c44e52; stroke-linejoin: miter"/>
    </defs>
    <g>
     <use xlink:href="#mfb8df343c1" x="367.495312" y="181.828125" style="fill: #c44e52; stroke: #c44e52; stroke-linejoin: miter"/>
    </g>
   </g>
   <g id="text_27">
    <!-- Scala 3 case class -->
    <g style="fill: #262626" transform="translate(387.295312 185.678125) scale(0.11 -0.11)">
     <use xlink:href="#DejaVuSans-53"/>
     <use xlink:href="#DejaVuSans-63" x="63.476562"/>
     <use xlink:href="#DejaVuSans-61" x="118.457031"/>
     <use xlink:href="#DejaVuSans-6c" x="179.736328"/>
     <use xlink:href="#DejaVuSans-61" x="207.519531"/>
     <use xlink:href="#DejaVuSans-20" x="268.798828"/>
     <use xlink:href="#DejaVuSans-33" x="300.585938"/>
     <use xlink:href="#DejaVuSans-20" x="364.208984"/>
     <use xlink:href="#DejaVuSans-63" x="395.996094"/>
     <use xlink:href="#DejaVuSans-61" x="450.976562"/>
     <use xlink:href="#DejaVuSans-73" x="512.255859"/>
     <use xlink:href="#DejaVuSans-65" x="564.355469"/>
     <use xlink:href="#DejaVuSans-20" x="625.878906"/>
     <use xlink:href="#DejaVuSans-63" x="657.666016"/>
     <use xlink:href="#DejaVuSans-6c" x="712.646484"/>
     <use xlink:href="#DejaVuSans-61" x="740.429688"/>
     <use xlink:href="#DejaVuSans-73" x="801.708984"/>
     <use xlink:href="#DejaVuSans-73" x="853.808594"/>
    </g>
   </g>
   <g id="line2d_38">
    <path d="M 356.495312 197.974062 
L 367.495312 197.974062 
L 378.495312 197.974062 
" style="fill: none; stroke: #8172b3; stroke-width: 1.5; stroke-linecap: round"/>
    <defs>
     <path id="m8007b796d5" d="M 0 -3 
L -3 -0 
L -0 3 
L 3 0 
z
" style="stroke: #8172b3; stroke-linejoin: miter"/>
    </defs>
    <g>
     <use xlink:href="#m8007b796d5" x="367.495312" y="197.974062" style="fill: #8172b3; stroke: #8172b3; stroke-linejoin: miter"/>
    </g>
   </g>
   <g id="text_28">
    <!-- shapeless Record -->
    <g style="fill: #262626" transform="translate(387.295312 201.824062) scale(0.11 -0.11)">
     <defs>
      <path id="DejaVuSans-68" d="M 3513 2113 
L 3513 0 
L 2938 0 
L 2938 2094 
Q 2938 2591 2744 2837 
Q 2550 3084 2163 3084 
Q 1697 3084 1428 2787 
Q 1159 2491 1159 1978 
L 1159 0 
L 581 0 
L 581 4863 
L 1159 4863 
L 1159 2956 
Q 1366 3272 1645 3428 
Q 1925 3584 2291 3584 
Q 2894 3584 3203 3211 
Q 3513 2838 3513 2113 
z
" transform="scale(0.015625)"/>
     </defs>
     <use xlink:href="#DejaVuSans-73"/>
     <use xlink:href="#DejaVuSans-68" x="52.099609"/>
     <use xlink:href="#DejaVuSans-61" x="115.478516"/>
     <use xlink:href="#DejaVuSans-70" x="176.757812"/>
     <use xlink:href="#DejaVuSans-65" x="240.234375"/>
     <use xlink:href="#DejaVuSans-6c" x="301.757812"/>
     <use xlink:href="#DejaVuSans-65" x="329.541016"/>
     <use xlink:href="#DejaVuSans-73" x="391.064453"/>
     <use xlink:href="#DejaVuSans-73" x="443.164062"/>
     <use xlink:href="#DejaVuSans-20" x="495.263672"/>
     <use xlink:href="#DejaVuSans-52" x="527.050781"/>
     <use xlink:href="#DejaVuSans-65" x="592.033203"/>
     <use xlink:href="#DejaVuSans-63" x="653.556641"/>
     <use xlink:href="#DejaVuSans-6f" x="708.537109"/>
     <use xlink:href="#DejaVuSans-72" x="769.71875"/>
     <use xlink:href="#DejaVuSans-64" x="809.082031"/>
    </g>
   </g>
   <g id="line2d_39">
    <path d="M 356.495312 214.12 
L 367.495312 214.12 
L 378.495312 214.12 
" style="fill: none; stroke: #937860; stroke-width: 1.5; stroke-linecap: round"/>
    <defs>
     <path id="m52f08efbc6" d="M 0 -3 
L -1.06066 -1.06066 
L -3 -0 
L -1.06066 1.06066 
L -0 3 
L 1.06066 1.06066 
L 3 0 
L 1.06066 -1.06066 
z
" style="stroke: #937860; stroke-linejoin: bevel"/>
    </defs>
    <g>
     <use xlink:href="#m52f08efbc6" x="367.495312" y="214.12" style="fill: #937860; stroke: #937860; stroke-linejoin: bevel"/>
    </g>
   </g>
   <g id="text_29">
    <!-- scala-records Rec -->
    <g style="fill: #262626" transform="translate(387.295312 217.97) scale(0.11 -0.11)">
     <defs>
      <path id="DejaVuSans-2d" d="M 313 2009 
L 1997 2009 
L 1997 1497 
L 313 1497 
L 313 2009 
z
" transform="scale(0.015625)"/>
     </defs>
     <use xlink:href="#DejaVuSans-73"/>
     <use xlink:href="#DejaVuSans-63" x="52.099609"/>
     <use xlink:href="#DejaVuSans-61" x="107.080078"/>
     <use xlink:href="#DejaVuSans-6c" x="168.359375"/>
     <use xlink:href="#DejaVuSans-61" x="196.142578"/>
     <use xlink:href="#DejaVuSans-2d" x="257.421875"/>
     <use xlink:href="#DejaVuSans-72" x="293.505859"/>
     <use xlink:href="#DejaVuSans-65" x="332.369141"/>
     <use xlink:href="#DejaVuSans-63" x="393.892578"/>
     <use xlink:href="#DejaVuSans-6f" x="448.873047"/>
     <use xlink:href="#DejaVuSans-72" x="510.054688"/>
     <use xlink:href="#DejaVuSans-64" x="549.417969"/>
     <use xlink:href="#DejaVuSans-73" x="612.894531"/>
     <use xlink:href="#DejaVuSans-20" x="664.994141"/>
     <use xlink:href="#DejaVuSans-52" x="696.78125"/>
     <use xlink:href="#DejaVuSans-65" x="761.763672"/>
     <use xlink:href="#DejaVuSans-63" x="823.287109"/>
    </g>
   </g>
  </g>
 </g>
 <defs>
  <clipPath id="p03fe439811">
   <rect x="46.31125" y="7.2" width="290.5452" height="298.98"/>
  </clipPath>
 </defs>
</svg>
