<?xml version="1.0" encoding="utf-8" standalone="no"?>
<!DOCTYPE svg PUBLIC "-//W3C//DTD SVG 1.1//EN"
  "http://www.w3.org/Graphics/SVG/1.1/DTD/svg11.dtd">
<svg xmlns:xlink="http://www.w3.org/1999/xlink" width="516.19125pt" height="349.139687pt" viewBox="0 0 516.19125 349.139687" xmlns="http://www.w3.org/2000/svg" version="1.1">
 <metadata>
  <rdf:RDF xmlns:dc="http://purl.org/dc/elements/1.1/" xmlns:cc="http://creativecommons.org/ns#" xmlns:rdf="http://www.w3.org/1999/02/22-rdf-syntax-ns#">
   <cc:Work>
    <dc:type rdf:resource="http://purl.org/dc/dcmitype/StillImage"/>
    <dc:date>2024-01-13T08:49:17.407587</dc:date>
    <dc:format>image/svg+xml</dc:format>
    <dc:creator>
     <cc:Agent>
      <dc:title>Matplotlib v3.7.2, https://matplotlib.org/</dc:title>
     </cc:Agent>
    </dc:creator>
   </cc:Work>
  </rdf:RDF>
 </metadata>
 <defs>
  <style type="text/css">*{stroke-linejoin: round; stroke-linecap: butt}</style>
 </defs>
 <g id="figure_1">
  <g id="patch_1">
   <path d="M 0 349.139687 
L 516.19125 349.139687 
L 516.19125 0 
L 0 0 
z
" style="fill: #ffffff"/>
  </g>
  <g id="axes_1">
   <g id="patch_2">
    <path d="M 46.31125 306.18 
L 336.85645 306.18 
L 336.85645 7.2 
L 46.31125 7.2 
z
" style="fill: #eaeaf2"/>
   </g>
   <g id="matplotlib.axis_1">
    <g id="xtick_1">
     <g id="line2d_1">
      <path d="M 68.038237 306.18 
L 68.038237 7.2 
" clip-path="url(#pa9f8ac96e8)" style="fill: none; stroke: #ffffff; stroke-linecap: round"/>
     </g>
     <g id="text_1">
      <!-- 2 -->
      <g style="fill: #262626" transform="translate(64.538862 324.038281) scale(0.11 -0.11)">
       <defs>
        <path id="DejaVuSans-32" d="M 1228 531 
L 3431 531 
L 3431 0 
L 469 0 
L 469 531 
Q 828 903 1448 1529 
Q 2069 2156 2228 2338 
Q 2531 2678 2651 2914 
Q 2772 3150 2772 3378 
Q 2772 3750 2511 3984 
Q 2250 4219 1831 4219 
Q 1534 4219 1204 4116 
Q 875 4013 500 3803 
L 500 4441 
Q 881 4594 1212 4672 
Q 1544 4750 1819 4750 
Q 2544 4750 2975 4387 
Q 3406 4025 3406 3419 
Q 3406 3131 3298 2873 
Q 3191 2616 2906 2266 
Q 2828 2175 2409 1742 
Q 1991 1309 1228 531 
z
" transform="scale(0.015625)"/>
       </defs>
       <use xlink:href="#DejaVuSans-32"/>
      </g>
     </g>
    </g>
    <g id="xtick_2">
     <g id="line2d_2">
      <path d="M 85.079011 306.18 
L 85.079011 7.2 
" clip-path="url(#pa9f8ac96e8)" style="fill: none; stroke: #ffffff; stroke-linecap: round"/>
     </g>
     <g id="text_2">
      <!-- 4 -->
      <g style="fill: #262626" transform="translate(81.579636 324.038281) scale(0.11 -0.11)">
       <defs>
        <path id="DejaVuSans-34" d="M 2419 4116 
L 825 1625 
L 2419 1625 
L 2419 4116 
z
M 2253 4666 
L 3047 4666 
L 3047 1625 
L 3713 1625 
L 3713 1100 
L 3047 1100 
L 3047 0 
L 2419 0 
L 2419 1100 
L 313 1100 
L 313 1709 
L 2253 4666 
z
" transform="scale(0.015625)"/>
       </defs>
       <use xlink:href="#DejaVuSans-34"/>
      </g>
     </g>
    </g>
    <g id="xtick_3">
     <g id="line2d_3">
      <path d="M 102.119785 306.18 
L 102.119785 7.2 
" clip-path="url(#pa9f8ac96e8)" style="fill: none; stroke: #ffffff; stroke-linecap: round"/>
     </g>
     <g id="text_3">
      <!-- 6 -->
      <g style="fill: #262626" transform="translate(98.62041 324.038281) scale(0.11 -0.11)">
       <defs>
        <path id="DejaVuSans-36" d="M 2113 2584 
Q 1688 2584 1439 2293 
Q 1191 2003 1191 1497 
Q 1191 994 1439 701 
Q 1688 409 2113 409 
Q 2538 409 2786 701 
Q 3034 994 3034 1497 
Q 3034 2003 2786 2293 
Q 2538 2584 2113 2584 
z
M 3366 4563 
L 3366 3988 
Q 3128 4100 2886 4159 
Q 2644 4219 2406 4219 
Q 1781 4219 1451 3797 
Q 1122 3375 1075 2522 
Q 1259 2794 1537 2939 
Q 1816 3084 2150 3084 
Q 2853 3084 3261 2657 
Q 3669 2231 3669 1497 
Q 3669 778 3244 343 
Q 2819 -91 2113 -91 
Q 1303 -91 875 529 
Q 447 1150 447 2328 
Q 447 3434 972 4092 
Q 1497 4750 2381 4750 
Q 2619 4750 2861 4703 
Q 3103 4656 3366 4563 
z
" transform="scale(0.015625)"/>
       </defs>
       <use xlink:href="#DejaVuSans-36"/>
      </g>
     </g>
    </g>
    <g id="xtick_4">
     <g id="line2d_4">
      <path d="M 119.16056 306.18 
L 119.16056 7.2 
" clip-path="url(#pa9f8ac96e8)" style="fill: none; stroke: #ffffff; stroke-linecap: round"/>
     </g>
     <g id="text_4">
      <!-- 8 -->
      <g style="fill: #262626" transform="translate(115.661185 324.038281) scale(0.11 -0.11)">
       <defs>
        <path id="DejaVuSans-38" d="M 2034 2216 
Q 1584 2216 1326 1975 
Q 1069 1734 1069 1313 
Q 1069 891 1326 650 
Q 1584 409 2034 409 
Q 2484 409 2743 651 
Q 3003 894 3003 1313 
Q 3003 1734 2745 1975 
Q 2488 2216 2034 2216 
z
M 1403 2484 
Q 997 2584 770 2862 
Q 544 3141 544 3541 
Q 544 4100 942 4425 
Q 1341 4750 2034 4750 
Q 2731 4750 3128 4425 
Q 3525 4100 3525 3541 
Q 3525 3141 3298 2862 
Q 3072 2584 2669 2484 
Q 3125 2378 3379 2068 
Q 3634 1759 3634 1313 
Q 3634 634 3220 271 
Q 2806 -91 2034 -91 
Q 1263 -91 848 271 
Q 434 634 434 1313 
Q 434 1759 690 2068 
Q 947 2378 1403 2484 
z
M 1172 3481 
Q 1172 3119 1398 2916 
Q 1625 2713 2034 2713 
Q 2441 2713 2670 2916 
Q 2900 3119 2900 3481 
Q 2900 3844 2670 4047 
Q 2441 4250 2034 4250 
Q 1625 4250 1398 4047 
Q 1172 3844 1172 3481 
z
" transform="scale(0.015625)"/>
       </defs>
       <use xlink:href="#DejaVuSans-38"/>
      </g>
     </g>
    </g>
    <g id="xtick_5">
     <g id="line2d_5">
      <path d="M 136.201334 306.18 
L 136.201334 7.2 
" clip-path="url(#pa9f8ac96e8)" style="fill: none; stroke: #ffffff; stroke-linecap: round"/>
     </g>
     <g id="text_5">
      <!-- 10 -->
      <g style="fill: #262626" transform="translate(129.202584 324.038281) scale(0.11 -0.11)">
       <defs>
        <path id="DejaVuSans-31" d="M 794 531 
L 1825 531 
L 1825 4091 
L 703 3866 
L 703 4441 
L 1819 4666 
L 2450 4666 
L 2450 531 
L 3481 531 
L 3481 0 
L 794 0 
L 794 531 
z
" transform="scale(0.015625)"/>
        <path id="DejaVuSans-30" d="M 2034 4250 
Q 1547 4250 1301 3770 
Q 1056 3291 1056 2328 
Q 1056 1369 1301 889 
Q 1547 409 2034 409 
Q 2525 409 2770 889 
Q 3016 1369 3016 2328 
Q 3016 3291 2770 3770 
Q 2525 4250 2034 4250 
z
M 2034 4750 
Q 2819 4750 3233 4129 
Q 3647 3509 3647 2328 
Q 3647 1150 3233 529 
Q 2819 -91 2034 -91 
Q 1250 -91 836 529 
Q 422 1150 422 2328 
Q 422 3509 836 4129 
Q 1250 4750 2034 4750 
z
" transform="scale(0.015625)"/>
       </defs>
       <use xlink:href="#DejaVuSans-31"/>
       <use xlink:href="#DejaVuSans-30" x="63.623047"/>
      </g>
     </g>
    </g>
    <g id="xtick_6">
     <g id="line2d_6">
      <path d="M 153.242108 306.18 
L 153.242108 7.2 
" clip-path="url(#pa9f8ac96e8)" style="fill: none; stroke: #ffffff; stroke-linecap: round"/>
     </g>
     <g id="text_6">
      <!-- 12 -->
      <g style="fill: #262626" transform="translate(146.243358 324.038281) scale(0.11 -0.11)">
       <use xlink:href="#DejaVuSans-31"/>
       <use xlink:href="#DejaVuSans-32" x="63.623047"/>
      </g>
     </g>
    </g>
    <g id="xtick_7">
     <g id="line2d_7">
      <path d="M 170.282882 306.18 
L 170.282882 7.2 
" clip-path="url(#pa9f8ac96e8)" style="fill: none; stroke: #ffffff; stroke-linecap: round"/>
     </g>
     <g id="text_7">
      <!-- 14 -->
      <g style="fill: #262626" transform="translate(163.284132 324.038281) scale(0.11 -0.11)">
       <use xlink:href="#DejaVuSans-31"/>
       <use xlink:href="#DejaVuSans-34" x="63.623047"/>
      </g>
     </g>
    </g>
    <g id="xtick_8">
     <g id="line2d_8">
      <path d="M 187.323656 306.18 
L 187.323656 7.2 
" clip-path="url(#pa9f8ac96e8)" style="fill: none; stroke: #ffffff; stroke-linecap: round"/>
     </g>
     <g id="text_8">
      <!-- 16 -->
      <g style="fill: #262626" transform="translate(180.324906 324.038281) scale(0.11 -0.11)">
       <use xlink:href="#DejaVuSans-31"/>
       <use xlink:href="#DejaVuSans-36" x="63.623047"/>
      </g>
     </g>
    </g>
    <g id="xtick_9">
     <g id="line2d_9">
      <path d="M 204.364431 306.18 
L 204.364431 7.2 
" clip-path="url(#pa9f8ac96e8)" style="fill: none; stroke: #ffffff; stroke-linecap: round"/>
     </g>
     <g id="text_9">
      <!-- 18 -->
      <g style="fill: #262626" transform="translate(197.365681 324.038281) scale(0.11 -0.11)">
       <use xlink:href="#DejaVuSans-31"/>
       <use xlink:href="#DejaVuSans-38" x="63.623047"/>
      </g>
     </g>
    </g>
    <g id="xtick_10">
     <g id="line2d_10">
      <path d="M 221.405205 306.18 
L 221.405205 7.2 
" clip-path="url(#pa9f8ac96e8)" style="fill: none; stroke: #ffffff; stroke-linecap: round"/>
     </g>
     <g id="text_10">
      <!-- 20 -->
      <g style="fill: #262626" transform="translate(214.406455 324.038281) scale(0.11 -0.11)">
       <use xlink:href="#DejaVuSans-32"/>
       <use xlink:href="#DejaVuSans-30" x="63.623047"/>
      </g>
     </g>
    </g>
    <g id="xtick_11">
     <g id="line2d_11">
      <path d="M 238.445979 306.18 
L 238.445979 7.2 
" clip-path="url(#pa9f8ac96e8)" style="fill: none; stroke: #ffffff; stroke-linecap: round"/>
     </g>
     <g id="text_11">
      <!-- 22 -->
      <g style="fill: #262626" transform="translate(231.447229 324.038281) scale(0.11 -0.11)">
       <use xlink:href="#DejaVuSans-32"/>
       <use xlink:href="#DejaVuSans-32" x="63.623047"/>
      </g>
     </g>
    </g>
    <g id="xtick_12">
     <g id="line2d_12">
      <path d="M 255.486753 306.18 
L 255.486753 7.2 
" clip-path="url(#pa9f8ac96e8)" style="fill: none; stroke: #ffffff; stroke-linecap: round"/>
     </g>
     <g id="text_12">
      <!-- 24 -->
      <g style="fill: #262626" transform="translate(248.488003 324.038281) scale(0.11 -0.11)">
       <use xlink:href="#DejaVuSans-32"/>
       <use xlink:href="#DejaVuSans-34" x="63.623047"/>
      </g>
     </g>
    </g>
    <g id="xtick_13">
     <g id="line2d_13">
      <path d="M 272.527527 306.18 
L 272.527527 7.2 
" clip-path="url(#pa9f8ac96e8)" style="fill: none; stroke: #ffffff; stroke-linecap: round"/>
     </g>
     <g id="text_13">
      <!-- 26 -->
      <g style="fill: #262626" transform="translate(265.528777 324.038281) scale(0.11 -0.11)">
       <use xlink:href="#DejaVuSans-32"/>
       <use xlink:href="#DejaVuSans-36" x="63.623047"/>
      </g>
     </g>
    </g>
    <g id="xtick_14">
     <g id="line2d_14">
      <path d="M 289.568302 306.18 
L 289.568302 7.2 
" clip-path="url(#pa9f8ac96e8)" style="fill: none; stroke: #ffffff; stroke-linecap: round"/>
     </g>
     <g id="text_14">
      <!-- 28 -->
      <g style="fill: #262626" transform="translate(282.569552 324.038281) scale(0.11 -0.11)">
       <use xlink:href="#DejaVuSans-32"/>
       <use xlink:href="#DejaVuSans-38" x="63.623047"/>
      </g>
     </g>
    </g>
    <g id="xtick_15">
     <g id="line2d_15">
      <path d="M 306.609076 306.18 
L 306.609076 7.2 
" clip-path="url(#pa9f8ac96e8)" style="fill: none; stroke: #ffffff; stroke-linecap: round"/>
     </g>
     <g id="text_15">
      <!-- 30 -->
      <g style="fill: #262626" transform="translate(299.610326 324.038281) scale(0.11 -0.11)">
       <defs>
        <path id="DejaVuSans-33" d="M 2597 2516 
Q 3050 2419 3304 2112 
Q 3559 1806 3559 1356 
Q 3559 666 3084 287 
Q 2609 -91 1734 -91 
Q 1441 -91 1130 -33 
Q 819 25 488 141 
L 488 750 
Q 750 597 1062 519 
Q 1375 441 1716 441 
Q 2309 441 2620 675 
Q 2931 909 2931 1356 
Q 2931 1769 2642 2001 
Q 2353 2234 1838 2234 
L 1294 2234 
L 1294 2753 
L 1863 2753 
Q 2328 2753 2575 2939 
Q 2822 3125 2822 3475 
Q 2822 3834 2567 4026 
Q 2313 4219 1838 4219 
Q 1578 4219 1281 4162 
Q 984 4106 628 3988 
L 628 4550 
Q 988 4650 1302 4700 
Q 1616 4750 1894 4750 
Q 2613 4750 3031 4423 
Q 3450 4097 3450 3541 
Q 3450 3153 3228 2886 
Q 3006 2619 2597 2516 
z
" transform="scale(0.015625)"/>
       </defs>
       <use xlink:href="#DejaVuSans-33"/>
       <use xlink:href="#DejaVuSans-30" x="63.623047"/>
      </g>
     </g>
    </g>
    <g id="xtick_16">
     <g id="line2d_16">
      <path d="M 323.64985 306.18 
L 323.64985 7.2 
" clip-path="url(#pa9f8ac96e8)" style="fill: none; stroke: #ffffff; stroke-linecap: round"/>
     </g>
     <g id="text_16">
      <!-- 32 -->
      <g style="fill: #262626" transform="translate(316.6511 324.038281) scale(0.11 -0.11)">
       <use xlink:href="#DejaVuSans-33"/>
       <use xlink:href="#DejaVuSans-32" x="63.623047"/>
      </g>
     </g>
    </g>
    <g id="text_17">
     <!-- Record size -->
     <g style="fill: #262626" transform="translate(157.311663 339.444062) scale(0.12 -0.12)">
      <defs>
       <path id="DejaVuSans-52" d="M 2841 2188 
Q 3044 2119 3236 1894 
Q 3428 1669 3622 1275 
L 4263 0 
L 3584 0 
L 2988 1197 
Q 2756 1666 2539 1819 
Q 2322 1972 1947 1972 
L 1259 1972 
L 1259 0 
L 628 0 
L 628 4666 
L 2053 4666 
Q 2853 4666 3247 4331 
Q 3641 3997 3641 3322 
Q 3641 2881 3436 2590 
Q 3231 2300 2841 2188 
z
M 1259 4147 
L 1259 2491 
L 2053 2491 
Q 2509 2491 2742 2702 
Q 2975 2913 2975 3322 
Q 2975 3731 2742 3939 
Q 2509 4147 2053 4147 
L 1259 4147 
z
" transform="scale(0.015625)"/>
       <path id="DejaVuSans-65" d="M 3597 1894 
L 3597 1613 
L 953 1613 
Q 991 1019 1311 708 
Q 1631 397 2203 397 
Q 2534 397 2845 478 
Q 3156 559 3463 722 
L 3463 178 
Q 3153 47 2828 -22 
Q 2503 -91 2169 -91 
Q 1331 -91 842 396 
Q 353 884 353 1716 
Q 353 2575 817 3079 
Q 1281 3584 2069 3584 
Q 2775 3584 3186 3129 
Q 3597 2675 3597 1894 
z
M 3022 2063 
Q 3016 2534 2758 2815 
Q 2500 3097 2075 3097 
Q 1594 3097 1305 2825 
Q 1016 2553 972 2059 
L 3022 2063 
z
" transform="scale(0.015625)"/>
       <path id="DejaVuSans-63" d="M 3122 3366 
L 3122 2828 
Q 2878 2963 2633 3030 
Q 2388 3097 2138 3097 
Q 1578 3097 1268 2742 
Q 959 2388 959 1747 
Q 959 1106 1268 751 
Q 1578 397 2138 397 
Q 2388 397 2633 464 
Q 2878 531 3122 666 
L 3122 134 
Q 2881 22 2623 -34 
Q 2366 -91 2075 -91 
Q 1284 -91 818 406 
Q 353 903 353 1747 
Q 353 2603 823 3093 
Q 1294 3584 2113 3584 
Q 2378 3584 2631 3529 
Q 2884 3475 3122 3366 
z
" transform="scale(0.015625)"/>
       <path id="DejaVuSans-6f" d="M 1959 3097 
Q 1497 3097 1228 2736 
Q 959 2375 959 1747 
Q 959 1119 1226 758 
Q 1494 397 1959 397 
Q 2419 397 2687 759 
Q 2956 1122 2956 1747 
Q 2956 2369 2687 2733 
Q 2419 3097 1959 3097 
z
M 1959 3584 
Q 2709 3584 3137 3096 
Q 3566 2609 3566 1747 
Q 3566 888 3137 398 
Q 2709 -91 1959 -91 
Q 1206 -91 779 398 
Q 353 888 353 1747 
Q 353 2609 779 3096 
Q 1206 3584 1959 3584 
z
" transform="scale(0.015625)"/>
       <path id="DejaVuSans-72" d="M 2631 2963 
Q 2534 3019 2420 3045 
Q 2306 3072 2169 3072 
Q 1681 3072 1420 2755 
Q 1159 2438 1159 1844 
L 1159 0 
L 581 0 
L 581 3500 
L 1159 3500 
L 1159 2956 
Q 1341 3275 1631 3429 
Q 1922 3584 2338 3584 
Q 2397 3584 2469 3576 
Q 2541 3569 2628 3553 
L 2631 2963 
z
" transform="scale(0.015625)"/>
       <path id="DejaVuSans-64" d="M 2906 2969 
L 2906 4863 
L 3481 4863 
L 3481 0 
L 2906 0 
L 2906 525 
Q 2725 213 2448 61 
Q 2172 -91 1784 -91 
Q 1150 -91 751 415 
Q 353 922 353 1747 
Q 353 2572 751 3078 
Q 1150 3584 1784 3584 
Q 2172 3584 2448 3432 
Q 2725 3281 2906 2969 
z
M 947 1747 
Q 947 1113 1208 752 
Q 1469 391 1925 391 
Q 2381 391 2643 752 
Q 2906 1113 2906 1747 
Q 2906 2381 2643 2742 
Q 2381 3103 1925 3103 
Q 1469 3103 1208 2742 
Q 947 2381 947 1747 
z
" transform="scale(0.015625)"/>
       <path id="DejaVuSans-20" transform="scale(0.015625)"/>
       <path id="DejaVuSans-73" d="M 2834 3397 
L 2834 2853 
Q 2591 2978 2328 3040 
Q 2066 3103 1784 3103 
Q 1356 3103 1142 2972 
Q 928 2841 928 2578 
Q 928 2378 1081 2264 
Q 1234 2150 1697 2047 
L 1894 2003 
Q 2506 1872 2764 1633 
Q 3022 1394 3022 966 
Q 3022 478 2636 193 
Q 2250 -91 1575 -91 
Q 1294 -91 989 -36 
Q 684 19 347 128 
L 347 722 
Q 666 556 975 473 
Q 1284 391 1588 391 
Q 1994 391 2212 530 
Q 2431 669 2431 922 
Q 2431 1156 2273 1281 
Q 2116 1406 1581 1522 
L 1381 1569 
Q 847 1681 609 1914 
Q 372 2147 372 2553 
Q 372 3047 722 3315 
Q 1072 3584 1716 3584 
Q 2034 3584 2315 3537 
Q 2597 3491 2834 3397 
z
" transform="scale(0.015625)"/>
       <path id="DejaVuSans-69" d="M 603 3500 
L 1178 3500 
L 1178 0 
L 603 0 
L 603 3500 
z
M 603 4863 
L 1178 4863 
L 1178 4134 
L 603 4134 
L 603 4863 
z
" transform="scale(0.015625)"/>
       <path id="DejaVuSans-7a" d="M 353 3500 
L 3084 3500 
L 3084 2975 
L 922 459 
L 3084 459 
L 3084 0 
L 275 0 
L 275 525 
L 2438 3041 
L 353 3041 
L 353 3500 
z
" transform="scale(0.015625)"/>
      </defs>
      <use xlink:href="#DejaVuSans-52"/>
      <use xlink:href="#DejaVuSans-65" x="64.982422"/>
      <use xlink:href="#DejaVuSans-63" x="126.505859"/>
      <use xlink:href="#DejaVuSans-6f" x="181.486328"/>
      <use xlink:href="#DejaVuSans-72" x="242.667969"/>
      <use xlink:href="#DejaVuSans-64" x="282.03125"/>
      <use xlink:href="#DejaVuSans-20" x="345.507812"/>
      <use xlink:href="#DejaVuSans-73" x="377.294922"/>
      <use xlink:href="#DejaVuSans-69" x="429.394531"/>
      <use xlink:href="#DejaVuSans-7a" x="457.177734"/>
      <use xlink:href="#DejaVuSans-65" x="509.667969"/>
     </g>
    </g>
   </g>
   <g id="matplotlib.axis_2">
    <g id="ytick_1">
     <g id="line2d_17">
      <path d="M 46.31125 306.18 
L 336.85645 306.18 
" clip-path="url(#pa9f8ac96e8)" style="fill: none; stroke: #ffffff; stroke-linecap: round"/>
     </g>
     <g id="text_18">
      <!-- 0 -->
      <g style="fill: #262626" transform="translate(29.8125 310.359141) scale(0.11 -0.11)">
       <use xlink:href="#DejaVuSans-30"/>
      </g>
     </g>
    </g>
    <g id="ytick_2">
     <g id="line2d_18">
      <path d="M 46.31125 184.85253 
L 336.85645 184.85253 
" clip-path="url(#pa9f8ac96e8)" style="fill: none; stroke: #ffffff; stroke-linecap: round"/>
     </g>
     <g id="text_19">
      <!-- 5 -->
      <g style="fill: #262626" transform="translate(29.8125 189.03167) scale(0.11 -0.11)">
       <defs>
        <path id="DejaVuSans-35" d="M 691 4666 
L 3169 4666 
L 3169 4134 
L 1269 4134 
L 1269 2991 
Q 1406 3038 1543 3061 
Q 1681 3084 1819 3084 
Q 2600 3084 3056 2656 
Q 3513 2228 3513 1497 
Q 3513 744 3044 326 
Q 2575 -91 1722 -91 
Q 1428 -91 1123 -41 
Q 819 9 494 109 
L 494 744 
Q 775 591 1075 516 
Q 1375 441 1709 441 
Q 2250 441 2565 725 
Q 2881 1009 2881 1497 
Q 2881 1984 2565 2268 
Q 2250 2553 1709 2553 
Q 1456 2553 1204 2497 
Q 953 2441 691 2322 
L 691 4666 
z
" transform="scale(0.015625)"/>
       </defs>
       <use xlink:href="#DejaVuSans-35"/>
      </g>
     </g>
    </g>
    <g id="ytick_3">
     <g id="line2d_19">
      <path d="M 46.31125 63.52506 
L 336.85645 63.52506 
" clip-path="url(#pa9f8ac96e8)" style="fill: none; stroke: #ffffff; stroke-linecap: round"/>
     </g>
     <g id="text_20">
      <!-- 10 -->
      <g style="fill: #262626" transform="translate(22.81375 67.7042) scale(0.11 -0.11)">
       <use xlink:href="#DejaVuSans-31"/>
       <use xlink:href="#DejaVuSans-30" x="63.623047"/>
      </g>
     </g>
    </g>
    <g id="text_21">
     <!-- Access time [ns] -->
     <g style="fill: #262626" transform="translate(16.318125 206.209687) rotate(-90) scale(0.12 -0.12)">
      <defs>
       <path id="DejaVuSans-41" d="M 2188 4044 
L 1331 1722 
L 3047 1722 
L 2188 4044 
z
M 1831 4666 
L 2547 4666 
L 4325 0 
L 3669 0 
L 3244 1197 
L 1141 1197 
L 716 0 
L 50 0 
L 1831 4666 
z
" transform="scale(0.015625)"/>
       <path id="DejaVuSans-74" d="M 1172 4494 
L 1172 3500 
L 2356 3500 
L 2356 3053 
L 1172 3053 
L 1172 1153 
Q 1172 725 1289 603 
Q 1406 481 1766 481 
L 2356 481 
L 2356 0 
L 1766 0 
Q 1100 0 847 248 
Q 594 497 594 1153 
L 594 3053 
L 172 3053 
L 172 3500 
L 594 3500 
L 594 4494 
L 1172 4494 
z
" transform="scale(0.015625)"/>
       <path id="DejaVuSans-6d" d="M 3328 2828 
Q 3544 3216 3844 3400 
Q 4144 3584 4550 3584 
Q 5097 3584 5394 3201 
Q 5691 2819 5691 2113 
L 5691 0 
L 5113 0 
L 5113 2094 
Q 5113 2597 4934 2840 
Q 4756 3084 4391 3084 
Q 3944 3084 3684 2787 
Q 3425 2491 3425 1978 
L 3425 0 
L 2847 0 
L 2847 2094 
Q 2847 2600 2669 2842 
Q 2491 3084 2119 3084 
Q 1678 3084 1418 2786 
Q 1159 2488 1159 1978 
L 1159 0 
L 581 0 
L 581 3500 
L 1159 3500 
L 1159 2956 
Q 1356 3278 1631 3431 
Q 1906 3584 2284 3584 
Q 2666 3584 2933 3390 
Q 3200 3197 3328 2828 
z
" transform="scale(0.015625)"/>
       <path id="DejaVuSans-5b" d="M 550 4863 
L 1875 4863 
L 1875 4416 
L 1125 4416 
L 1125 -397 
L 1875 -397 
L 1875 -844 
L 550 -844 
L 550 4863 
z
" transform="scale(0.015625)"/>
       <path id="DejaVuSans-6e" d="M 3513 2113 
L 3513 0 
L 2938 0 
L 2938 2094 
Q 2938 2591 2744 2837 
Q 2550 3084 2163 3084 
Q 1697 3084 1428 2787 
Q 1159 2491 1159 1978 
L 1159 0 
L 581 0 
L 581 3500 
L 1159 3500 
L 1159 2956 
Q 1366 3272 1645 3428 
Q 1925 3584 2291 3584 
Q 2894 3584 3203 3211 
Q 3513 2838 3513 2113 
z
" transform="scale(0.015625)"/>
       <path id="DejaVuSans-5d" d="M 1947 4863 
L 1947 -844 
L 622 -844 
L 622 -397 
L 1369 -397 
L 1369 4416 
L 622 4416 
L 622 4863 
L 1947 4863 
z
" transform="scale(0.015625)"/>
      </defs>
      <use xlink:href="#DejaVuSans-41"/>
      <use xlink:href="#DejaVuSans-63" x="66.658203"/>
      <use xlink:href="#DejaVuSans-63" x="121.638672"/>
      <use xlink:href="#DejaVuSans-65" x="176.619141"/>
      <use xlink:href="#DejaVuSans-73" x="238.142578"/>
      <use xlink:href="#DejaVuSans-73" x="290.242188"/>
      <use xlink:href="#DejaVuSans-20" x="342.341797"/>
      <use xlink:href="#DejaVuSans-74" x="374.128906"/>
      <use xlink:href="#DejaVuSans-69" x="413.337891"/>
      <use xlink:href="#DejaVuSans-6d" x="441.121094"/>
      <use xlink:href="#DejaVuSans-65" x="538.533203"/>
      <use xlink:href="#DejaVuSans-20" x="600.056641"/>
      <use xlink:href="#DejaVuSans-5b" x="631.84375"/>
      <use xlink:href="#DejaVuSans-6e" x="670.857422"/>
      <use xlink:href="#DejaVuSans-73" x="734.236328"/>
      <use xlink:href="#DejaVuSans-5d" x="786.335938"/>
     </g>
    </g>
   </g>
   <g id="PolyCollection_1">
    <defs>
     <path id="me053a72a2c" d="M 59.51785 -170.405154 
L 59.51785 -169.917399 
L 68.038237 -231.870677 
L 85.079011 -329.351945 
L 102.119785 -239.222644 
L 119.16056 -231.950303 
L 136.201334 -245.782115 
L 153.242108 -323.885016 
L 170.282882 -243.425642 
L 187.323656 -244.219895 
L 204.364431 -244.504004 
L 221.405205 -244.287628 
L 238.445979 -244.114308 
L 255.486753 -323.885339 
L 272.527527 -244.332262 
L 289.568302 -244.46828 
L 306.609076 -244.728307 
L 323.64985 -325.927347 
L 323.64985 -326.565738 
L 323.64985 -326.565738 
L 306.609076 -245.308923 
L 289.568302 -244.807639 
L 272.527527 -244.502813 
L 255.486753 -324.368157 
L 238.445979 -244.461226 
L 221.405205 -244.627775 
L 204.364431 -244.697703 
L 187.323656 -244.529265 
L 170.282882 -244.025999 
L 153.242108 -324.717618 
L 136.201334 -246.662786 
L 119.16056 -232.375194 
L 102.119785 -245.006144 
L 85.079011 -329.848 
L 68.038237 -232.079285 
L 59.51785 -170.405154 
z
" style="stroke: #4c72b0; stroke-opacity: 0.2"/>
    </defs>
    <g clip-path="url(#pa9f8ac96e8)">
     <use xlink:href="#me053a72a2c" x="0" y="349.139687" style="fill: #4c72b0; fill-opacity: 0.2; stroke: #4c72b0; stroke-opacity: 0.2"/>
    </g>
   </g>
   <g id="PolyCollection_2">
    <defs>
     <path id="m2c8bd43401" d="M 59.51785 -134.304278 
L 59.51785 -134.019713 
L 68.038237 -134.643185 
L 85.079011 -134.538558 
L 102.119785 -134.487655 
L 119.16056 -134.601235 
L 136.201334 -137.193554 
L 153.242108 -134.792205 
L 170.282882 -134.604904 
L 187.323656 -134.586376 
L 204.364431 -134.664186 
L 221.405205 -134.97469 
L 238.445979 -136.922093 
L 255.486753 -134.597467 
L 272.527527 -134.607546 
L 289.568302 -134.556986 
L 306.609076 -134.644932 
L 323.64985 -149.532895 
L 323.64985 -153.872043 
L 323.64985 -153.872043 
L 306.609076 -134.874997 
L 289.568302 -134.642426 
L 272.527527 -134.688463 
L 255.486753 -134.722397 
L 238.445979 -138.744455 
L 221.405205 -135.187423 
L 204.364431 -134.755717 
L 187.323656 -134.793672 
L 170.282882 -134.679837 
L 153.242108 -135.053546 
L 136.201334 -148.530409 
L 119.16056 -134.724653 
L 102.119785 -134.550506 
L 85.079011 -134.651447 
L 68.038237 -134.740512 
L 59.51785 -134.304278 
z
" style="stroke: #dd8452; stroke-opacity: 0.2"/>
    </defs>
    <g clip-path="url(#pa9f8ac96e8)">
     <use xlink:href="#m2c8bd43401" x="0" y="349.139687" style="fill: #dd8452; fill-opacity: 0.2; stroke: #dd8452; stroke-opacity: 0.2"/>
    </g>
   </g>
   <g id="PolyCollection_3">
    <defs>
     <path id="mb8521f39c8" d="M 59.51785 -88.236271 
L 59.51785 -88.115413 
L 68.038237 -88.053747 
L 85.079011 -93.123051 
L 102.119785 -89.460588 
L 119.16056 -88.017839 
L 136.201334 -88.05391 
L 153.242108 -88.12455 
L 170.282882 -88.067414 
L 187.323656 -88.039845 
L 204.364431 -88.014246 
L 221.405205 -88.065844 
L 238.445979 -88.067408 
L 255.486753 -88.05529 
L 272.527527 -88.021932 
L 289.568302 -88.020646 
L 306.609076 -88.069136 
L 323.64985 -88.126115 
L 323.64985 -88.244436 
L 323.64985 -88.244436 
L 306.609076 -88.111906 
L 289.568302 -88.143471 
L 272.527527 -88.070781 
L 255.486753 -88.17539 
L 238.445979 -88.243341 
L 221.405205 -88.144391 
L 204.364431 -88.063785 
L 187.323656 -88.081066 
L 170.282882 -88.129971 
L 153.242108 -88.225516 
L 136.201334 -88.182009 
L 119.16056 -88.061826 
L 102.119785 -90.716253 
L 85.079011 -101.430821 
L 68.038237 -88.108078 
L 59.51785 -88.236271 
z
" style="stroke: #55a868; stroke-opacity: 0.2"/>
    </defs>
    <g clip-path="url(#pa9f8ac96e8)">
     <use xlink:href="#mb8521f39c8" x="0" y="349.139687" style="fill: #55a868; fill-opacity: 0.2; stroke: #55a868; stroke-opacity: 0.2"/>
    </g>
   </g>
   <g id="PolyCollection_4">
    <defs>
     <path id="md6302a98b1" d="M 59.51785 -100.195525 
L 59.51785 -100.012064 
L 68.038237 -141.171095 
L 85.079011 -295.190417 
L 102.119785 -158.551269 
L 119.16056 -158.701935 
L 136.201334 -158.720278 
L 153.242108 -220.016118 
L 170.282882 -158.735217 
L 187.323656 -179.348735 
L 204.364431 -158.619235 
L 221.405205 -158.62439 
L 238.445979 -158.513293 
L 255.486753 -220.447378 
L 272.527527 -158.711352 
L 289.568302 -158.636544 
L 306.609076 -158.593416 
L 323.64985 -220.259549 
L 323.64985 -220.611142 
L 323.64985 -220.611142 
L 306.609076 -158.760014 
L 289.568302 -158.788714 
L 272.527527 -158.868959 
L 255.486753 -221.043561 
L 238.445979 -158.635777 
L 221.405205 -158.827753 
L 204.364431 -158.764315 
L 187.323656 -185.476101 
L 170.282882 -158.946938 
L 153.242108 -220.566613 
L 136.201334 -159.007963 
L 119.16056 -158.885938 
L 102.119785 -158.910245 
L 85.079011 -295.884898 
L 68.038237 -141.269276 
L 59.51785 -100.195525 
z
" style="stroke: #c44e52; stroke-opacity: 0.2"/>
    </defs>
    <g clip-path="url(#pa9f8ac96e8)">
     <use xlink:href="#md6302a98b1" x="0" y="349.139687" style="fill: #c44e52; fill-opacity: 0.2; stroke: #c44e52; stroke-opacity: 0.2"/>
    </g>
   </g>
   <g id="line2d_20">
    <path d="M 59.51785 179.008326 
L 68.038237 117.170875 
L 85.079011 19.564236 
L 102.119785 107.074617 
L 119.16056 116.952334 
L 136.201334 102.950653 
L 153.242108 24.910233 
L 170.282882 105.418136 
L 187.323656 104.759931 
L 204.364431 104.54201 
L 221.405205 104.698053 
L 238.445979 104.850185 
L 255.486753 25.021461 
L 272.527527 104.722756 
L 289.568302 104.519251 
L 306.609076 104.152229 
L 323.64985 22.888473 
" clip-path="url(#pa9f8ac96e8)" style="fill: none; stroke: #4c72b0; stroke-width: 1.5; stroke-linecap: round"/>
    <defs>
     <path id="m8f628bdbcf" d="M 0 3 
C 0.795609 3 1.55874 2.683901 2.12132 2.12132 
C 2.683901 1.55874 3 0.795609 3 0 
C 3 -0.795609 2.683901 -1.55874 2.12132 -2.12132 
C 1.55874 -2.683901 0.795609 -3 0 -3 
C -0.795609 -3 -1.55874 -2.683901 -2.12132 -2.12132 
C -2.683901 -1.55874 -3 -0.795609 -3 0 
C -3 0.795609 -2.683901 1.55874 -2.12132 2.12132 
C -1.55874 2.683901 -0.795609 3 0 3 
z
" style="stroke: #ffffff; stroke-width: 0.75"/>
    </defs>
    <g clip-path="url(#pa9f8ac96e8)">
     <use xlink:href="#m8f628bdbcf" x="59.51785" y="179.008326" style="fill: #4c72b0; stroke: #ffffff; stroke-width: 0.75"/>
     <use xlink:href="#m8f628bdbcf" x="68.038237" y="117.170875" style="fill: #4c72b0; stroke: #ffffff; stroke-width: 0.75"/>
     <use xlink:href="#m8f628bdbcf" x="85.079011" y="19.564236" style="fill: #4c72b0; stroke: #ffffff; stroke-width: 0.75"/>
     <use xlink:href="#m8f628bdbcf" x="102.119785" y="107.074617" style="fill: #4c72b0; stroke: #ffffff; stroke-width: 0.75"/>
     <use xlink:href="#m8f628bdbcf" x="119.16056" y="116.952334" style="fill: #4c72b0; stroke: #ffffff; stroke-width: 0.75"/>
     <use xlink:href="#m8f628bdbcf" x="136.201334" y="102.950653" style="fill: #4c72b0; stroke: #ffffff; stroke-width: 0.75"/>
     <use xlink:href="#m8f628bdbcf" x="153.242108" y="24.910233" style="fill: #4c72b0; stroke: #ffffff; stroke-width: 0.75"/>
     <use xlink:href="#m8f628bdbcf" x="170.282882" y="105.418136" style="fill: #4c72b0; stroke: #ffffff; stroke-width: 0.75"/>
     <use xlink:href="#m8f628bdbcf" x="187.323656" y="104.759931" style="fill: #4c72b0; stroke: #ffffff; stroke-width: 0.75"/>
     <use xlink:href="#m8f628bdbcf" x="204.364431" y="104.54201" style="fill: #4c72b0; stroke: #ffffff; stroke-width: 0.75"/>
     <use xlink:href="#m8f628bdbcf" x="221.405205" y="104.698053" style="fill: #4c72b0; stroke: #ffffff; stroke-width: 0.75"/>
     <use xlink:href="#m8f628bdbcf" x="238.445979" y="104.850185" style="fill: #4c72b0; stroke: #ffffff; stroke-width: 0.75"/>
     <use xlink:href="#m8f628bdbcf" x="255.486753" y="25.021461" style="fill: #4c72b0; stroke: #ffffff; stroke-width: 0.75"/>
     <use xlink:href="#m8f628bdbcf" x="272.527527" y="104.722756" style="fill: #4c72b0; stroke: #ffffff; stroke-width: 0.75"/>
     <use xlink:href="#m8f628bdbcf" x="289.568302" y="104.519251" style="fill: #4c72b0; stroke: #ffffff; stroke-width: 0.75"/>
     <use xlink:href="#m8f628bdbcf" x="306.609076" y="104.152229" style="fill: #4c72b0; stroke: #ffffff; stroke-width: 0.75"/>
     <use xlink:href="#m8f628bdbcf" x="323.64985" y="22.888473" style="fill: #4c72b0; stroke: #ffffff; stroke-width: 0.75"/>
    </g>
   </g>
   <g id="line2d_21">
    <path d="M 59.51785 214.99727 
L 68.038237 214.449164 
L 85.079011 214.543501 
L 102.119785 214.620182 
L 119.16056 214.476708 
L 136.201334 206.844844 
L 153.242108 214.231476 
L 170.282882 214.498199 
L 187.323656 214.465325 
L 204.364431 214.429459 
L 221.405205 214.07326 
L 238.445979 211.254546 
L 255.486753 214.482008 
L 272.527527 214.492108 
L 289.568302 214.541416 
L 306.609076 214.38965 
L 323.64985 197.430954 
" clip-path="url(#pa9f8ac96e8)" style="fill: none; stroke: #dd8452; stroke-width: 1.5; stroke-linecap: round"/>
    <defs>
     <path id="m4e6387af39" d="M -1.5 3 
L 0 1.5 
L 1.5 3 
L 3 1.5 
L 1.5 0 
L 3 -1.5 
L 1.5 -3 
L 0 -1.5 
L -1.5 -3 
L -3 -1.5 
L -1.5 0 
L -3 1.5 
z
" style="stroke: #ffffff; stroke-width: 0.75; stroke-linejoin: miter"/>
    </defs>
    <g clip-path="url(#pa9f8ac96e8)">
     <use xlink:href="#m4e6387af39" x="59.51785" y="214.99727" style="fill: #dd8452; stroke: #ffffff; stroke-width: 0.75; stroke-linejoin: miter"/>
     <use xlink:href="#m4e6387af39" x="68.038237" y="214.449164" style="fill: #dd8452; stroke: #ffffff; stroke-width: 0.75; stroke-linejoin: miter"/>
     <use xlink:href="#m4e6387af39" x="85.079011" y="214.543501" style="fill: #dd8452; stroke: #ffffff; stroke-width: 0.75; stroke-linejoin: miter"/>
     <use xlink:href="#m4e6387af39" x="102.119785" y="214.620182" style="fill: #dd8452; stroke: #ffffff; stroke-width: 0.75; stroke-linejoin: miter"/>
     <use xlink:href="#m4e6387af39" x="119.16056" y="214.476708" style="fill: #dd8452; stroke: #ffffff; stroke-width: 0.75; stroke-linejoin: miter"/>
     <use xlink:href="#m4e6387af39" x="136.201334" y="206.844844" style="fill: #dd8452; stroke: #ffffff; stroke-width: 0.75; stroke-linejoin: miter"/>
     <use xlink:href="#m4e6387af39" x="153.242108" y="214.231476" style="fill: #dd8452; stroke: #ffffff; stroke-width: 0.75; stroke-linejoin: miter"/>
     <use xlink:href="#m4e6387af39" x="170.282882" y="214.498199" style="fill: #dd8452; stroke: #ffffff; stroke-width: 0.75; stroke-linejoin: miter"/>
     <use xlink:href="#m4e6387af39" x="187.323656" y="214.465325" style="fill: #dd8452; stroke: #ffffff; stroke-width: 0.75; stroke-linejoin: miter"/>
     <use xlink:href="#m4e6387af39" x="204.364431" y="214.429459" style="fill: #dd8452; stroke: #ffffff; stroke-width: 0.75; stroke-linejoin: miter"/>
     <use xlink:href="#m4e6387af39" x="221.405205" y="214.07326" style="fill: #dd8452; stroke: #ffffff; stroke-width: 0.75; stroke-linejoin: miter"/>
     <use xlink:href="#m4e6387af39" x="238.445979" y="211.254546" style="fill: #dd8452; stroke: #ffffff; stroke-width: 0.75; stroke-linejoin: miter"/>
     <use xlink:href="#m4e6387af39" x="255.486753" y="214.482008" style="fill: #dd8452; stroke: #ffffff; stroke-width: 0.75; stroke-linejoin: miter"/>
     <use xlink:href="#m4e6387af39" x="272.527527" y="214.492108" style="fill: #dd8452; stroke: #ffffff; stroke-width: 0.75; stroke-linejoin: miter"/>
     <use xlink:href="#m4e6387af39" x="289.568302" y="214.541416" style="fill: #dd8452; stroke: #ffffff; stroke-width: 0.75; stroke-linejoin: miter"/>
     <use xlink:href="#m4e6387af39" x="306.609076" y="214.38965" style="fill: #dd8452; stroke: #ffffff; stroke-width: 0.75; stroke-linejoin: miter"/>
     <use xlink:href="#m4e6387af39" x="323.64985" y="197.430954" style="fill: #dd8452; stroke: #ffffff; stroke-width: 0.75; stroke-linejoin: miter"/>
    </g>
   </g>
   <g id="line2d_22">
    <path d="M 59.51785 260.973426 
L 68.038237 261.0582 
L 85.079011 252.165036 
L 102.119785 259.050546 
L 119.16056 261.100822 
L 136.201334 261.033188 
L 153.242108 260.972521 
L 170.282882 261.042068 
L 187.323656 261.079394 
L 204.364431 261.101454 
L 221.405205 261.03635 
L 238.445979 261.005032 
L 255.486753 261.034641 
L 272.527527 261.096021 
L 289.568302 261.068017 
L 306.609076 261.049237 
L 323.64985 260.960371 
" clip-path="url(#pa9f8ac96e8)" style="fill: none; stroke: #55a868; stroke-width: 1.5; stroke-linecap: round"/>
    <defs>
     <path id="mfcd9935e60" d="M -2.12132 -2.12132 
L -2.12132 2.12132 
L 2.12132 2.12132 
L 2.12132 -2.12132 
z
" style="stroke: #ffffff; stroke-width: 0.75; stroke-linejoin: miter"/>
    </defs>
    <g clip-path="url(#pa9f8ac96e8)">
     <use xlink:href="#mfcd9935e60" x="59.51785" y="260.973426" style="fill: #55a868; stroke: #ffffff; stroke-width: 0.75; stroke-linejoin: miter"/>
     <use xlink:href="#mfcd9935e60" x="68.038237" y="261.0582" style="fill: #55a868; stroke: #ffffff; stroke-width: 0.75; stroke-linejoin: miter"/>
     <use xlink:href="#mfcd9935e60" x="85.079011" y="252.165036" style="fill: #55a868; stroke: #ffffff; stroke-width: 0.75; stroke-linejoin: miter"/>
     <use xlink:href="#mfcd9935e60" x="102.119785" y="259.050546" style="fill: #55a868; stroke: #ffffff; stroke-width: 0.75; stroke-linejoin: miter"/>
     <use xlink:href="#mfcd9935e60" x="119.16056" y="261.100822" style="fill: #55a868; stroke: #ffffff; stroke-width: 0.75; stroke-linejoin: miter"/>
     <use xlink:href="#mfcd9935e60" x="136.201334" y="261.033188" style="fill: #55a868; stroke: #ffffff; stroke-width: 0.75; stroke-linejoin: miter"/>
     <use xlink:href="#mfcd9935e60" x="153.242108" y="260.972521" style="fill: #55a868; stroke: #ffffff; stroke-width: 0.75; stroke-linejoin: miter"/>
     <use xlink:href="#mfcd9935e60" x="170.282882" y="261.042068" style="fill: #55a868; stroke: #ffffff; stroke-width: 0.75; stroke-linejoin: miter"/>
     <use xlink:href="#mfcd9935e60" x="187.323656" y="261.079394" style="fill: #55a868; stroke: #ffffff; stroke-width: 0.75; stroke-linejoin: miter"/>
     <use xlink:href="#mfcd9935e60" x="204.364431" y="261.101454" style="fill: #55a868; stroke: #ffffff; stroke-width: 0.75; stroke-linejoin: miter"/>
     <use xlink:href="#mfcd9935e60" x="221.405205" y="261.03635" style="fill: #55a868; stroke: #ffffff; stroke-width: 0.75; stroke-linejoin: miter"/>
     <use xlink:href="#mfcd9935e60" x="238.445979" y="261.005032" style="fill: #55a868; stroke: #ffffff; stroke-width: 0.75; stroke-linejoin: miter"/>
     <use xlink:href="#mfcd9935e60" x="255.486753" y="261.034641" style="fill: #55a868; stroke: #ffffff; stroke-width: 0.75; stroke-linejoin: miter"/>
     <use xlink:href="#mfcd9935e60" x="272.527527" y="261.096021" style="fill: #55a868; stroke: #ffffff; stroke-width: 0.75; stroke-linejoin: miter"/>
     <use xlink:href="#mfcd9935e60" x="289.568302" y="261.068017" style="fill: #55a868; stroke: #ffffff; stroke-width: 0.75; stroke-linejoin: miter"/>
     <use xlink:href="#mfcd9935e60" x="306.609076" y="261.049237" style="fill: #55a868; stroke: #ffffff; stroke-width: 0.75; stroke-linejoin: miter"/>
     <use xlink:href="#mfcd9935e60" x="323.64985" y="260.960371" style="fill: #55a868; stroke: #ffffff; stroke-width: 0.75; stroke-linejoin: miter"/>
    </g>
   </g>
   <g id="line2d_23">
    <path d="M 59.51785 249.052141 
L 68.038237 207.921757 
L 85.079011 53.621764 
L 102.119785 190.438663 
L 119.16056 190.346298 
L 136.201334 190.299262 
L 153.242108 128.886187 
L 170.282882 190.300312 
L 187.323656 166.730227 
L 204.364431 190.448272 
L 221.405205 190.421091 
L 238.445979 190.566663 
L 255.486753 128.438016 
L 272.527527 190.349862 
L 289.568302 190.427441 
L 306.609076 190.464734 
L 323.64985 128.703907 
" clip-path="url(#pa9f8ac96e8)" style="fill: none; stroke: #c44e52; stroke-width: 1.5; stroke-linecap: round"/>
    <defs>
     <path id="md7a590b28c" d="M -1 3 
L 1 3 
L 1 1 
L 3 1 
L 3 -1 
L 1 -1 
L 1 -3 
L -1 -3 
L -1 -1 
L -3 -1 
L -3 1 
L -1 1 
z
" style="stroke: #ffffff; stroke-width: 0.75; stroke-linejoin: miter"/>
    </defs>
    <g clip-path="url(#pa9f8ac96e8)">
     <use xlink:href="#md7a590b28c" x="59.51785" y="249.052141" style="fill: #c44e52; stroke: #ffffff; stroke-width: 0.75; stroke-linejoin: miter"/>
     <use xlink:href="#md7a590b28c" x="68.038237" y="207.921757" style="fill: #c44e52; stroke: #ffffff; stroke-width: 0.75; stroke-linejoin: miter"/>
     <use xlink:href="#md7a590b28c" x="85.079011" y="53.621764" style="fill: #c44e52; stroke: #ffffff; stroke-width: 0.75; stroke-linejoin: miter"/>
     <use xlink:href="#md7a590b28c" x="102.119785" y="190.438663" style="fill: #c44e52; stroke: #ffffff; stroke-width: 0.75; stroke-linejoin: miter"/>
     <use xlink:href="#md7a590b28c" x="119.16056" y="190.346298" style="fill: #c44e52; stroke: #ffffff; stroke-width: 0.75; stroke-linejoin: miter"/>
     <use xlink:href="#md7a590b28c" x="136.201334" y="190.299262" style="fill: #c44e52; stroke: #ffffff; stroke-width: 0.75; stroke-linejoin: miter"/>
     <use xlink:href="#md7a590b28c" x="153.242108" y="128.886187" style="fill: #c44e52; stroke: #ffffff; stroke-width: 0.75; stroke-linejoin: miter"/>
     <use xlink:href="#md7a590b28c" x="170.282882" y="190.300312" style="fill: #c44e52; stroke: #ffffff; stroke-width: 0.75; stroke-linejoin: miter"/>
     <use xlink:href="#md7a590b28c" x="187.323656" y="166.730227" style="fill: #c44e52; stroke: #ffffff; stroke-width: 0.75; stroke-linejoin: miter"/>
     <use xlink:href="#md7a590b28c" x="204.364431" y="190.448272" style="fill: #c44e52; stroke: #ffffff; stroke-width: 0.75; stroke-linejoin: miter"/>
     <use xlink:href="#md7a590b28c" x="221.405205" y="190.421091" style="fill: #c44e52; stroke: #ffffff; stroke-width: 0.75; stroke-linejoin: miter"/>
     <use xlink:href="#md7a590b28c" x="238.445979" y="190.566663" style="fill: #c44e52; stroke: #ffffff; stroke-width: 0.75; stroke-linejoin: miter"/>
     <use xlink:href="#md7a590b28c" x="255.486753" y="128.438016" style="fill: #c44e52; stroke: #ffffff; stroke-width: 0.75; stroke-linejoin: miter"/>
     <use xlink:href="#md7a590b28c" x="272.527527" y="190.349862" style="fill: #c44e52; stroke: #ffffff; stroke-width: 0.75; stroke-linejoin: miter"/>
     <use xlink:href="#md7a590b28c" x="289.568302" y="190.427441" style="fill: #c44e52; stroke: #ffffff; stroke-width: 0.75; stroke-linejoin: miter"/>
     <use xlink:href="#md7a590b28c" x="306.609076" y="190.464734" style="fill: #c44e52; stroke: #ffffff; stroke-width: 0.75; stroke-linejoin: miter"/>
     <use xlink:href="#md7a590b28c" x="323.64985" y="128.703907" style="fill: #c44e52; stroke: #ffffff; stroke-width: 0.75; stroke-linejoin: miter"/>
    </g>
   </g>
   <g id="line2d_24"/>
   <g id="line2d_25"/>
   <g id="line2d_26"/>
   <g id="line2d_27"/>
   <g id="patch_3">
    <path d="M 46.31125 306.18 
L 46.31125 7.2 
" style="fill: none; stroke: #ffffff; stroke-width: 1.25; stroke-linejoin: miter; stroke-linecap: square"/>
   </g>
   <g id="patch_4">
    <path d="M 46.31125 306.18 
L 336.85645 306.18 
" style="fill: none; stroke: #ffffff; stroke-width: 1.25; stroke-linejoin: miter; stroke-linecap: square"/>
   </g>
  </g>
  <g id="legend_1">
   <g id="line2d_28">
    <path d="M 356.495312 149.53625 
L 367.495312 149.53625 
L 378.495312 149.53625 
" style="fill: none; stroke: #4c72b0; stroke-width: 1.5; stroke-linecap: round"/>
    <defs>
     <path id="me9d9a4489f" d="M 0 3 
C 0.795609 3 1.55874 2.683901 2.12132 2.12132 
C 2.683901 1.55874 3 0.795609 3 0 
C 3 -0.795609 2.683901 -1.55874 2.12132 -2.12132 
C 1.55874 -2.683901 0.795609 -3 0 -3 
C -0.795609 -3 -1.55874 -2.683901 -2.12132 -2.12132 
C -2.683901 -1.55874 -3 -0.795609 -3 0 
C -3 0.795609 -2.683901 1.55874 -2.12132 2.12132 
C -1.55874 2.683901 -0.795609 3 0 3 
z
" style="stroke: #4c72b0"/>
    </defs>
    <g>
     <use xlink:href="#me9d9a4489f" x="367.495312" y="149.53625" style="fill: #4c72b0; stroke: #4c72b0"/>
    </g>
   </g>
   <g id="text_22">
    <!-- record4s % -->
    <g style="fill: #262626" transform="translate(387.295312 153.38625) scale(0.11 -0.11)">
     <defs>
      <path id="DejaVuSans-25" d="M 4653 2053 
Q 4381 2053 4226 1822 
Q 4072 1591 4072 1178 
Q 4072 772 4226 539 
Q 4381 306 4653 306 
Q 4919 306 5073 539 
Q 5228 772 5228 1178 
Q 5228 1588 5073 1820 
Q 4919 2053 4653 2053 
z
M 4653 2450 
Q 5147 2450 5437 2106 
Q 5728 1763 5728 1178 
Q 5728 594 5436 251 
Q 5144 -91 4653 -91 
Q 4153 -91 3862 251 
Q 3572 594 3572 1178 
Q 3572 1766 3864 2108 
Q 4156 2450 4653 2450 
z
M 1428 4353 
Q 1159 4353 1004 4120 
Q 850 3888 850 3481 
Q 850 3069 1003 2837 
Q 1156 2606 1428 2606 
Q 1700 2606 1854 2837 
Q 2009 3069 2009 3481 
Q 2009 3884 1853 4118 
Q 1697 4353 1428 4353 
z
M 4250 4750 
L 4750 4750 
L 1831 -91 
L 1331 -91 
L 4250 4750 
z
M 1428 4750 
Q 1922 4750 2215 4408 
Q 2509 4066 2509 3481 
Q 2509 2891 2217 2550 
Q 1925 2209 1428 2209 
Q 931 2209 642 2551 
Q 353 2894 353 3481 
Q 353 4063 643 4406 
Q 934 4750 1428 4750 
z
" transform="scale(0.015625)"/>
     </defs>
     <use xlink:href="#DejaVuSans-72"/>
     <use xlink:href="#DejaVuSans-65" x="38.863281"/>
     <use xlink:href="#DejaVuSans-63" x="100.386719"/>
     <use xlink:href="#DejaVuSans-6f" x="155.367188"/>
     <use xlink:href="#DejaVuSans-72" x="216.548828"/>
     <use xlink:href="#DejaVuSans-64" x="255.912109"/>
     <use xlink:href="#DejaVuSans-34" x="319.388672"/>
     <use xlink:href="#DejaVuSans-73" x="383.011719"/>
     <use xlink:href="#DejaVuSans-20" x="435.111328"/>
     <use xlink:href="#DejaVuSans-25" x="466.898438"/>
    </g>
   </g>
   <g id="line2d_29">
    <path d="M 356.495312 165.682187 
L 367.495312 165.682187 
L 378.495312 165.682187 
" style="fill: none; stroke: #dd8452; stroke-width: 1.5; stroke-linecap: round"/>
    <defs>
     <path id="mae0eaf828c" d="M -1.5 3 
L 0 1.5 
L 1.5 3 
L 3 1.5 
L 1.5 0 
L 3 -1.5 
L 1.5 -3 
L 0 -1.5 
L -1.5 -3 
L -3 -1.5 
L -1.5 0 
L -3 1.5 
z
" style="stroke: #dd8452; stroke-linejoin: miter"/>
    </defs>
    <g>
     <use xlink:href="#mae0eaf828c" x="367.495312" y="165.682187" style="fill: #dd8452; stroke: #dd8452; stroke-linejoin: miter"/>
    </g>
   </g>
   <g id="text_23">
    <!-- record4s ArrayRecord -->
    <g style="fill: #262626" transform="translate(387.295312 169.532187) scale(0.11 -0.11)">
     <defs>
      <path id="DejaVuSans-61" d="M 2194 1759 
Q 1497 1759 1228 1600 
Q 959 1441 959 1056 
Q 959 750 1161 570 
Q 1363 391 1709 391 
Q 2188 391 2477 730 
Q 2766 1069 2766 1631 
L 2766 1759 
L 2194 1759 
z
M 3341 1997 
L 3341 0 
L 2766 0 
L 2766 531 
Q 2569 213 2275 61 
Q 1981 -91 1556 -91 
Q 1019 -91 701 211 
Q 384 513 384 1019 
Q 384 1609 779 1909 
Q 1175 2209 1959 2209 
L 2766 2209 
L 2766 2266 
Q 2766 2663 2505 2880 
Q 2244 3097 1772 3097 
Q 1472 3097 1187 3025 
Q 903 2953 641 2809 
L 641 3341 
Q 956 3463 1253 3523 
Q 1550 3584 1831 3584 
Q 2591 3584 2966 3190 
Q 3341 2797 3341 1997 
z
" transform="scale(0.015625)"/>
      <path id="DejaVuSans-79" d="M 2059 -325 
Q 1816 -950 1584 -1140 
Q 1353 -1331 966 -1331 
L 506 -1331 
L 506 -850 
L 844 -850 
Q 1081 -850 1212 -737 
Q 1344 -625 1503 -206 
L 1606 56 
L 191 3500 
L 800 3500 
L 1894 763 
L 2988 3500 
L 3597 3500 
L 2059 -325 
z
" transform="scale(0.015625)"/>
     </defs>
     <use xlink:href="#DejaVuSans-72"/>
     <use xlink:href="#DejaVuSans-65" x="38.863281"/>
     <use xlink:href="#DejaVuSans-63" x="100.386719"/>
     <use xlink:href="#DejaVuSans-6f" x="155.367188"/>
     <use xlink:href="#DejaVuSans-72" x="216.548828"/>
     <use xlink:href="#DejaVuSans-64" x="255.912109"/>
     <use xlink:href="#DejaVuSans-34" x="319.388672"/>
     <use xlink:href="#DejaVuSans-73" x="383.011719"/>
     <use xlink:href="#DejaVuSans-20" x="435.111328"/>
     <use xlink:href="#DejaVuSans-41" x="466.898438"/>
     <use xlink:href="#DejaVuSans-72" x="535.306641"/>
     <use xlink:href="#DejaVuSans-72" x="574.669922"/>
     <use xlink:href="#DejaVuSans-61" x="615.783203"/>
     <use xlink:href="#DejaVuSans-79" x="677.0625"/>
     <use xlink:href="#DejaVuSans-52" x="736.242188"/>
     <use xlink:href="#DejaVuSans-65" x="801.224609"/>
     <use xlink:href="#DejaVuSans-63" x="862.748047"/>
     <use xlink:href="#DejaVuSans-6f" x="917.728516"/>
     <use xlink:href="#DejaVuSans-72" x="978.910156"/>
     <use xlink:href="#DejaVuSans-64" x="1018.273438"/>
    </g>
   </g>
   <g id="line2d_30">
    <path d="M 356.495312 181.828125 
L 367.495312 181.828125 
L 378.495312 181.828125 
" style="fill: none; stroke: #55a868; stroke-width: 1.5; stroke-linecap: round"/>
    <defs>
     <path id="m3c36fa3200" d="M -2.12132 -2.12132 
L -2.12132 2.12132 
L 2.12132 2.12132 
L 2.12132 -2.12132 
z
" style="stroke: #55a868; stroke-linejoin: miter"/>
    </defs>
    <g>
     <use xlink:href="#m3c36fa3200" x="367.495312" y="181.828125" style="fill: #55a868; stroke: #55a868; stroke-linejoin: miter"/>
    </g>
   </g>
   <g id="text_24">
    <!-- Scala 3 case class -->
    <g style="fill: #262626" transform="translate(387.295312 185.678125) scale(0.11 -0.11)">
     <defs>
      <path id="DejaVuSans-53" d="M 3425 4513 
L 3425 3897 
Q 3066 4069 2747 4153 
Q 2428 4238 2131 4238 
Q 1616 4238 1336 4038 
Q 1056 3838 1056 3469 
Q 1056 3159 1242 3001 
Q 1428 2844 1947 2747 
L 2328 2669 
Q 3034 2534 3370 2195 
Q 3706 1856 3706 1288 
Q 3706 609 3251 259 
Q 2797 -91 1919 -91 
Q 1588 -91 1214 -16 
Q 841 59 441 206 
L 441 856 
Q 825 641 1194 531 
Q 1563 422 1919 422 
Q 2459 422 2753 634 
Q 3047 847 3047 1241 
Q 3047 1584 2836 1778 
Q 2625 1972 2144 2069 
L 1759 2144 
Q 1053 2284 737 2584 
Q 422 2884 422 3419 
Q 422 4038 858 4394 
Q 1294 4750 2059 4750 
Q 2388 4750 2728 4690 
Q 3069 4631 3425 4513 
z
" transform="scale(0.015625)"/>
      <path id="DejaVuSans-6c" d="M 603 4863 
L 1178 4863 
L 1178 0 
L 603 0 
L 603 4863 
z
" transform="scale(0.015625)"/>
     </defs>
     <use xlink:href="#DejaVuSans-53"/>
     <use xlink:href="#DejaVuSans-63" x="63.476562"/>
     <use xlink:href="#DejaVuSans-61" x="118.457031"/>
     <use xlink:href="#DejaVuSans-6c" x="179.736328"/>
     <use xlink:href="#DejaVuSans-61" x="207.519531"/>
     <use xlink:href="#DejaVuSans-20" x="268.798828"/>
     <use xlink:href="#DejaVuSans-33" x="300.585938"/>
     <use xlink:href="#DejaVuSans-20" x="364.208984"/>
     <use xlink:href="#DejaVuSans-63" x="395.996094"/>
     <use xlink:href="#DejaVuSans-61" x="450.976562"/>
     <use xlink:href="#DejaVuSans-73" x="512.255859"/>
     <use xlink:href="#DejaVuSans-65" x="564.355469"/>
     <use xlink:href="#DejaVuSans-20" x="625.878906"/>
     <use xlink:href="#DejaVuSans-63" x="657.666016"/>
     <use xlink:href="#DejaVuSans-6c" x="712.646484"/>
     <use xlink:href="#DejaVuSans-61" x="740.429688"/>
     <use xlink:href="#DejaVuSans-73" x="801.708984"/>
     <use xlink:href="#DejaVuSans-73" x="853.808594"/>
    </g>
   </g>
   <g id="line2d_31">
    <path d="M 356.495312 197.974062 
L 367.495312 197.974062 
L 378.495312 197.974062 
" style="fill: none; stroke: #c44e52; stroke-width: 1.5; stroke-linecap: round"/>
    <defs>
     <path id="m4d4066b57e" d="M -1 3 
L 1 3 
L 1 1 
L 3 1 
L 3 -1 
L 1 -1 
L 1 -3 
L -1 -3 
L -1 -1 
L -3 -1 
L -3 1 
L -1 1 
z
" style="stroke: #c44e52; stroke-linejoin: miter"/>
    </defs>
    <g>
     <use xlink:href="#m4d4066b57e" x="367.495312" y="197.974062" style="fill: #c44e52; stroke: #c44e52; stroke-linejoin: miter"/>
    </g>
   </g>
   <g id="text_25">
    <!-- Scala 3 Map -->
    <g style="fill: #262626" transform="translate(387.295312 201.824062) scale(0.11 -0.11)">
     <defs>
      <path id="DejaVuSans-4d" d="M 628 4666 
L 1569 4666 
L 2759 1491 
L 3956 4666 
L 4897 4666 
L 4897 0 
L 4281 0 
L 4281 4097 
L 3078 897 
L 2444 897 
L 1241 4097 
L 1241 0 
L 628 0 
L 628 4666 
z
" transform="scale(0.015625)"/>
      <path id="DejaVuSans-70" d="M 1159 525 
L 1159 -1331 
L 581 -1331 
L 581 3500 
L 1159 3500 
L 1159 2969 
Q 1341 3281 1617 3432 
Q 1894 3584 2278 3584 
Q 2916 3584 3314 3078 
Q 3713 2572 3713 1747 
Q 3713 922 3314 415 
Q 2916 -91 2278 -91 
Q 1894 -91 1617 61 
Q 1341 213 1159 525 
z
M 3116 1747 
Q 3116 2381 2855 2742 
Q 2594 3103 2138 3103 
Q 1681 3103 1420 2742 
Q 1159 2381 1159 1747 
Q 1159 1113 1420 752 
Q 1681 391 2138 391 
Q 2594 391 2855 752 
Q 3116 1113 3116 1747 
z
" transform="scale(0.015625)"/>
     </defs>
     <use xlink:href="#DejaVuSans-53"/>
     <use xlink:href="#DejaVuSans-63" x="63.476562"/>
     <use xlink:href="#DejaVuSans-61" x="118.457031"/>
     <use xlink:href="#DejaVuSans-6c" x="179.736328"/>
     <use xlink:href="#DejaVuSans-61" x="207.519531"/>
     <use xlink:href="#DejaVuSans-20" x="268.798828"/>
     <use xlink:href="#DejaVuSans-33" x="300.585938"/>
     <use xlink:href="#DejaVuSans-20" x="364.208984"/>
     <use xlink:href="#DejaVuSans-4d" x="395.996094"/>
     <use xlink:href="#DejaVuSans-61" x="482.275391"/>
     <use xlink:href="#DejaVuSans-70" x="543.554688"/>
    </g>
   </g>
  </g>
 </g>
 <defs>
  <clipPath id="pa9f8ac96e8">
   <rect x="46.31125" y="7.2" width="290.5452" height="298.98"/>
  </clipPath>
 </defs>
</svg>
