<?xml version="1.0" encoding="utf-8" standalone="no"?>
<!DOCTYPE svg PUBLIC "-//W3C//DTD SVG 1.1//EN"
  "http://www.w3.org/Graphics/SVG/1.1/DTD/svg11.dtd">
<svg xmlns:xlink="http://www.w3.org/1999/xlink" width="517.100625pt" height="349.139687pt" viewBox="0 0 517.100625 349.139687" xmlns="http://www.w3.org/2000/svg" version="1.1">
 <metadata>
  <rdf:RDF xmlns:dc="http://purl.org/dc/elements/1.1/" xmlns:cc="http://creativecommons.org/ns#" xmlns:rdf="http://www.w3.org/1999/02/22-rdf-syntax-ns#">
   <cc:Work>
    <dc:type rdf:resource="http://purl.org/dc/dcmitype/StillImage"/>
    <dc:date>2024-01-12T20:41:50.455201</dc:date>
    <dc:format>image/svg+xml</dc:format>
    <dc:creator>
     <cc:Agent>
      <dc:title>Matplotlib v3.7.2, https://matplotlib.org/</dc:title>
     </cc:Agent>
    </dc:creator>
   </cc:Work>
  </rdf:RDF>
 </metadata>
 <defs>
  <style type="text/css">*{stroke-linejoin: round; stroke-linecap: butt}</style>
 </defs>
 <g id="figure_1">
  <g id="patch_1">
   <path d="M 0 349.139687 
L 517.100625 349.139687 
L 517.100625 0 
L 0 0 
z
" style="fill: #ffffff"/>
  </g>
  <g id="axes_1">
   <g id="patch_2">
    <path d="M 59.748625 306.18 
L 337.765825 306.18 
L 337.765825 7.2 
L 59.748625 7.2 
z
" style="fill: #eaeaf2"/>
   </g>
   <g id="matplotlib.axis_1">
    <g id="xtick_1">
     <g id="line2d_1">
      <path d="M 71.370739 306.18 
L 71.370739 7.2 
" clip-path="url(#pb2eaa39bc4)" style="fill: none; stroke: #ffffff; stroke-linecap: round"/>
     </g>
     <g id="text_1">
      <!-- 0 -->
      <g style="fill: #262626" transform="translate(67.871364 324.038281) scale(0.11 -0.11)">
       <defs>
        <path id="DejaVuSans-30" d="M 2034 4250 
Q 1547 4250 1301 3770 
Q 1056 3291 1056 2328 
Q 1056 1369 1301 889 
Q 1547 409 2034 409 
Q 2525 409 2770 889 
Q 3016 1369 3016 2328 
Q 3016 3291 2770 3770 
Q 2525 4250 2034 4250 
z
M 2034 4750 
Q 2819 4750 3233 4129 
Q 3647 3509 3647 2328 
Q 3647 1150 3233 529 
Q 2819 -91 2034 -91 
Q 1250 -91 836 529 
Q 422 1150 422 2328 
Q 422 3509 836 4129 
Q 1250 4750 2034 4750 
z
" transform="scale(0.015625)"/>
       </defs>
       <use xlink:href="#DejaVuSans-30"/>
      </g>
     </g>
    </g>
    <g id="xtick_2">
     <g id="line2d_2">
      <path d="M 122.122327 306.18 
L 122.122327 7.2 
" clip-path="url(#pb2eaa39bc4)" style="fill: none; stroke: #ffffff; stroke-linecap: round"/>
     </g>
     <g id="text_2">
      <!-- 50 -->
      <g style="fill: #262626" transform="translate(115.123577 324.038281) scale(0.11 -0.11)">
       <defs>
        <path id="DejaVuSans-35" d="M 691 4666 
L 3169 4666 
L 3169 4134 
L 1269 4134 
L 1269 2991 
Q 1406 3038 1543 3061 
Q 1681 3084 1819 3084 
Q 2600 3084 3056 2656 
Q 3513 2228 3513 1497 
Q 3513 744 3044 326 
Q 2575 -91 1722 -91 
Q 1428 -91 1123 -41 
Q 819 9 494 109 
L 494 744 
Q 775 591 1075 516 
Q 1375 441 1709 441 
Q 2250 441 2565 725 
Q 2881 1009 2881 1497 
Q 2881 1984 2565 2268 
Q 2250 2553 1709 2553 
Q 1456 2553 1204 2497 
Q 953 2441 691 2322 
L 691 4666 
z
" transform="scale(0.015625)"/>
       </defs>
       <use xlink:href="#DejaVuSans-35"/>
       <use xlink:href="#DejaVuSans-30" x="63.623047"/>
      </g>
     </g>
    </g>
    <g id="xtick_3">
     <g id="line2d_3">
      <path d="M 172.873915 306.18 
L 172.873915 7.2 
" clip-path="url(#pb2eaa39bc4)" style="fill: none; stroke: #ffffff; stroke-linecap: round"/>
     </g>
     <g id="text_3">
      <!-- 100 -->
      <g style="fill: #262626" transform="translate(162.37579 324.038281) scale(0.11 -0.11)">
       <defs>
        <path id="DejaVuSans-31" d="M 794 531 
L 1825 531 
L 1825 4091 
L 703 3866 
L 703 4441 
L 1819 4666 
L 2450 4666 
L 2450 531 
L 3481 531 
L 3481 0 
L 794 0 
L 794 531 
z
" transform="scale(0.015625)"/>
       </defs>
       <use xlink:href="#DejaVuSans-31"/>
       <use xlink:href="#DejaVuSans-30" x="63.623047"/>
       <use xlink:href="#DejaVuSans-30" x="127.246094"/>
      </g>
     </g>
    </g>
    <g id="xtick_4">
     <g id="line2d_4">
      <path d="M 223.625503 306.18 
L 223.625503 7.2 
" clip-path="url(#pb2eaa39bc4)" style="fill: none; stroke: #ffffff; stroke-linecap: round"/>
     </g>
     <g id="text_4">
      <!-- 150 -->
      <g style="fill: #262626" transform="translate(213.127378 324.038281) scale(0.11 -0.11)">
       <use xlink:href="#DejaVuSans-31"/>
       <use xlink:href="#DejaVuSans-35" x="63.623047"/>
       <use xlink:href="#DejaVuSans-30" x="127.246094"/>
      </g>
     </g>
    </g>
    <g id="xtick_5">
     <g id="line2d_5">
      <path d="M 274.377091 306.18 
L 274.377091 7.2 
" clip-path="url(#pb2eaa39bc4)" style="fill: none; stroke: #ffffff; stroke-linecap: round"/>
     </g>
     <g id="text_5">
      <!-- 200 -->
      <g style="fill: #262626" transform="translate(263.878966 324.038281) scale(0.11 -0.11)">
       <defs>
        <path id="DejaVuSans-32" d="M 1228 531 
L 3431 531 
L 3431 0 
L 469 0 
L 469 531 
Q 828 903 1448 1529 
Q 2069 2156 2228 2338 
Q 2531 2678 2651 2914 
Q 2772 3150 2772 3378 
Q 2772 3750 2511 3984 
Q 2250 4219 1831 4219 
Q 1534 4219 1204 4116 
Q 875 4013 500 3803 
L 500 4441 
Q 881 4594 1212 4672 
Q 1544 4750 1819 4750 
Q 2544 4750 2975 4387 
Q 3406 4025 3406 3419 
Q 3406 3131 3298 2873 
Q 3191 2616 2906 2266 
Q 2828 2175 2409 1742 
Q 1991 1309 1228 531 
z
" transform="scale(0.015625)"/>
       </defs>
       <use xlink:href="#DejaVuSans-32"/>
       <use xlink:href="#DejaVuSans-30" x="63.623047"/>
       <use xlink:href="#DejaVuSans-30" x="127.246094"/>
      </g>
     </g>
    </g>
    <g id="xtick_6">
     <g id="line2d_6">
      <path d="M 325.12868 306.18 
L 325.12868 7.2 
" clip-path="url(#pb2eaa39bc4)" style="fill: none; stroke: #ffffff; stroke-linecap: round"/>
     </g>
     <g id="text_6">
      <!-- 250 -->
      <g style="fill: #262626" transform="translate(314.630555 324.038281) scale(0.11 -0.11)">
       <use xlink:href="#DejaVuSans-32"/>
       <use xlink:href="#DejaVuSans-35" x="63.623047"/>
       <use xlink:href="#DejaVuSans-30" x="127.246094"/>
      </g>
     </g>
    </g>
    <g id="text_7">
     <!-- Record size -->
     <g style="fill: #262626" transform="translate(164.485038 339.444062) scale(0.12 -0.12)">
      <defs>
       <path id="DejaVuSans-52" d="M 2841 2188 
Q 3044 2119 3236 1894 
Q 3428 1669 3622 1275 
L 4263 0 
L 3584 0 
L 2988 1197 
Q 2756 1666 2539 1819 
Q 2322 1972 1947 1972 
L 1259 1972 
L 1259 0 
L 628 0 
L 628 4666 
L 2053 4666 
Q 2853 4666 3247 4331 
Q 3641 3997 3641 3322 
Q 3641 2881 3436 2590 
Q 3231 2300 2841 2188 
z
M 1259 4147 
L 1259 2491 
L 2053 2491 
Q 2509 2491 2742 2702 
Q 2975 2913 2975 3322 
Q 2975 3731 2742 3939 
Q 2509 4147 2053 4147 
L 1259 4147 
z
" transform="scale(0.015625)"/>
       <path id="DejaVuSans-65" d="M 3597 1894 
L 3597 1613 
L 953 1613 
Q 991 1019 1311 708 
Q 1631 397 2203 397 
Q 2534 397 2845 478 
Q 3156 559 3463 722 
L 3463 178 
Q 3153 47 2828 -22 
Q 2503 -91 2169 -91 
Q 1331 -91 842 396 
Q 353 884 353 1716 
Q 353 2575 817 3079 
Q 1281 3584 2069 3584 
Q 2775 3584 3186 3129 
Q 3597 2675 3597 1894 
z
M 3022 2063 
Q 3016 2534 2758 2815 
Q 2500 3097 2075 3097 
Q 1594 3097 1305 2825 
Q 1016 2553 972 2059 
L 3022 2063 
z
" transform="scale(0.015625)"/>
       <path id="DejaVuSans-63" d="M 3122 3366 
L 3122 2828 
Q 2878 2963 2633 3030 
Q 2388 3097 2138 3097 
Q 1578 3097 1268 2742 
Q 959 2388 959 1747 
Q 959 1106 1268 751 
Q 1578 397 2138 397 
Q 2388 397 2633 464 
Q 2878 531 3122 666 
L 3122 134 
Q 2881 22 2623 -34 
Q 2366 -91 2075 -91 
Q 1284 -91 818 406 
Q 353 903 353 1747 
Q 353 2603 823 3093 
Q 1294 3584 2113 3584 
Q 2378 3584 2631 3529 
Q 2884 3475 3122 3366 
z
" transform="scale(0.015625)"/>
       <path id="DejaVuSans-6f" d="M 1959 3097 
Q 1497 3097 1228 2736 
Q 959 2375 959 1747 
Q 959 1119 1226 758 
Q 1494 397 1959 397 
Q 2419 397 2687 759 
Q 2956 1122 2956 1747 
Q 2956 2369 2687 2733 
Q 2419 3097 1959 3097 
z
M 1959 3584 
Q 2709 3584 3137 3096 
Q 3566 2609 3566 1747 
Q 3566 888 3137 398 
Q 2709 -91 1959 -91 
Q 1206 -91 779 398 
Q 353 888 353 1747 
Q 353 2609 779 3096 
Q 1206 3584 1959 3584 
z
" transform="scale(0.015625)"/>
       <path id="DejaVuSans-72" d="M 2631 2963 
Q 2534 3019 2420 3045 
Q 2306 3072 2169 3072 
Q 1681 3072 1420 2755 
Q 1159 2438 1159 1844 
L 1159 0 
L 581 0 
L 581 3500 
L 1159 3500 
L 1159 2956 
Q 1341 3275 1631 3429 
Q 1922 3584 2338 3584 
Q 2397 3584 2469 3576 
Q 2541 3569 2628 3553 
L 2631 2963 
z
" transform="scale(0.015625)"/>
       <path id="DejaVuSans-64" d="M 2906 2969 
L 2906 4863 
L 3481 4863 
L 3481 0 
L 2906 0 
L 2906 525 
Q 2725 213 2448 61 
Q 2172 -91 1784 -91 
Q 1150 -91 751 415 
Q 353 922 353 1747 
Q 353 2572 751 3078 
Q 1150 3584 1784 3584 
Q 2172 3584 2448 3432 
Q 2725 3281 2906 2969 
z
M 947 1747 
Q 947 1113 1208 752 
Q 1469 391 1925 391 
Q 2381 391 2643 752 
Q 2906 1113 2906 1747 
Q 2906 2381 2643 2742 
Q 2381 3103 1925 3103 
Q 1469 3103 1208 2742 
Q 947 2381 947 1747 
z
" transform="scale(0.015625)"/>
       <path id="DejaVuSans-20" transform="scale(0.015625)"/>
       <path id="DejaVuSans-73" d="M 2834 3397 
L 2834 2853 
Q 2591 2978 2328 3040 
Q 2066 3103 1784 3103 
Q 1356 3103 1142 2972 
Q 928 2841 928 2578 
Q 928 2378 1081 2264 
Q 1234 2150 1697 2047 
L 1894 2003 
Q 2506 1872 2764 1633 
Q 3022 1394 3022 966 
Q 3022 478 2636 193 
Q 2250 -91 1575 -91 
Q 1294 -91 989 -36 
Q 684 19 347 128 
L 347 722 
Q 666 556 975 473 
Q 1284 391 1588 391 
Q 1994 391 2212 530 
Q 2431 669 2431 922 
Q 2431 1156 2273 1281 
Q 2116 1406 1581 1522 
L 1381 1569 
Q 847 1681 609 1914 
Q 372 2147 372 2553 
Q 372 3047 722 3315 
Q 1072 3584 1716 3584 
Q 2034 3584 2315 3537 
Q 2597 3491 2834 3397 
z
" transform="scale(0.015625)"/>
       <path id="DejaVuSans-69" d="M 603 3500 
L 1178 3500 
L 1178 0 
L 603 0 
L 603 3500 
z
M 603 4863 
L 1178 4863 
L 1178 4134 
L 603 4134 
L 603 4863 
z
" transform="scale(0.015625)"/>
       <path id="DejaVuSans-7a" d="M 353 3500 
L 3084 3500 
L 3084 2975 
L 922 459 
L 3084 459 
L 3084 0 
L 275 0 
L 275 525 
L 2438 3041 
L 353 3041 
L 353 3500 
z
" transform="scale(0.015625)"/>
      </defs>
      <use xlink:href="#DejaVuSans-52"/>
      <use xlink:href="#DejaVuSans-65" x="64.982422"/>
      <use xlink:href="#DejaVuSans-63" x="126.505859"/>
      <use xlink:href="#DejaVuSans-6f" x="181.486328"/>
      <use xlink:href="#DejaVuSans-72" x="242.667969"/>
      <use xlink:href="#DejaVuSans-64" x="282.03125"/>
      <use xlink:href="#DejaVuSans-20" x="345.507812"/>
      <use xlink:href="#DejaVuSans-73" x="377.294922"/>
      <use xlink:href="#DejaVuSans-69" x="429.394531"/>
      <use xlink:href="#DejaVuSans-7a" x="457.177734"/>
      <use xlink:href="#DejaVuSans-65" x="509.667969"/>
     </g>
    </g>
   </g>
   <g id="matplotlib.axis_2">
    <g id="ytick_1">
     <g id="line2d_7">
      <path d="M 59.748625 299.328046 
L 337.765825 299.328046 
" clip-path="url(#pb2eaa39bc4)" style="fill: none; stroke: #ffffff; stroke-linecap: round"/>
     </g>
     <g id="text_8">
      <!-- 0 -->
      <g style="fill: #262626" transform="translate(43.249875 303.507187) scale(0.11 -0.11)">
       <use xlink:href="#DejaVuSans-30"/>
      </g>
     </g>
    </g>
    <g id="ytick_2">
     <g id="line2d_8">
      <path d="M 59.748625 271.733065 
L 337.765825 271.733065 
" clip-path="url(#pb2eaa39bc4)" style="fill: none; stroke: #ffffff; stroke-linecap: round"/>
     </g>
     <g id="text_9">
      <!-- 5 -->
      <g style="fill: #262626" transform="translate(43.249875 275.912206) scale(0.11 -0.11)">
       <use xlink:href="#DejaVuSans-35"/>
      </g>
     </g>
    </g>
    <g id="ytick_3">
     <g id="line2d_9">
      <path d="M 59.748625 244.138085 
L 337.765825 244.138085 
" clip-path="url(#pb2eaa39bc4)" style="fill: none; stroke: #ffffff; stroke-linecap: round"/>
     </g>
     <g id="text_10">
      <!-- 10 -->
      <g style="fill: #262626" transform="translate(36.251125 248.317225) scale(0.11 -0.11)">
       <use xlink:href="#DejaVuSans-31"/>
       <use xlink:href="#DejaVuSans-30" x="63.623047"/>
      </g>
     </g>
    </g>
    <g id="ytick_4">
     <g id="line2d_10">
      <path d="M 59.748625 216.543104 
L 337.765825 216.543104 
" clip-path="url(#pb2eaa39bc4)" style="fill: none; stroke: #ffffff; stroke-linecap: round"/>
     </g>
     <g id="text_11">
      <!-- 15 -->
      <g style="fill: #262626" transform="translate(36.251125 220.722244) scale(0.11 -0.11)">
       <use xlink:href="#DejaVuSans-31"/>
       <use xlink:href="#DejaVuSans-35" x="63.623047"/>
      </g>
     </g>
    </g>
    <g id="ytick_5">
     <g id="line2d_11">
      <path d="M 59.748625 188.948123 
L 337.765825 188.948123 
" clip-path="url(#pb2eaa39bc4)" style="fill: none; stroke: #ffffff; stroke-linecap: round"/>
     </g>
     <g id="text_12">
      <!-- 20 -->
      <g style="fill: #262626" transform="translate(36.251125 193.127264) scale(0.11 -0.11)">
       <use xlink:href="#DejaVuSans-32"/>
       <use xlink:href="#DejaVuSans-30" x="63.623047"/>
      </g>
     </g>
    </g>
    <g id="ytick_6">
     <g id="line2d_12">
      <path d="M 59.748625 161.353142 
L 337.765825 161.353142 
" clip-path="url(#pb2eaa39bc4)" style="fill: none; stroke: #ffffff; stroke-linecap: round"/>
     </g>
     <g id="text_13">
      <!-- 25 -->
      <g style="fill: #262626" transform="translate(36.251125 165.532283) scale(0.11 -0.11)">
       <use xlink:href="#DejaVuSans-32"/>
       <use xlink:href="#DejaVuSans-35" x="63.623047"/>
      </g>
     </g>
    </g>
    <g id="ytick_7">
     <g id="line2d_13">
      <path d="M 59.748625 133.758161 
L 337.765825 133.758161 
" clip-path="url(#pb2eaa39bc4)" style="fill: none; stroke: #ffffff; stroke-linecap: round"/>
     </g>
     <g id="text_14">
      <!-- 30 -->
      <g style="fill: #262626" transform="translate(36.251125 137.937302) scale(0.11 -0.11)">
       <defs>
        <path id="DejaVuSans-33" d="M 2597 2516 
Q 3050 2419 3304 2112 
Q 3559 1806 3559 1356 
Q 3559 666 3084 287 
Q 2609 -91 1734 -91 
Q 1441 -91 1130 -33 
Q 819 25 488 141 
L 488 750 
Q 750 597 1062 519 
Q 1375 441 1716 441 
Q 2309 441 2620 675 
Q 2931 909 2931 1356 
Q 2931 1769 2642 2001 
Q 2353 2234 1838 2234 
L 1294 2234 
L 1294 2753 
L 1863 2753 
Q 2328 2753 2575 2939 
Q 2822 3125 2822 3475 
Q 2822 3834 2567 4026 
Q 2313 4219 1838 4219 
Q 1578 4219 1281 4162 
Q 984 4106 628 3988 
L 628 4550 
Q 988 4650 1302 4700 
Q 1616 4750 1894 4750 
Q 2613 4750 3031 4423 
Q 3450 4097 3450 3541 
Q 3450 3153 3228 2886 
Q 3006 2619 2597 2516 
z
" transform="scale(0.015625)"/>
       </defs>
       <use xlink:href="#DejaVuSans-33"/>
       <use xlink:href="#DejaVuSans-30" x="63.623047"/>
      </g>
     </g>
    </g>
    <g id="ytick_8">
     <g id="line2d_14">
      <path d="M 59.748625 106.16318 
L 337.765825 106.16318 
" clip-path="url(#pb2eaa39bc4)" style="fill: none; stroke: #ffffff; stroke-linecap: round"/>
     </g>
     <g id="text_15">
      <!-- 35 -->
      <g style="fill: #262626" transform="translate(36.251125 110.342321) scale(0.11 -0.11)">
       <use xlink:href="#DejaVuSans-33"/>
       <use xlink:href="#DejaVuSans-35" x="63.623047"/>
      </g>
     </g>
    </g>
    <g id="ytick_9">
     <g id="line2d_15">
      <path d="M 59.748625 78.5682 
L 337.765825 78.5682 
" clip-path="url(#pb2eaa39bc4)" style="fill: none; stroke: #ffffff; stroke-linecap: round"/>
     </g>
     <g id="text_16">
      <!-- 40 -->
      <g style="fill: #262626" transform="translate(36.251125 82.74734) scale(0.11 -0.11)">
       <defs>
        <path id="DejaVuSans-34" d="M 2419 4116 
L 825 1625 
L 2419 1625 
L 2419 4116 
z
M 2253 4666 
L 3047 4666 
L 3047 1625 
L 3713 1625 
L 3713 1100 
L 3047 1100 
L 3047 0 
L 2419 0 
L 2419 1100 
L 313 1100 
L 313 1709 
L 2253 4666 
z
" transform="scale(0.015625)"/>
       </defs>
       <use xlink:href="#DejaVuSans-34"/>
       <use xlink:href="#DejaVuSans-30" x="63.623047"/>
      </g>
     </g>
    </g>
    <g id="ytick_10">
     <g id="line2d_16">
      <path d="M 59.748625 50.973219 
L 337.765825 50.973219 
" clip-path="url(#pb2eaa39bc4)" style="fill: none; stroke: #ffffff; stroke-linecap: round"/>
     </g>
     <g id="text_17">
      <!-- 45 -->
      <g style="fill: #262626" transform="translate(36.251125 55.152359) scale(0.11 -0.11)">
       <use xlink:href="#DejaVuSans-34"/>
       <use xlink:href="#DejaVuSans-35" x="63.623047"/>
      </g>
     </g>
    </g>
    <g id="ytick_11">
     <g id="line2d_17">
      <path d="M 59.748625 23.378238 
L 337.765825 23.378238 
" clip-path="url(#pb2eaa39bc4)" style="fill: none; stroke: #ffffff; stroke-linecap: round"/>
     </g>
     <g id="text_18">
      <!-- 50 -->
      <g style="fill: #262626" transform="translate(36.251125 27.557379) scale(0.11 -0.11)">
       <use xlink:href="#DejaVuSans-35"/>
       <use xlink:href="#DejaVuSans-30" x="63.623047"/>
      </g>
     </g>
    </g>
    <g id="text_19">
     <!-- Compilation time [s] -->
     <g style="fill: #262626" transform="translate(16.318125 217.884375) rotate(-90) scale(0.12 -0.12)">
      <defs>
       <path id="DejaVuSans-43" d="M 4122 4306 
L 4122 3641 
Q 3803 3938 3442 4084 
Q 3081 4231 2675 4231 
Q 1875 4231 1450 3742 
Q 1025 3253 1025 2328 
Q 1025 1406 1450 917 
Q 1875 428 2675 428 
Q 3081 428 3442 575 
Q 3803 722 4122 1019 
L 4122 359 
Q 3791 134 3420 21 
Q 3050 -91 2638 -91 
Q 1578 -91 968 557 
Q 359 1206 359 2328 
Q 359 3453 968 4101 
Q 1578 4750 2638 4750 
Q 3056 4750 3426 4639 
Q 3797 4528 4122 4306 
z
" transform="scale(0.015625)"/>
       <path id="DejaVuSans-6d" d="M 3328 2828 
Q 3544 3216 3844 3400 
Q 4144 3584 4550 3584 
Q 5097 3584 5394 3201 
Q 5691 2819 5691 2113 
L 5691 0 
L 5113 0 
L 5113 2094 
Q 5113 2597 4934 2840 
Q 4756 3084 4391 3084 
Q 3944 3084 3684 2787 
Q 3425 2491 3425 1978 
L 3425 0 
L 2847 0 
L 2847 2094 
Q 2847 2600 2669 2842 
Q 2491 3084 2119 3084 
Q 1678 3084 1418 2786 
Q 1159 2488 1159 1978 
L 1159 0 
L 581 0 
L 581 3500 
L 1159 3500 
L 1159 2956 
Q 1356 3278 1631 3431 
Q 1906 3584 2284 3584 
Q 2666 3584 2933 3390 
Q 3200 3197 3328 2828 
z
" transform="scale(0.015625)"/>
       <path id="DejaVuSans-70" d="M 1159 525 
L 1159 -1331 
L 581 -1331 
L 581 3500 
L 1159 3500 
L 1159 2969 
Q 1341 3281 1617 3432 
Q 1894 3584 2278 3584 
Q 2916 3584 3314 3078 
Q 3713 2572 3713 1747 
Q 3713 922 3314 415 
Q 2916 -91 2278 -91 
Q 1894 -91 1617 61 
Q 1341 213 1159 525 
z
M 3116 1747 
Q 3116 2381 2855 2742 
Q 2594 3103 2138 3103 
Q 1681 3103 1420 2742 
Q 1159 2381 1159 1747 
Q 1159 1113 1420 752 
Q 1681 391 2138 391 
Q 2594 391 2855 752 
Q 3116 1113 3116 1747 
z
" transform="scale(0.015625)"/>
       <path id="DejaVuSans-6c" d="M 603 4863 
L 1178 4863 
L 1178 0 
L 603 0 
L 603 4863 
z
" transform="scale(0.015625)"/>
       <path id="DejaVuSans-61" d="M 2194 1759 
Q 1497 1759 1228 1600 
Q 959 1441 959 1056 
Q 959 750 1161 570 
Q 1363 391 1709 391 
Q 2188 391 2477 730 
Q 2766 1069 2766 1631 
L 2766 1759 
L 2194 1759 
z
M 3341 1997 
L 3341 0 
L 2766 0 
L 2766 531 
Q 2569 213 2275 61 
Q 1981 -91 1556 -91 
Q 1019 -91 701 211 
Q 384 513 384 1019 
Q 384 1609 779 1909 
Q 1175 2209 1959 2209 
L 2766 2209 
L 2766 2266 
Q 2766 2663 2505 2880 
Q 2244 3097 1772 3097 
Q 1472 3097 1187 3025 
Q 903 2953 641 2809 
L 641 3341 
Q 956 3463 1253 3523 
Q 1550 3584 1831 3584 
Q 2591 3584 2966 3190 
Q 3341 2797 3341 1997 
z
" transform="scale(0.015625)"/>
       <path id="DejaVuSans-74" d="M 1172 4494 
L 1172 3500 
L 2356 3500 
L 2356 3053 
L 1172 3053 
L 1172 1153 
Q 1172 725 1289 603 
Q 1406 481 1766 481 
L 2356 481 
L 2356 0 
L 1766 0 
Q 1100 0 847 248 
Q 594 497 594 1153 
L 594 3053 
L 172 3053 
L 172 3500 
L 594 3500 
L 594 4494 
L 1172 4494 
z
" transform="scale(0.015625)"/>
       <path id="DejaVuSans-6e" d="M 3513 2113 
L 3513 0 
L 2938 0 
L 2938 2094 
Q 2938 2591 2744 2837 
Q 2550 3084 2163 3084 
Q 1697 3084 1428 2787 
Q 1159 2491 1159 1978 
L 1159 0 
L 581 0 
L 581 3500 
L 1159 3500 
L 1159 2956 
Q 1366 3272 1645 3428 
Q 1925 3584 2291 3584 
Q 2894 3584 3203 3211 
Q 3513 2838 3513 2113 
z
" transform="scale(0.015625)"/>
       <path id="DejaVuSans-5b" d="M 550 4863 
L 1875 4863 
L 1875 4416 
L 1125 4416 
L 1125 -397 
L 1875 -397 
L 1875 -844 
L 550 -844 
L 550 4863 
z
" transform="scale(0.015625)"/>
       <path id="DejaVuSans-5d" d="M 1947 4863 
L 1947 -844 
L 622 -844 
L 622 -397 
L 1369 -397 
L 1369 4416 
L 622 4416 
L 622 4863 
L 1947 4863 
z
" transform="scale(0.015625)"/>
      </defs>
      <use xlink:href="#DejaVuSans-43"/>
      <use xlink:href="#DejaVuSans-6f" x="69.824219"/>
      <use xlink:href="#DejaVuSans-6d" x="131.005859"/>
      <use xlink:href="#DejaVuSans-70" x="228.417969"/>
      <use xlink:href="#DejaVuSans-69" x="291.894531"/>
      <use xlink:href="#DejaVuSans-6c" x="319.677734"/>
      <use xlink:href="#DejaVuSans-61" x="347.460938"/>
      <use xlink:href="#DejaVuSans-74" x="408.740234"/>
      <use xlink:href="#DejaVuSans-69" x="447.949219"/>
      <use xlink:href="#DejaVuSans-6f" x="475.732422"/>
      <use xlink:href="#DejaVuSans-6e" x="536.914062"/>
      <use xlink:href="#DejaVuSans-20" x="600.292969"/>
      <use xlink:href="#DejaVuSans-74" x="632.080078"/>
      <use xlink:href="#DejaVuSans-69" x="671.289062"/>
      <use xlink:href="#DejaVuSans-6d" x="699.072266"/>
      <use xlink:href="#DejaVuSans-65" x="796.484375"/>
      <use xlink:href="#DejaVuSans-20" x="858.007812"/>
      <use xlink:href="#DejaVuSans-5b" x="889.794922"/>
      <use xlink:href="#DejaVuSans-73" x="928.808594"/>
      <use xlink:href="#DejaVuSans-5d" x="980.908203"/>
     </g>
     <!-- (record creation and all field access) -->
     <g style="fill: #262626" transform="translate(29.7555 266.026875) rotate(-90) scale(0.12 -0.12)">
      <defs>
       <path id="DejaVuSans-28" d="M 1984 4856 
Q 1566 4138 1362 3434 
Q 1159 2731 1159 2009 
Q 1159 1288 1364 580 
Q 1569 -128 1984 -844 
L 1484 -844 
Q 1016 -109 783 600 
Q 550 1309 550 2009 
Q 550 2706 781 3412 
Q 1013 4119 1484 4856 
L 1984 4856 
z
" transform="scale(0.015625)"/>
       <path id="DejaVuSans-66" d="M 2375 4863 
L 2375 4384 
L 1825 4384 
Q 1516 4384 1395 4259 
Q 1275 4134 1275 3809 
L 1275 3500 
L 2222 3500 
L 2222 3053 
L 1275 3053 
L 1275 0 
L 697 0 
L 697 3053 
L 147 3053 
L 147 3500 
L 697 3500 
L 697 3744 
Q 697 4328 969 4595 
Q 1241 4863 1831 4863 
L 2375 4863 
z
" transform="scale(0.015625)"/>
       <path id="DejaVuSans-29" d="M 513 4856 
L 1013 4856 
Q 1481 4119 1714 3412 
Q 1947 2706 1947 2009 
Q 1947 1309 1714 600 
Q 1481 -109 1013 -844 
L 513 -844 
Q 928 -128 1133 580 
Q 1338 1288 1338 2009 
Q 1338 2731 1133 3434 
Q 928 4138 513 4856 
z
" transform="scale(0.015625)"/>
      </defs>
      <use xlink:href="#DejaVuSans-28"/>
      <use xlink:href="#DejaVuSans-72" x="39.013672"/>
      <use xlink:href="#DejaVuSans-65" x="77.876953"/>
      <use xlink:href="#DejaVuSans-63" x="139.400391"/>
      <use xlink:href="#DejaVuSans-6f" x="194.380859"/>
      <use xlink:href="#DejaVuSans-72" x="255.5625"/>
      <use xlink:href="#DejaVuSans-64" x="294.925781"/>
      <use xlink:href="#DejaVuSans-20" x="358.402344"/>
      <use xlink:href="#DejaVuSans-63" x="390.189453"/>
      <use xlink:href="#DejaVuSans-72" x="445.169922"/>
      <use xlink:href="#DejaVuSans-65" x="484.033203"/>
      <use xlink:href="#DejaVuSans-61" x="545.556641"/>
      <use xlink:href="#DejaVuSans-74" x="606.835938"/>
      <use xlink:href="#DejaVuSans-69" x="646.044922"/>
      <use xlink:href="#DejaVuSans-6f" x="673.828125"/>
      <use xlink:href="#DejaVuSans-6e" x="735.009766"/>
      <use xlink:href="#DejaVuSans-20" x="798.388672"/>
      <use xlink:href="#DejaVuSans-61" x="830.175781"/>
      <use xlink:href="#DejaVuSans-6e" x="891.455078"/>
      <use xlink:href="#DejaVuSans-64" x="954.833984"/>
      <use xlink:href="#DejaVuSans-20" x="1018.310547"/>
      <use xlink:href="#DejaVuSans-61" x="1050.097656"/>
      <use xlink:href="#DejaVuSans-6c" x="1111.376953"/>
      <use xlink:href="#DejaVuSans-6c" x="1139.160156"/>
      <use xlink:href="#DejaVuSans-20" x="1166.943359"/>
      <use xlink:href="#DejaVuSans-66" x="1198.730469"/>
      <use xlink:href="#DejaVuSans-69" x="1233.935547"/>
      <use xlink:href="#DejaVuSans-65" x="1261.71875"/>
      <use xlink:href="#DejaVuSans-6c" x="1323.242188"/>
      <use xlink:href="#DejaVuSans-64" x="1351.025391"/>
      <use xlink:href="#DejaVuSans-20" x="1414.501953"/>
      <use xlink:href="#DejaVuSans-61" x="1446.289062"/>
      <use xlink:href="#DejaVuSans-63" x="1507.568359"/>
      <use xlink:href="#DejaVuSans-63" x="1562.548828"/>
      <use xlink:href="#DejaVuSans-65" x="1617.529297"/>
      <use xlink:href="#DejaVuSans-73" x="1679.052734"/>
      <use xlink:href="#DejaVuSans-73" x="1731.152344"/>
      <use xlink:href="#DejaVuSans-29" x="1783.251953"/>
     </g>
    </g>
   </g>
   <g id="PolyCollection_1">
    <defs>
     <path id="m52b5fc7471" d="M 72.38577 -61.041425 
L 72.38577 -60.375492 
L 122.122327 -63.763467 
L 172.873915 -66.679133 
L 223.625503 -70.138744 
L 274.377091 -72.736863 
L 325.12868 -77.713288 
L 325.12868 -79.399504 
L 325.12868 -79.399504 
L 274.377091 -74.378755 
L 223.625503 -71.291337 
L 172.873915 -68.140109 
L 122.122327 -65.125954 
L 72.38577 -61.041425 
z
" style="stroke: #4c72b0; stroke-opacity: 0.2"/>
    </defs>
    <g clip-path="url(#pb2eaa39bc4)">
     <use xlink:href="#m52b5fc7471" x="0" y="349.139687" style="fill: #4c72b0; fill-opacity: 0.2; stroke: #4c72b0; stroke-opacity: 0.2"/>
    </g>
   </g>
   <g id="PolyCollection_2">
    <defs>
     <path id="mc796ec88bc" d="M 72.38577 -60.885265 
L 72.38577 -60.490693 
L 122.122327 -75.193392 
L 172.873915 -88.45174 
L 223.625503 -104.760261 
L 274.377091 -125.048946 
L 325.12868 -152.42135 
L 325.12868 -154.038047 
L 325.12868 -154.038047 
L 274.377091 -127.134962 
L 223.625503 -106.218902 
L 172.873915 -90.498364 
L 122.122327 -77.289927 
L 72.38577 -60.885265 
z
" style="stroke: #dd8452; stroke-opacity: 0.2"/>
    </defs>
    <g clip-path="url(#pb2eaa39bc4)">
     <use xlink:href="#mc796ec88bc" x="0" y="349.139687" style="fill: #dd8452; fill-opacity: 0.2; stroke: #dd8452; stroke-opacity: 0.2"/>
    </g>
   </g>
   <g id="PolyCollection_3">
    <defs>
     <path id="m481ec62bd1" d="M 72.38577 -58.693933 
L 72.38577 -58.232169 
L 122.122327 -61.05832 
L 172.873915 -62.345694 
L 223.625503 -64.336712 
L 274.377091 -64.951703 
L 325.12868 -65.431148 
L 325.12868 -66.505954 
L 325.12868 -66.505954 
L 274.377091 -67.022556 
L 223.625503 -64.910941 
L 172.873915 -63.161525 
L 122.122327 -61.779024 
L 72.38577 -58.693933 
z
" style="stroke: #55a868; stroke-opacity: 0.2"/>
    </defs>
    <g clip-path="url(#pb2eaa39bc4)">
     <use xlink:href="#m481ec62bd1" x="0" y="349.139687" style="fill: #55a868; fill-opacity: 0.2; stroke: #55a868; stroke-opacity: 0.2"/>
    </g>
   </g>
   <g id="PolyCollection_4">
    <defs>
     <path id="mae3433eff3" d="M 72.38577 -57.286246 
L 72.38577 -56.549687 
L 122.122327 -57.243664 
L 172.873915 -57.683337 
L 223.625503 -58.377456 
L 274.377091 -58.633455 
L 325.12868 -58.869338 
L 325.12868 -59.611477 
L 325.12868 -59.611477 
L 274.377091 -59.187712 
L 223.625503 -59.16494 
L 172.873915 -58.149351 
L 122.122327 -57.914107 
L 72.38577 -57.286246 
z
" style="stroke: #c44e52; stroke-opacity: 0.2"/>
    </defs>
    <g clip-path="url(#pb2eaa39bc4)">
     <use xlink:href="#mae3433eff3" x="0" y="349.139687" style="fill: #c44e52; fill-opacity: 0.2; stroke: #c44e52; stroke-opacity: 0.2"/>
    </g>
   </g>
   <g id="PolyCollection_5">
    <defs>
     <path id="me57f72f2e1" d="M 72.38577 -59.377763 
L 72.38577 -58.767845 
L 122.122327 -70.197531 
L 172.873915 -86.318023 
L 223.625503 -115.301452 
L 274.377091 -158.677269 
L 325.12868 -229.606846 
L 325.12868 -236.389042 
L 325.12868 -236.389042 
L 274.377091 -162.677792 
L 223.625503 -117.799474 
L 172.873915 -88.141011 
L 122.122327 -71.146373 
L 72.38577 -59.377763 
z
" style="stroke: #8172b3; stroke-opacity: 0.2"/>
    </defs>
    <g clip-path="url(#pb2eaa39bc4)">
     <use xlink:href="#me57f72f2e1" x="0" y="349.139687" style="fill: #8172b3; fill-opacity: 0.2; stroke: #8172b3; stroke-opacity: 0.2"/>
    </g>
   </g>
   <g id="PolyCollection_6">
    <defs>
     <path id="m60a51572db" d="M 72.38577 -62.046904 
L 72.38577 -61.418936 
L 122.122327 -92.980378 
L 172.873915 -129.594103 
L 223.625503 -177.32045 
L 274.377091 -242.100094 
L 325.12868 -325.158523 
L 325.12868 -328.349687 
L 325.12868 -328.349687 
L 274.377091 -245.322635 
L 223.625503 -180.143451 
L 172.873915 -132.142453 
L 122.122327 -93.728866 
L 72.38577 -62.046904 
z
" style="stroke: #937860; stroke-opacity: 0.2"/>
    </defs>
    <g clip-path="url(#pb2eaa39bc4)">
     <use xlink:href="#m60a51572db" x="0" y="349.139687" style="fill: #937860; fill-opacity: 0.2; stroke: #937860; stroke-opacity: 0.2"/>
    </g>
   </g>
   <g id="line2d_18">
    <path d="M 72.38577 288.48522 
L 122.122327 284.727419 
L 172.873915 281.737615 
L 223.625503 278.424647 
L 274.377091 275.581879 
L 325.12868 270.583292 
" clip-path="url(#pb2eaa39bc4)" style="fill: none; stroke: #4c72b0; stroke-width: 1.5; stroke-linecap: round"/>
    <defs>
     <path id="m2fdf2709ee" d="M 0 3 
C 0.795609 3 1.55874 2.683901 2.12132 2.12132 
C 2.683901 1.55874 3 0.795609 3 0 
C 3 -0.795609 2.683901 -1.55874 2.12132 -2.12132 
C 1.55874 -2.683901 0.795609 -3 0 -3 
C -0.795609 -3 -1.55874 -2.683901 -2.12132 -2.12132 
C -2.683901 -1.55874 -3 -0.795609 -3 0 
C -3 0.795609 -2.683901 1.55874 -2.12132 2.12132 
C -1.55874 2.683901 -0.795609 3 0 3 
z
" style="stroke: #ffffff; stroke-width: 0.75"/>
    </defs>
    <g clip-path="url(#pb2eaa39bc4)">
     <use xlink:href="#m2fdf2709ee" x="72.38577" y="288.48522" style="fill: #4c72b0; stroke: #ffffff; stroke-width: 0.75"/>
     <use xlink:href="#m2fdf2709ee" x="122.122327" y="284.727419" style="fill: #4c72b0; stroke: #ffffff; stroke-width: 0.75"/>
     <use xlink:href="#m2fdf2709ee" x="172.873915" y="281.737615" style="fill: #4c72b0; stroke: #ffffff; stroke-width: 0.75"/>
     <use xlink:href="#m2fdf2709ee" x="223.625503" y="278.424647" style="fill: #4c72b0; stroke: #ffffff; stroke-width: 0.75"/>
     <use xlink:href="#m2fdf2709ee" x="274.377091" y="275.581879" style="fill: #4c72b0; stroke: #ffffff; stroke-width: 0.75"/>
     <use xlink:href="#m2fdf2709ee" x="325.12868" y="270.583292" style="fill: #4c72b0; stroke: #ffffff; stroke-width: 0.75"/>
    </g>
   </g>
   <g id="line2d_19">
    <path d="M 72.38577 288.471285 
L 122.122327 272.835296 
L 172.873915 259.717497 
L 223.625503 243.536372 
L 274.377091 222.903379 
L 325.12868 195.945866 
" clip-path="url(#pb2eaa39bc4)" style="fill: none; stroke: #dd8452; stroke-width: 1.5; stroke-linecap: round"/>
    <defs>
     <path id="m2175ecf0fb" d="M -1.5 3 
L 0 1.5 
L 1.5 3 
L 3 1.5 
L 1.5 0 
L 3 -1.5 
L 1.5 -3 
L 0 -1.5 
L -1.5 -3 
L -3 -1.5 
L -1.5 0 
L -3 1.5 
z
" style="stroke: #ffffff; stroke-width: 0.75; stroke-linejoin: miter"/>
    </defs>
    <g clip-path="url(#pb2eaa39bc4)">
     <use xlink:href="#m2175ecf0fb" x="72.38577" y="288.471285" style="fill: #dd8452; stroke: #ffffff; stroke-width: 0.75; stroke-linejoin: miter"/>
     <use xlink:href="#m2175ecf0fb" x="122.122327" y="272.835296" style="fill: #dd8452; stroke: #ffffff; stroke-width: 0.75; stroke-linejoin: miter"/>
     <use xlink:href="#m2175ecf0fb" x="172.873915" y="259.717497" style="fill: #dd8452; stroke: #ffffff; stroke-width: 0.75; stroke-linejoin: miter"/>
     <use xlink:href="#m2175ecf0fb" x="223.625503" y="243.536372" style="fill: #dd8452; stroke: #ffffff; stroke-width: 0.75; stroke-linejoin: miter"/>
     <use xlink:href="#m2175ecf0fb" x="274.377091" y="222.903379" style="fill: #dd8452; stroke: #ffffff; stroke-width: 0.75; stroke-linejoin: miter"/>
     <use xlink:href="#m2175ecf0fb" x="325.12868" y="195.945866" style="fill: #dd8452; stroke: #ffffff; stroke-width: 0.75; stroke-linejoin: miter"/>
    </g>
   </g>
   <g id="line2d_20">
    <path d="M 72.38577 290.699269 
L 122.122327 287.749366 
L 172.873915 286.365578 
L 223.625503 284.501627 
L 274.377091 283.17803 
L 325.12868 283.119797 
" clip-path="url(#pb2eaa39bc4)" style="fill: none; stroke: #55a868; stroke-width: 1.5; stroke-linecap: round"/>
    <defs>
     <path id="mcbde21d753" d="M -2.12132 -2.12132 
L -2.12132 2.12132 
L 2.12132 2.12132 
L 2.12132 -2.12132 
z
" style="stroke: #ffffff; stroke-width: 0.75; stroke-linejoin: miter"/>
    </defs>
    <g clip-path="url(#pb2eaa39bc4)">
     <use xlink:href="#mcbde21d753" x="72.38577" y="290.699269" style="fill: #55a868; stroke: #ffffff; stroke-width: 0.75; stroke-linejoin: miter"/>
     <use xlink:href="#mcbde21d753" x="122.122327" y="287.749366" style="fill: #55a868; stroke: #ffffff; stroke-width: 0.75; stroke-linejoin: miter"/>
     <use xlink:href="#mcbde21d753" x="172.873915" y="286.365578" style="fill: #55a868; stroke: #ffffff; stroke-width: 0.75; stroke-linejoin: miter"/>
     <use xlink:href="#mcbde21d753" x="223.625503" y="284.501627" style="fill: #55a868; stroke: #ffffff; stroke-width: 0.75; stroke-linejoin: miter"/>
     <use xlink:href="#mcbde21d753" x="274.377091" y="283.17803" style="fill: #55a868; stroke: #ffffff; stroke-width: 0.75; stroke-linejoin: miter"/>
     <use xlink:href="#mcbde21d753" x="325.12868" y="283.119797" style="fill: #55a868; stroke: #ffffff; stroke-width: 0.75; stroke-linejoin: miter"/>
    </g>
   </g>
   <g id="line2d_21">
    <path d="M 72.38577 292.23708 
L 122.122327 291.628995 
L 172.873915 291.225495 
L 223.625503 290.427871 
L 274.377091 290.229104 
L 325.12868 289.897755 
" clip-path="url(#pb2eaa39bc4)" style="fill: none; stroke: #c44e52; stroke-width: 1.5; stroke-linecap: round"/>
    <defs>
     <path id="m9000744753" d="M -1 3 
L 1 3 
L 1 1 
L 3 1 
L 3 -1 
L 1 -1 
L 1 -3 
L -1 -3 
L -1 -1 
L -3 -1 
L -3 1 
L -1 1 
z
" style="stroke: #ffffff; stroke-width: 0.75; stroke-linejoin: miter"/>
    </defs>
    <g clip-path="url(#pb2eaa39bc4)">
     <use xlink:href="#m9000744753" x="72.38577" y="292.23708" style="fill: #c44e52; stroke: #ffffff; stroke-width: 0.75; stroke-linejoin: miter"/>
     <use xlink:href="#m9000744753" x="122.122327" y="291.628995" style="fill: #c44e52; stroke: #ffffff; stroke-width: 0.75; stroke-linejoin: miter"/>
     <use xlink:href="#m9000744753" x="172.873915" y="291.225495" style="fill: #c44e52; stroke: #ffffff; stroke-width: 0.75; stroke-linejoin: miter"/>
     <use xlink:href="#m9000744753" x="223.625503" y="290.427871" style="fill: #c44e52; stroke: #ffffff; stroke-width: 0.75; stroke-linejoin: miter"/>
     <use xlink:href="#m9000744753" x="274.377091" y="290.229104" style="fill: #c44e52; stroke: #ffffff; stroke-width: 0.75; stroke-linejoin: miter"/>
     <use xlink:href="#m9000744753" x="325.12868" y="289.897755" style="fill: #c44e52; stroke: #ffffff; stroke-width: 0.75; stroke-linejoin: miter"/>
    </g>
   </g>
   <g id="line2d_22">
    <path d="M 72.38577 290.051651 
L 122.122327 278.502913 
L 172.873915 261.949012 
L 223.625503 232.710839 
L 274.377091 188.462357 
L 325.12868 116.217637 
" clip-path="url(#pb2eaa39bc4)" style="fill: none; stroke: #8172b3; stroke-width: 1.5; stroke-linecap: round"/>
    <defs>
     <path id="m4a68464d5c" d="M 0 -3 
L -3 -0 
L -0 3 
L 3 0 
z
" style="stroke: #ffffff; stroke-width: 0.75; stroke-linejoin: miter"/>
    </defs>
    <g clip-path="url(#pb2eaa39bc4)">
     <use xlink:href="#m4a68464d5c" x="72.38577" y="290.051651" style="fill: #8172b3; stroke: #ffffff; stroke-width: 0.75; stroke-linejoin: miter"/>
     <use xlink:href="#m4a68464d5c" x="122.122327" y="278.502913" style="fill: #8172b3; stroke: #ffffff; stroke-width: 0.75; stroke-linejoin: miter"/>
     <use xlink:href="#m4a68464d5c" x="172.873915" y="261.949012" style="fill: #8172b3; stroke: #ffffff; stroke-width: 0.75; stroke-linejoin: miter"/>
     <use xlink:href="#m4a68464d5c" x="223.625503" y="232.710839" style="fill: #8172b3; stroke: #ffffff; stroke-width: 0.75; stroke-linejoin: miter"/>
     <use xlink:href="#m4a68464d5c" x="274.377091" y="188.462357" style="fill: #8172b3; stroke: #ffffff; stroke-width: 0.75; stroke-linejoin: miter"/>
     <use xlink:href="#m4a68464d5c" x="325.12868" y="116.217637" style="fill: #8172b3; stroke: #ffffff; stroke-width: 0.75; stroke-linejoin: miter"/>
    </g>
   </g>
   <g id="line2d_23">
    <path d="M 72.38577 287.424523 
L 122.122327 255.777783 
L 172.873915 218.180366 
L 223.625503 170.262373 
L 274.377091 105.492988 
L 325.12868 22.172197 
" clip-path="url(#pb2eaa39bc4)" style="fill: none; stroke: #937860; stroke-width: 1.5; stroke-linecap: round"/>
    <defs>
     <path id="mebe400b250" d="M 0 -3 
L -1.06066 -1.06066 
L -3 -0 
L -1.06066 1.06066 
L -0 3 
L 1.06066 1.06066 
L 3 0 
L 1.06066 -1.06066 
z
" style="stroke: #ffffff; stroke-width: 0.75; stroke-linejoin: bevel"/>
    </defs>
    <g clip-path="url(#pb2eaa39bc4)">
     <use xlink:href="#mebe400b250" x="72.38577" y="287.424523" style="fill: #937860; stroke: #ffffff; stroke-width: 0.75; stroke-linejoin: bevel"/>
     <use xlink:href="#mebe400b250" x="122.122327" y="255.777783" style="fill: #937860; stroke: #ffffff; stroke-width: 0.75; stroke-linejoin: bevel"/>
     <use xlink:href="#mebe400b250" x="172.873915" y="218.180366" style="fill: #937860; stroke: #ffffff; stroke-width: 0.75; stroke-linejoin: bevel"/>
     <use xlink:href="#mebe400b250" x="223.625503" y="170.262373" style="fill: #937860; stroke: #ffffff; stroke-width: 0.75; stroke-linejoin: bevel"/>
     <use xlink:href="#mebe400b250" x="274.377091" y="105.492988" style="fill: #937860; stroke: #ffffff; stroke-width: 0.75; stroke-linejoin: bevel"/>
     <use xlink:href="#mebe400b250" x="325.12868" y="22.172197" style="fill: #937860; stroke: #ffffff; stroke-width: 0.75; stroke-linejoin: bevel"/>
    </g>
   </g>
   <g id="line2d_24"/>
   <g id="line2d_25"/>
   <g id="line2d_26"/>
   <g id="line2d_27"/>
   <g id="line2d_28"/>
   <g id="line2d_29"/>
   <g id="patch_3">
    <path d="M 59.748625 306.18 
L 59.748625 7.2 
" style="fill: none; stroke: #ffffff; stroke-width: 1.25; stroke-linejoin: miter; stroke-linecap: square"/>
   </g>
   <g id="patch_4">
    <path d="M 59.748625 306.18 
L 337.765825 306.18 
" style="fill: none; stroke: #ffffff; stroke-width: 1.25; stroke-linejoin: miter; stroke-linecap: square"/>
   </g>
  </g>
  <g id="legend_1">
   <g id="line2d_30">
    <path d="M 357.404687 133.390312 
L 368.404687 133.390312 
L 379.404687 133.390312 
" style="fill: none; stroke: #4c72b0; stroke-width: 1.5; stroke-linecap: round"/>
    <defs>
     <path id="mebd0f06a8e" d="M 0 3 
C 0.795609 3 1.55874 2.683901 2.12132 2.12132 
C 2.683901 1.55874 3 0.795609 3 0 
C 3 -0.795609 2.683901 -1.55874 2.12132 -2.12132 
C 1.55874 -2.683901 0.795609 -3 0 -3 
C -0.795609 -3 -1.55874 -2.683901 -2.12132 -2.12132 
C -2.683901 -1.55874 -3 -0.795609 -3 0 
C -3 0.795609 -2.683901 1.55874 -2.12132 2.12132 
C -1.55874 2.683901 -0.795609 3 0 3 
z
" style="stroke: #4c72b0"/>
    </defs>
    <g>
     <use xlink:href="#mebd0f06a8e" x="368.404687" y="133.390312" style="fill: #4c72b0; stroke: #4c72b0"/>
    </g>
   </g>
   <g id="text_20">
    <!-- record4s % -->
    <g style="fill: #262626" transform="translate(388.204687 137.240312) scale(0.11 -0.11)">
     <defs>
      <path id="DejaVuSans-25" d="M 4653 2053 
Q 4381 2053 4226 1822 
Q 4072 1591 4072 1178 
Q 4072 772 4226 539 
Q 4381 306 4653 306 
Q 4919 306 5073 539 
Q 5228 772 5228 1178 
Q 5228 1588 5073 1820 
Q 4919 2053 4653 2053 
z
M 4653 2450 
Q 5147 2450 5437 2106 
Q 5728 1763 5728 1178 
Q 5728 594 5436 251 
Q 5144 -91 4653 -91 
Q 4153 -91 3862 251 
Q 3572 594 3572 1178 
Q 3572 1766 3864 2108 
Q 4156 2450 4653 2450 
z
M 1428 4353 
Q 1159 4353 1004 4120 
Q 850 3888 850 3481 
Q 850 3069 1003 2837 
Q 1156 2606 1428 2606 
Q 1700 2606 1854 2837 
Q 2009 3069 2009 3481 
Q 2009 3884 1853 4118 
Q 1697 4353 1428 4353 
z
M 4250 4750 
L 4750 4750 
L 1831 -91 
L 1331 -91 
L 4250 4750 
z
M 1428 4750 
Q 1922 4750 2215 4408 
Q 2509 4066 2509 3481 
Q 2509 2891 2217 2550 
Q 1925 2209 1428 2209 
Q 931 2209 642 2551 
Q 353 2894 353 3481 
Q 353 4063 643 4406 
Q 934 4750 1428 4750 
z
" transform="scale(0.015625)"/>
     </defs>
     <use xlink:href="#DejaVuSans-72"/>
     <use xlink:href="#DejaVuSans-65" x="38.863281"/>
     <use xlink:href="#DejaVuSans-63" x="100.386719"/>
     <use xlink:href="#DejaVuSans-6f" x="155.367188"/>
     <use xlink:href="#DejaVuSans-72" x="216.548828"/>
     <use xlink:href="#DejaVuSans-64" x="255.912109"/>
     <use xlink:href="#DejaVuSans-34" x="319.388672"/>
     <use xlink:href="#DejaVuSans-73" x="383.011719"/>
     <use xlink:href="#DejaVuSans-20" x="435.111328"/>
     <use xlink:href="#DejaVuSans-25" x="466.898438"/>
    </g>
   </g>
   <g id="line2d_31">
    <path d="M 357.404687 149.53625 
L 368.404687 149.53625 
L 379.404687 149.53625 
" style="fill: none; stroke: #dd8452; stroke-width: 1.5; stroke-linecap: round"/>
    <defs>
     <path id="ma3b561d059" d="M -1.5 3 
L 0 1.5 
L 1.5 3 
L 3 1.5 
L 1.5 0 
L 3 -1.5 
L 1.5 -3 
L 0 -1.5 
L -1.5 -3 
L -3 -1.5 
L -1.5 0 
L -3 1.5 
z
" style="stroke: #dd8452; stroke-linejoin: miter"/>
    </defs>
    <g>
     <use xlink:href="#ma3b561d059" x="368.404687" y="149.53625" style="fill: #dd8452; stroke: #dd8452; stroke-linejoin: miter"/>
    </g>
   </g>
   <g id="text_21">
    <!-- record4s ArrayRecord -->
    <g style="fill: #262626" transform="translate(388.204687 153.38625) scale(0.11 -0.11)">
     <defs>
      <path id="DejaVuSans-41" d="M 2188 4044 
L 1331 1722 
L 3047 1722 
L 2188 4044 
z
M 1831 4666 
L 2547 4666 
L 4325 0 
L 3669 0 
L 3244 1197 
L 1141 1197 
L 716 0 
L 50 0 
L 1831 4666 
z
" transform="scale(0.015625)"/>
      <path id="DejaVuSans-79" d="M 2059 -325 
Q 1816 -950 1584 -1140 
Q 1353 -1331 966 -1331 
L 506 -1331 
L 506 -850 
L 844 -850 
Q 1081 -850 1212 -737 
Q 1344 -625 1503 -206 
L 1606 56 
L 191 3500 
L 800 3500 
L 1894 763 
L 2988 3500 
L 3597 3500 
L 2059 -325 
z
" transform="scale(0.015625)"/>
     </defs>
     <use xlink:href="#DejaVuSans-72"/>
     <use xlink:href="#DejaVuSans-65" x="38.863281"/>
     <use xlink:href="#DejaVuSans-63" x="100.386719"/>
     <use xlink:href="#DejaVuSans-6f" x="155.367188"/>
     <use xlink:href="#DejaVuSans-72" x="216.548828"/>
     <use xlink:href="#DejaVuSans-64" x="255.912109"/>
     <use xlink:href="#DejaVuSans-34" x="319.388672"/>
     <use xlink:href="#DejaVuSans-73" x="383.011719"/>
     <use xlink:href="#DejaVuSans-20" x="435.111328"/>
     <use xlink:href="#DejaVuSans-41" x="466.898438"/>
     <use xlink:href="#DejaVuSans-72" x="535.306641"/>
     <use xlink:href="#DejaVuSans-72" x="574.669922"/>
     <use xlink:href="#DejaVuSans-61" x="615.783203"/>
     <use xlink:href="#DejaVuSans-79" x="677.0625"/>
     <use xlink:href="#DejaVuSans-52" x="736.242188"/>
     <use xlink:href="#DejaVuSans-65" x="801.224609"/>
     <use xlink:href="#DejaVuSans-63" x="862.748047"/>
     <use xlink:href="#DejaVuSans-6f" x="917.728516"/>
     <use xlink:href="#DejaVuSans-72" x="978.910156"/>
     <use xlink:href="#DejaVuSans-64" x="1018.273438"/>
    </g>
   </g>
   <g id="line2d_32">
    <path d="M 357.404687 165.682187 
L 368.404687 165.682187 
L 379.404687 165.682187 
" style="fill: none; stroke: #55a868; stroke-width: 1.5; stroke-linecap: round"/>
    <defs>
     <path id="m85bcbe5517" d="M -2.12132 -2.12132 
L -2.12132 2.12132 
L 2.12132 2.12132 
L 2.12132 -2.12132 
z
" style="stroke: #55a868; stroke-linejoin: miter"/>
    </defs>
    <g>
     <use xlink:href="#m85bcbe5517" x="368.404687" y="165.682187" style="fill: #55a868; stroke: #55a868; stroke-linejoin: miter"/>
    </g>
   </g>
   <g id="text_22">
    <!-- Scala 3 Map -->
    <g style="fill: #262626" transform="translate(388.204687 169.532187) scale(0.11 -0.11)">
     <defs>
      <path id="DejaVuSans-53" d="M 3425 4513 
L 3425 3897 
Q 3066 4069 2747 4153 
Q 2428 4238 2131 4238 
Q 1616 4238 1336 4038 
Q 1056 3838 1056 3469 
Q 1056 3159 1242 3001 
Q 1428 2844 1947 2747 
L 2328 2669 
Q 3034 2534 3370 2195 
Q 3706 1856 3706 1288 
Q 3706 609 3251 259 
Q 2797 -91 1919 -91 
Q 1588 -91 1214 -16 
Q 841 59 441 206 
L 441 856 
Q 825 641 1194 531 
Q 1563 422 1919 422 
Q 2459 422 2753 634 
Q 3047 847 3047 1241 
Q 3047 1584 2836 1778 
Q 2625 1972 2144 2069 
L 1759 2144 
Q 1053 2284 737 2584 
Q 422 2884 422 3419 
Q 422 4038 858 4394 
Q 1294 4750 2059 4750 
Q 2388 4750 2728 4690 
Q 3069 4631 3425 4513 
z
" transform="scale(0.015625)"/>
      <path id="DejaVuSans-4d" d="M 628 4666 
L 1569 4666 
L 2759 1491 
L 3956 4666 
L 4897 4666 
L 4897 0 
L 4281 0 
L 4281 4097 
L 3078 897 
L 2444 897 
L 1241 4097 
L 1241 0 
L 628 0 
L 628 4666 
z
" transform="scale(0.015625)"/>
     </defs>
     <use xlink:href="#DejaVuSans-53"/>
     <use xlink:href="#DejaVuSans-63" x="63.476562"/>
     <use xlink:href="#DejaVuSans-61" x="118.457031"/>
     <use xlink:href="#DejaVuSans-6c" x="179.736328"/>
     <use xlink:href="#DejaVuSans-61" x="207.519531"/>
     <use xlink:href="#DejaVuSans-20" x="268.798828"/>
     <use xlink:href="#DejaVuSans-33" x="300.585938"/>
     <use xlink:href="#DejaVuSans-20" x="364.208984"/>
     <use xlink:href="#DejaVuSans-4d" x="395.996094"/>
     <use xlink:href="#DejaVuSans-61" x="482.275391"/>
     <use xlink:href="#DejaVuSans-70" x="543.554688"/>
    </g>
   </g>
   <g id="line2d_33">
    <path d="M 357.404687 181.828125 
L 368.404687 181.828125 
L 379.404687 181.828125 
" style="fill: none; stroke: #c44e52; stroke-width: 1.5; stroke-linecap: round"/>
    <defs>
     <path id="m33db9deac7" d="M -1 3 
L 1 3 
L 1 1 
L 3 1 
L 3 -1 
L 1 -1 
L 1 -3 
L -1 -3 
L -1 -1 
L -3 -1 
L -3 1 
L -1 1 
z
" style="stroke: #c44e52; stroke-linejoin: miter"/>
    </defs>
    <g>
     <use xlink:href="#m33db9deac7" x="368.404687" y="181.828125" style="fill: #c44e52; stroke: #c44e52; stroke-linejoin: miter"/>
    </g>
   </g>
   <g id="text_23">
    <!-- Scala 3 case class -->
    <g style="fill: #262626" transform="translate(388.204687 185.678125) scale(0.11 -0.11)">
     <use xlink:href="#DejaVuSans-53"/>
     <use xlink:href="#DejaVuSans-63" x="63.476562"/>
     <use xlink:href="#DejaVuSans-61" x="118.457031"/>
     <use xlink:href="#DejaVuSans-6c" x="179.736328"/>
     <use xlink:href="#DejaVuSans-61" x="207.519531"/>
     <use xlink:href="#DejaVuSans-20" x="268.798828"/>
     <use xlink:href="#DejaVuSans-33" x="300.585938"/>
     <use xlink:href="#DejaVuSans-20" x="364.208984"/>
     <use xlink:href="#DejaVuSans-63" x="395.996094"/>
     <use xlink:href="#DejaVuSans-61" x="450.976562"/>
     <use xlink:href="#DejaVuSans-73" x="512.255859"/>
     <use xlink:href="#DejaVuSans-65" x="564.355469"/>
     <use xlink:href="#DejaVuSans-20" x="625.878906"/>
     <use xlink:href="#DejaVuSans-63" x="657.666016"/>
     <use xlink:href="#DejaVuSans-6c" x="712.646484"/>
     <use xlink:href="#DejaVuSans-61" x="740.429688"/>
     <use xlink:href="#DejaVuSans-73" x="801.708984"/>
     <use xlink:href="#DejaVuSans-73" x="853.808594"/>
    </g>
   </g>
   <g id="line2d_34">
    <path d="M 357.404687 197.974062 
L 368.404687 197.974062 
L 379.404687 197.974062 
" style="fill: none; stroke: #8172b3; stroke-width: 1.5; stroke-linecap: round"/>
    <defs>
     <path id="maaad097bb1" d="M 0 -3 
L -3 -0 
L -0 3 
L 3 0 
z
" style="stroke: #8172b3; stroke-linejoin: miter"/>
    </defs>
    <g>
     <use xlink:href="#maaad097bb1" x="368.404687" y="197.974062" style="fill: #8172b3; stroke: #8172b3; stroke-linejoin: miter"/>
    </g>
   </g>
   <g id="text_24">
    <!-- shapeless Record -->
    <g style="fill: #262626" transform="translate(388.204687 201.824062) scale(0.11 -0.11)">
     <defs>
      <path id="DejaVuSans-68" d="M 3513 2113 
L 3513 0 
L 2938 0 
L 2938 2094 
Q 2938 2591 2744 2837 
Q 2550 3084 2163 3084 
Q 1697 3084 1428 2787 
Q 1159 2491 1159 1978 
L 1159 0 
L 581 0 
L 581 4863 
L 1159 4863 
L 1159 2956 
Q 1366 3272 1645 3428 
Q 1925 3584 2291 3584 
Q 2894 3584 3203 3211 
Q 3513 2838 3513 2113 
z
" transform="scale(0.015625)"/>
     </defs>
     <use xlink:href="#DejaVuSans-73"/>
     <use xlink:href="#DejaVuSans-68" x="52.099609"/>
     <use xlink:href="#DejaVuSans-61" x="115.478516"/>
     <use xlink:href="#DejaVuSans-70" x="176.757812"/>
     <use xlink:href="#DejaVuSans-65" x="240.234375"/>
     <use xlink:href="#DejaVuSans-6c" x="301.757812"/>
     <use xlink:href="#DejaVuSans-65" x="329.541016"/>
     <use xlink:href="#DejaVuSans-73" x="391.064453"/>
     <use xlink:href="#DejaVuSans-73" x="443.164062"/>
     <use xlink:href="#DejaVuSans-20" x="495.263672"/>
     <use xlink:href="#DejaVuSans-52" x="527.050781"/>
     <use xlink:href="#DejaVuSans-65" x="592.033203"/>
     <use xlink:href="#DejaVuSans-63" x="653.556641"/>
     <use xlink:href="#DejaVuSans-6f" x="708.537109"/>
     <use xlink:href="#DejaVuSans-72" x="769.71875"/>
     <use xlink:href="#DejaVuSans-64" x="809.082031"/>
    </g>
   </g>
   <g id="line2d_35">
    <path d="M 357.404687 214.12 
L 368.404687 214.12 
L 379.404687 214.12 
" style="fill: none; stroke: #937860; stroke-width: 1.5; stroke-linecap: round"/>
    <defs>
     <path id="m11dae0971d" d="M 0 -3 
L -1.06066 -1.06066 
L -3 -0 
L -1.06066 1.06066 
L -0 3 
L 1.06066 1.06066 
L 3 0 
L 1.06066 -1.06066 
z
" style="stroke: #937860; stroke-linejoin: bevel"/>
    </defs>
    <g>
     <use xlink:href="#m11dae0971d" x="368.404687" y="214.12" style="fill: #937860; stroke: #937860; stroke-linejoin: bevel"/>
    </g>
   </g>
   <g id="text_25">
    <!-- scala-records Rec -->
    <g style="fill: #262626" transform="translate(388.204687 217.97) scale(0.11 -0.11)">
     <defs>
      <path id="DejaVuSans-2d" d="M 313 2009 
L 1997 2009 
L 1997 1497 
L 313 1497 
L 313 2009 
z
" transform="scale(0.015625)"/>
     </defs>
     <use xlink:href="#DejaVuSans-73"/>
     <use xlink:href="#DejaVuSans-63" x="52.099609"/>
     <use xlink:href="#DejaVuSans-61" x="107.080078"/>
     <use xlink:href="#DejaVuSans-6c" x="168.359375"/>
     <use xlink:href="#DejaVuSans-61" x="196.142578"/>
     <use xlink:href="#DejaVuSans-2d" x="257.421875"/>
     <use xlink:href="#DejaVuSans-72" x="293.505859"/>
     <use xlink:href="#DejaVuSans-65" x="332.369141"/>
     <use xlink:href="#DejaVuSans-63" x="393.892578"/>
     <use xlink:href="#DejaVuSans-6f" x="448.873047"/>
     <use xlink:href="#DejaVuSans-72" x="510.054688"/>
     <use xlink:href="#DejaVuSans-64" x="549.417969"/>
     <use xlink:href="#DejaVuSans-73" x="612.894531"/>
     <use xlink:href="#DejaVuSans-20" x="664.994141"/>
     <use xlink:href="#DejaVuSans-52" x="696.78125"/>
     <use xlink:href="#DejaVuSans-65" x="761.763672"/>
     <use xlink:href="#DejaVuSans-63" x="823.287109"/>
    </g>
   </g>
  </g>
 </g>
 <defs>
  <clipPath id="pb2eaa39bc4">
   <rect x="59.748625" y="7.2" width="278.0172" height="298.98"/>
  </clipPath>
 </defs>
</svg>
