<?xml version="1.0" encoding="utf-8" standalone="no"?>
<!DOCTYPE svg PUBLIC "-//W3C//DTD SVG 1.1//EN"
  "http://www.w3.org/Graphics/SVG/1.1/DTD/svg11.dtd">
<svg xmlns:xlink="http://www.w3.org/1999/xlink" width="516.14875pt" height="348.998828pt" viewBox="0 0 516.14875 348.998828" xmlns="http://www.w3.org/2000/svg" version="1.1">
 <metadata>
  <rdf:RDF xmlns:dc="http://purl.org/dc/elements/1.1/" xmlns:cc="http://creativecommons.org/ns#" xmlns:rdf="http://www.w3.org/1999/02/22-rdf-syntax-ns#">
   <cc:Work>
    <dc:type rdf:resource="http://purl.org/dc/dcmitype/StillImage"/>
    <dc:date>2024-01-12T14:29:52.783065</dc:date>
    <dc:format>image/svg+xml</dc:format>
    <dc:creator>
     <cc:Agent>
      <dc:title>Matplotlib v3.7.2, https://matplotlib.org/</dc:title>
     </cc:Agent>
    </dc:creator>
   </cc:Work>
  </rdf:RDF>
 </metadata>
 <defs>
  <style type="text/css">*{stroke-linejoin: round; stroke-linecap: butt}</style>
 </defs>
 <g id="figure_1">
  <g id="patch_1">
   <path d="M 0 348.998828 
L 516.14875 348.998828 
L 516.14875 0 
L 0 0 
z
" style="fill: #ffffff"/>
  </g>
  <g id="axes_1">
   <g id="patch_2">
    <path d="M 60.30875 306.039141 
L 336.81395 306.039141 
L 336.81395 11.379141 
L 60.30875 11.379141 
z
" style="fill: #eaeaf2"/>
   </g>
   <g id="matplotlib.axis_1">
    <g id="xtick_1">
     <g id="line2d_1">
      <path d="M 71.825418 306.039141 
L 71.825418 11.379141 
" clip-path="url(#pde60dc1a53)" style="fill: none; stroke: #ffffff; stroke-linecap: round"/>
     </g>
     <g id="text_1">
      <!-- 0 -->
      <g style="fill: #262626" transform="translate(68.326043 323.897422) scale(0.11 -0.11)">
       <defs>
        <path id="DejaVuSans-30" d="M 2034 4250 
Q 1547 4250 1301 3770 
Q 1056 3291 1056 2328 
Q 1056 1369 1301 889 
Q 1547 409 2034 409 
Q 2525 409 2770 889 
Q 3016 1369 3016 2328 
Q 3016 3291 2770 3770 
Q 2525 4250 2034 4250 
z
M 2034 4750 
Q 2819 4750 3233 4129 
Q 3647 3509 3647 2328 
Q 3647 1150 3233 529 
Q 2819 -91 2034 -91 
Q 1250 -91 836 529 
Q 422 1150 422 2328 
Q 422 3509 836 4129 
Q 1250 4750 2034 4750 
z
" transform="scale(0.015625)"/>
       </defs>
       <use xlink:href="#DejaVuSans-30"/>
      </g>
     </g>
    </g>
    <g id="xtick_2">
     <g id="line2d_2">
      <path d="M 124.412941 306.039141 
L 124.412941 11.379141 
" clip-path="url(#pde60dc1a53)" style="fill: none; stroke: #ffffff; stroke-linecap: round"/>
     </g>
     <g id="text_2">
      <!-- 50 -->
      <g style="fill: #262626" transform="translate(117.414191 323.897422) scale(0.11 -0.11)">
       <defs>
        <path id="DejaVuSans-35" d="M 691 4666 
L 3169 4666 
L 3169 4134 
L 1269 4134 
L 1269 2991 
Q 1406 3038 1543 3061 
Q 1681 3084 1819 3084 
Q 2600 3084 3056 2656 
Q 3513 2228 3513 1497 
Q 3513 744 3044 326 
Q 2575 -91 1722 -91 
Q 1428 -91 1123 -41 
Q 819 9 494 109 
L 494 744 
Q 775 591 1075 516 
Q 1375 441 1709 441 
Q 2250 441 2565 725 
Q 2881 1009 2881 1497 
Q 2881 1984 2565 2268 
Q 2250 2553 1709 2553 
Q 1456 2553 1204 2497 
Q 953 2441 691 2322 
L 691 4666 
z
" transform="scale(0.015625)"/>
       </defs>
       <use xlink:href="#DejaVuSans-35"/>
       <use xlink:href="#DejaVuSans-30" x="63.623047"/>
      </g>
     </g>
    </g>
    <g id="xtick_3">
     <g id="line2d_3">
      <path d="M 177.000465 306.039141 
L 177.000465 11.379141 
" clip-path="url(#pde60dc1a53)" style="fill: none; stroke: #ffffff; stroke-linecap: round"/>
     </g>
     <g id="text_3">
      <!-- 100 -->
      <g style="fill: #262626" transform="translate(166.50234 323.897422) scale(0.11 -0.11)">
       <defs>
        <path id="DejaVuSans-31" d="M 794 531 
L 1825 531 
L 1825 4091 
L 703 3866 
L 703 4441 
L 1819 4666 
L 2450 4666 
L 2450 531 
L 3481 531 
L 3481 0 
L 794 0 
L 794 531 
z
" transform="scale(0.015625)"/>
       </defs>
       <use xlink:href="#DejaVuSans-31"/>
       <use xlink:href="#DejaVuSans-30" x="63.623047"/>
       <use xlink:href="#DejaVuSans-30" x="127.246094"/>
      </g>
     </g>
    </g>
    <g id="xtick_4">
     <g id="line2d_4">
      <path d="M 229.587989 306.039141 
L 229.587989 11.379141 
" clip-path="url(#pde60dc1a53)" style="fill: none; stroke: #ffffff; stroke-linecap: round"/>
     </g>
     <g id="text_4">
      <!-- 150 -->
      <g style="fill: #262626" transform="translate(219.089864 323.897422) scale(0.11 -0.11)">
       <use xlink:href="#DejaVuSans-31"/>
       <use xlink:href="#DejaVuSans-35" x="63.623047"/>
       <use xlink:href="#DejaVuSans-30" x="127.246094"/>
      </g>
     </g>
    </g>
    <g id="xtick_5">
     <g id="line2d_5">
      <path d="M 282.175513 306.039141 
L 282.175513 11.379141 
" clip-path="url(#pde60dc1a53)" style="fill: none; stroke: #ffffff; stroke-linecap: round"/>
     </g>
     <g id="text_5">
      <!-- 200 -->
      <g style="fill: #262626" transform="translate(271.677388 323.897422) scale(0.11 -0.11)">
       <defs>
        <path id="DejaVuSans-32" d="M 1228 531 
L 3431 531 
L 3431 0 
L 469 0 
L 469 531 
Q 828 903 1448 1529 
Q 2069 2156 2228 2338 
Q 2531 2678 2651 2914 
Q 2772 3150 2772 3378 
Q 2772 3750 2511 3984 
Q 2250 4219 1831 4219 
Q 1534 4219 1204 4116 
Q 875 4013 500 3803 
L 500 4441 
Q 881 4594 1212 4672 
Q 1544 4750 1819 4750 
Q 2544 4750 2975 4387 
Q 3406 4025 3406 3419 
Q 3406 3131 3298 2873 
Q 3191 2616 2906 2266 
Q 2828 2175 2409 1742 
Q 1991 1309 1228 531 
z
" transform="scale(0.015625)"/>
       </defs>
       <use xlink:href="#DejaVuSans-32"/>
       <use xlink:href="#DejaVuSans-30" x="63.623047"/>
       <use xlink:href="#DejaVuSans-30" x="127.246094"/>
      </g>
     </g>
    </g>
    <g id="text_6">
     <!-- Record size -->
     <g style="fill: #262626" transform="translate(164.289163 339.303203) scale(0.12 -0.12)">
      <defs>
       <path id="DejaVuSans-52" d="M 2841 2188 
Q 3044 2119 3236 1894 
Q 3428 1669 3622 1275 
L 4263 0 
L 3584 0 
L 2988 1197 
Q 2756 1666 2539 1819 
Q 2322 1972 1947 1972 
L 1259 1972 
L 1259 0 
L 628 0 
L 628 4666 
L 2053 4666 
Q 2853 4666 3247 4331 
Q 3641 3997 3641 3322 
Q 3641 2881 3436 2590 
Q 3231 2300 2841 2188 
z
M 1259 4147 
L 1259 2491 
L 2053 2491 
Q 2509 2491 2742 2702 
Q 2975 2913 2975 3322 
Q 2975 3731 2742 3939 
Q 2509 4147 2053 4147 
L 1259 4147 
z
" transform="scale(0.015625)"/>
       <path id="DejaVuSans-65" d="M 3597 1894 
L 3597 1613 
L 953 1613 
Q 991 1019 1311 708 
Q 1631 397 2203 397 
Q 2534 397 2845 478 
Q 3156 559 3463 722 
L 3463 178 
Q 3153 47 2828 -22 
Q 2503 -91 2169 -91 
Q 1331 -91 842 396 
Q 353 884 353 1716 
Q 353 2575 817 3079 
Q 1281 3584 2069 3584 
Q 2775 3584 3186 3129 
Q 3597 2675 3597 1894 
z
M 3022 2063 
Q 3016 2534 2758 2815 
Q 2500 3097 2075 3097 
Q 1594 3097 1305 2825 
Q 1016 2553 972 2059 
L 3022 2063 
z
" transform="scale(0.015625)"/>
       <path id="DejaVuSans-63" d="M 3122 3366 
L 3122 2828 
Q 2878 2963 2633 3030 
Q 2388 3097 2138 3097 
Q 1578 3097 1268 2742 
Q 959 2388 959 1747 
Q 959 1106 1268 751 
Q 1578 397 2138 397 
Q 2388 397 2633 464 
Q 2878 531 3122 666 
L 3122 134 
Q 2881 22 2623 -34 
Q 2366 -91 2075 -91 
Q 1284 -91 818 406 
Q 353 903 353 1747 
Q 353 2603 823 3093 
Q 1294 3584 2113 3584 
Q 2378 3584 2631 3529 
Q 2884 3475 3122 3366 
z
" transform="scale(0.015625)"/>
       <path id="DejaVuSans-6f" d="M 1959 3097 
Q 1497 3097 1228 2736 
Q 959 2375 959 1747 
Q 959 1119 1226 758 
Q 1494 397 1959 397 
Q 2419 397 2687 759 
Q 2956 1122 2956 1747 
Q 2956 2369 2687 2733 
Q 2419 3097 1959 3097 
z
M 1959 3584 
Q 2709 3584 3137 3096 
Q 3566 2609 3566 1747 
Q 3566 888 3137 398 
Q 2709 -91 1959 -91 
Q 1206 -91 779 398 
Q 353 888 353 1747 
Q 353 2609 779 3096 
Q 1206 3584 1959 3584 
z
" transform="scale(0.015625)"/>
       <path id="DejaVuSans-72" d="M 2631 2963 
Q 2534 3019 2420 3045 
Q 2306 3072 2169 3072 
Q 1681 3072 1420 2755 
Q 1159 2438 1159 1844 
L 1159 0 
L 581 0 
L 581 3500 
L 1159 3500 
L 1159 2956 
Q 1341 3275 1631 3429 
Q 1922 3584 2338 3584 
Q 2397 3584 2469 3576 
Q 2541 3569 2628 3553 
L 2631 2963 
z
" transform="scale(0.015625)"/>
       <path id="DejaVuSans-64" d="M 2906 2969 
L 2906 4863 
L 3481 4863 
L 3481 0 
L 2906 0 
L 2906 525 
Q 2725 213 2448 61 
Q 2172 -91 1784 -91 
Q 1150 -91 751 415 
Q 353 922 353 1747 
Q 353 2572 751 3078 
Q 1150 3584 1784 3584 
Q 2172 3584 2448 3432 
Q 2725 3281 2906 2969 
z
M 947 1747 
Q 947 1113 1208 752 
Q 1469 391 1925 391 
Q 2381 391 2643 752 
Q 2906 1113 2906 1747 
Q 2906 2381 2643 2742 
Q 2381 3103 1925 3103 
Q 1469 3103 1208 2742 
Q 947 2381 947 1747 
z
" transform="scale(0.015625)"/>
       <path id="DejaVuSans-20" transform="scale(0.015625)"/>
       <path id="DejaVuSans-73" d="M 2834 3397 
L 2834 2853 
Q 2591 2978 2328 3040 
Q 2066 3103 1784 3103 
Q 1356 3103 1142 2972 
Q 928 2841 928 2578 
Q 928 2378 1081 2264 
Q 1234 2150 1697 2047 
L 1894 2003 
Q 2506 1872 2764 1633 
Q 3022 1394 3022 966 
Q 3022 478 2636 193 
Q 2250 -91 1575 -91 
Q 1294 -91 989 -36 
Q 684 19 347 128 
L 347 722 
Q 666 556 975 473 
Q 1284 391 1588 391 
Q 1994 391 2212 530 
Q 2431 669 2431 922 
Q 2431 1156 2273 1281 
Q 2116 1406 1581 1522 
L 1381 1569 
Q 847 1681 609 1914 
Q 372 2147 372 2553 
Q 372 3047 722 3315 
Q 1072 3584 1716 3584 
Q 2034 3584 2315 3537 
Q 2597 3491 2834 3397 
z
" transform="scale(0.015625)"/>
       <path id="DejaVuSans-69" d="M 603 3500 
L 1178 3500 
L 1178 0 
L 603 0 
L 603 3500 
z
M 603 4863 
L 1178 4863 
L 1178 4134 
L 603 4134 
L 603 4863 
z
" transform="scale(0.015625)"/>
       <path id="DejaVuSans-7a" d="M 353 3500 
L 3084 3500 
L 3084 2975 
L 922 459 
L 3084 459 
L 3084 0 
L 275 0 
L 275 525 
L 2438 3041 
L 353 3041 
L 353 3500 
z
" transform="scale(0.015625)"/>
      </defs>
      <use xlink:href="#DejaVuSans-52"/>
      <use xlink:href="#DejaVuSans-65" x="64.982422"/>
      <use xlink:href="#DejaVuSans-63" x="126.505859"/>
      <use xlink:href="#DejaVuSans-6f" x="181.486328"/>
      <use xlink:href="#DejaVuSans-72" x="242.667969"/>
      <use xlink:href="#DejaVuSans-64" x="282.03125"/>
      <use xlink:href="#DejaVuSans-20" x="345.507812"/>
      <use xlink:href="#DejaVuSans-73" x="377.294922"/>
      <use xlink:href="#DejaVuSans-69" x="429.394531"/>
      <use xlink:href="#DejaVuSans-7a" x="457.177734"/>
      <use xlink:href="#DejaVuSans-65" x="509.667969"/>
     </g>
    </g>
   </g>
   <g id="matplotlib.axis_2">
    <g id="ytick_1">
     <g id="line2d_6">
      <path d="M 60.30875 294.035183 
L 336.81395 294.035183 
" clip-path="url(#pde60dc1a53)" style="fill: none; stroke: #ffffff; stroke-linecap: round"/>
     </g>
     <g id="text_7">
      <!-- 0 -->
      <g style="fill: #262626" transform="translate(43.81 298.214324) scale(0.11 -0.11)">
       <use xlink:href="#DejaVuSans-30"/>
      </g>
     </g>
    </g>
    <g id="ytick_2">
     <g id="line2d_7">
      <path d="M 60.30875 246.925843 
L 336.81395 246.925843 
" clip-path="url(#pde60dc1a53)" style="fill: none; stroke: #ffffff; stroke-linecap: round"/>
     </g>
     <g id="text_8">
      <!-- 500 -->
      <g style="fill: #262626" transform="translate(29.8125 251.104983) scale(0.11 -0.11)">
       <use xlink:href="#DejaVuSans-35"/>
       <use xlink:href="#DejaVuSans-30" x="63.623047"/>
       <use xlink:href="#DejaVuSans-30" x="127.246094"/>
      </g>
     </g>
    </g>
    <g id="ytick_3">
     <g id="line2d_8">
      <path d="M 60.30875 199.816502 
L 336.81395 199.816502 
" clip-path="url(#pde60dc1a53)" style="fill: none; stroke: #ffffff; stroke-linecap: round"/>
     </g>
     <g id="text_9">
      <!-- 1000 -->
      <g style="fill: #262626" transform="translate(22.81375 203.995643) scale(0.11 -0.11)">
       <use xlink:href="#DejaVuSans-31"/>
       <use xlink:href="#DejaVuSans-30" x="63.623047"/>
       <use xlink:href="#DejaVuSans-30" x="127.246094"/>
       <use xlink:href="#DejaVuSans-30" x="190.869141"/>
      </g>
     </g>
    </g>
    <g id="ytick_4">
     <g id="line2d_9">
      <path d="M 60.30875 152.707162 
L 336.81395 152.707162 
" clip-path="url(#pde60dc1a53)" style="fill: none; stroke: #ffffff; stroke-linecap: round"/>
     </g>
     <g id="text_10">
      <!-- 1500 -->
      <g style="fill: #262626" transform="translate(22.81375 156.886303) scale(0.11 -0.11)">
       <use xlink:href="#DejaVuSans-31"/>
       <use xlink:href="#DejaVuSans-35" x="63.623047"/>
       <use xlink:href="#DejaVuSans-30" x="127.246094"/>
       <use xlink:href="#DejaVuSans-30" x="190.869141"/>
      </g>
     </g>
    </g>
    <g id="ytick_5">
     <g id="line2d_10">
      <path d="M 60.30875 105.597821 
L 336.81395 105.597821 
" clip-path="url(#pde60dc1a53)" style="fill: none; stroke: #ffffff; stroke-linecap: round"/>
     </g>
     <g id="text_11">
      <!-- 2000 -->
      <g style="fill: #262626" transform="translate(22.81375 109.776962) scale(0.11 -0.11)">
       <use xlink:href="#DejaVuSans-32"/>
       <use xlink:href="#DejaVuSans-30" x="63.623047"/>
       <use xlink:href="#DejaVuSans-30" x="127.246094"/>
       <use xlink:href="#DejaVuSans-30" x="190.869141"/>
      </g>
     </g>
    </g>
    <g id="ytick_6">
     <g id="line2d_11">
      <path d="M 60.30875 58.488481 
L 336.81395 58.488481 
" clip-path="url(#pde60dc1a53)" style="fill: none; stroke: #ffffff; stroke-linecap: round"/>
     </g>
     <g id="text_12">
      <!-- 2500 -->
      <g style="fill: #262626" transform="translate(22.81375 62.667622) scale(0.11 -0.11)">
       <use xlink:href="#DejaVuSans-32"/>
       <use xlink:href="#DejaVuSans-35" x="63.623047"/>
       <use xlink:href="#DejaVuSans-30" x="127.246094"/>
       <use xlink:href="#DejaVuSans-30" x="190.869141"/>
      </g>
     </g>
    </g>
    <g id="ytick_7">
     <g id="line2d_12">
      <path d="M 60.30875 11.379141 
L 336.81395 11.379141 
" clip-path="url(#pde60dc1a53)" style="fill: none; stroke: #ffffff; stroke-linecap: round"/>
     </g>
     <g id="text_13">
      <!-- 3000 -->
      <g style="fill: #262626" transform="translate(22.81375 15.558281) scale(0.11 -0.11)">
       <defs>
        <path id="DejaVuSans-33" d="M 2597 2516 
Q 3050 2419 3304 2112 
Q 3559 1806 3559 1356 
Q 3559 666 3084 287 
Q 2609 -91 1734 -91 
Q 1441 -91 1130 -33 
Q 819 25 488 141 
L 488 750 
Q 750 597 1062 519 
Q 1375 441 1716 441 
Q 2309 441 2620 675 
Q 2931 909 2931 1356 
Q 2931 1769 2642 2001 
Q 2353 2234 1838 2234 
L 1294 2234 
L 1294 2753 
L 1863 2753 
Q 2328 2753 2575 2939 
Q 2822 3125 2822 3475 
Q 2822 3834 2567 4026 
Q 2313 4219 1838 4219 
Q 1578 4219 1281 4162 
Q 984 4106 628 3988 
L 628 4550 
Q 988 4650 1302 4700 
Q 1616 4750 1894 4750 
Q 2613 4750 3031 4423 
Q 3450 4097 3450 3541 
Q 3450 3153 3228 2886 
Q 3006 2619 2597 2516 
z
" transform="scale(0.015625)"/>
       </defs>
       <use xlink:href="#DejaVuSans-33"/>
       <use xlink:href="#DejaVuSans-30" x="63.623047"/>
       <use xlink:href="#DejaVuSans-30" x="127.246094"/>
       <use xlink:href="#DejaVuSans-30" x="190.869141"/>
      </g>
     </g>
    </g>
    <g id="text_14">
     <!-- Update time [ns] -->
     <g style="fill: #262626" transform="translate(16.318125 209.418516) rotate(-90) scale(0.12 -0.12)">
      <defs>
       <path id="DejaVuSans-55" d="M 556 4666 
L 1191 4666 
L 1191 1831 
Q 1191 1081 1462 751 
Q 1734 422 2344 422 
Q 2950 422 3222 751 
Q 3494 1081 3494 1831 
L 3494 4666 
L 4128 4666 
L 4128 1753 
Q 4128 841 3676 375 
Q 3225 -91 2344 -91 
Q 1459 -91 1007 375 
Q 556 841 556 1753 
L 556 4666 
z
" transform="scale(0.015625)"/>
       <path id="DejaVuSans-70" d="M 1159 525 
L 1159 -1331 
L 581 -1331 
L 581 3500 
L 1159 3500 
L 1159 2969 
Q 1341 3281 1617 3432 
Q 1894 3584 2278 3584 
Q 2916 3584 3314 3078 
Q 3713 2572 3713 1747 
Q 3713 922 3314 415 
Q 2916 -91 2278 -91 
Q 1894 -91 1617 61 
Q 1341 213 1159 525 
z
M 3116 1747 
Q 3116 2381 2855 2742 
Q 2594 3103 2138 3103 
Q 1681 3103 1420 2742 
Q 1159 2381 1159 1747 
Q 1159 1113 1420 752 
Q 1681 391 2138 391 
Q 2594 391 2855 752 
Q 3116 1113 3116 1747 
z
" transform="scale(0.015625)"/>
       <path id="DejaVuSans-61" d="M 2194 1759 
Q 1497 1759 1228 1600 
Q 959 1441 959 1056 
Q 959 750 1161 570 
Q 1363 391 1709 391 
Q 2188 391 2477 730 
Q 2766 1069 2766 1631 
L 2766 1759 
L 2194 1759 
z
M 3341 1997 
L 3341 0 
L 2766 0 
L 2766 531 
Q 2569 213 2275 61 
Q 1981 -91 1556 -91 
Q 1019 -91 701 211 
Q 384 513 384 1019 
Q 384 1609 779 1909 
Q 1175 2209 1959 2209 
L 2766 2209 
L 2766 2266 
Q 2766 2663 2505 2880 
Q 2244 3097 1772 3097 
Q 1472 3097 1187 3025 
Q 903 2953 641 2809 
L 641 3341 
Q 956 3463 1253 3523 
Q 1550 3584 1831 3584 
Q 2591 3584 2966 3190 
Q 3341 2797 3341 1997 
z
" transform="scale(0.015625)"/>
       <path id="DejaVuSans-74" d="M 1172 4494 
L 1172 3500 
L 2356 3500 
L 2356 3053 
L 1172 3053 
L 1172 1153 
Q 1172 725 1289 603 
Q 1406 481 1766 481 
L 2356 481 
L 2356 0 
L 1766 0 
Q 1100 0 847 248 
Q 594 497 594 1153 
L 594 3053 
L 172 3053 
L 172 3500 
L 594 3500 
L 594 4494 
L 1172 4494 
z
" transform="scale(0.015625)"/>
       <path id="DejaVuSans-6d" d="M 3328 2828 
Q 3544 3216 3844 3400 
Q 4144 3584 4550 3584 
Q 5097 3584 5394 3201 
Q 5691 2819 5691 2113 
L 5691 0 
L 5113 0 
L 5113 2094 
Q 5113 2597 4934 2840 
Q 4756 3084 4391 3084 
Q 3944 3084 3684 2787 
Q 3425 2491 3425 1978 
L 3425 0 
L 2847 0 
L 2847 2094 
Q 2847 2600 2669 2842 
Q 2491 3084 2119 3084 
Q 1678 3084 1418 2786 
Q 1159 2488 1159 1978 
L 1159 0 
L 581 0 
L 581 3500 
L 1159 3500 
L 1159 2956 
Q 1356 3278 1631 3431 
Q 1906 3584 2284 3584 
Q 2666 3584 2933 3390 
Q 3200 3197 3328 2828 
z
" transform="scale(0.015625)"/>
       <path id="DejaVuSans-5b" d="M 550 4863 
L 1875 4863 
L 1875 4416 
L 1125 4416 
L 1125 -397 
L 1875 -397 
L 1875 -844 
L 550 -844 
L 550 4863 
z
" transform="scale(0.015625)"/>
       <path id="DejaVuSans-6e" d="M 3513 2113 
L 3513 0 
L 2938 0 
L 2938 2094 
Q 2938 2591 2744 2837 
Q 2550 3084 2163 3084 
Q 1697 3084 1428 2787 
Q 1159 2491 1159 1978 
L 1159 0 
L 581 0 
L 581 3500 
L 1159 3500 
L 1159 2956 
Q 1366 3272 1645 3428 
Q 1925 3584 2291 3584 
Q 2894 3584 3203 3211 
Q 3513 2838 3513 2113 
z
" transform="scale(0.015625)"/>
       <path id="DejaVuSans-5d" d="M 1947 4863 
L 1947 -844 
L 622 -844 
L 622 -397 
L 1369 -397 
L 1369 4416 
L 622 4416 
L 622 4863 
L 1947 4863 
z
" transform="scale(0.015625)"/>
      </defs>
      <use xlink:href="#DejaVuSans-55"/>
      <use xlink:href="#DejaVuSans-70" x="73.193359"/>
      <use xlink:href="#DejaVuSans-64" x="136.669922"/>
      <use xlink:href="#DejaVuSans-61" x="200.146484"/>
      <use xlink:href="#DejaVuSans-74" x="261.425781"/>
      <use xlink:href="#DejaVuSans-65" x="300.634766"/>
      <use xlink:href="#DejaVuSans-20" x="362.158203"/>
      <use xlink:href="#DejaVuSans-74" x="393.945312"/>
      <use xlink:href="#DejaVuSans-69" x="433.154297"/>
      <use xlink:href="#DejaVuSans-6d" x="460.9375"/>
      <use xlink:href="#DejaVuSans-65" x="558.349609"/>
      <use xlink:href="#DejaVuSans-20" x="619.873047"/>
      <use xlink:href="#DejaVuSans-5b" x="651.660156"/>
      <use xlink:href="#DejaVuSans-6e" x="690.673828"/>
      <use xlink:href="#DejaVuSans-73" x="754.052734"/>
      <use xlink:href="#DejaVuSans-5d" x="806.152344"/>
     </g>
    </g>
   </g>
   <g id="PolyCollection_1">
    <defs>
     <path id="m3f5530c0d3" d="M 72.877168 -67.077018 
L 72.877168 -66.987929 
L 92.860427 -60.868705 
L 113.895437 -62.608396 
L 134.930446 -62.513041 
L 155.965456 -62.346854 
L 177.000465 -62.327984 
L 198.035475 -62.239483 
L 219.070484 -62.518902 
L 240.105494 -64.187612 
L 261.140503 -64.036728 
L 282.175513 -62.415122 
L 303.210522 -62.525079 
L 324.245532 -62.534396 
L 324.245532 -62.622972 
L 324.245532 -62.622972 
L 303.210522 -62.65228 
L 282.175513 -62.520338 
L 261.140503 -64.123535 
L 240.105494 -64.260151 
L 219.070484 -62.614698 
L 198.035475 -62.292997 
L 177.000465 -62.406211 
L 155.965456 -62.465654 
L 134.930446 -62.597621 
L 113.895437 -62.741946 
L 92.860427 -60.913515 
L 72.877168 -67.077018 
z
" style="stroke: #4c72b0; stroke-opacity: 0.2"/>
    </defs>
    <g clip-path="url(#pde60dc1a53)">
     <use xlink:href="#m3f5530c0d3" x="0" y="348.998828" style="fill: #4c72b0; fill-opacity: 0.2; stroke: #4c72b0; stroke-opacity: 0.2"/>
    </g>
   </g>
   <g id="PolyCollection_2">
    <defs>
     <path id="m061d21b980" d="M 72.877168 -73.626722 
L 72.877168 -73.460708 
L 92.860427 -90.263932 
L 113.895437 -114.369499 
L 134.930446 -137.066384 
L 155.965456 -161.490189 
L 177.000465 -169.580303 
L 198.035475 -188.991165 
L 219.070484 -211.54475 
L 240.105494 -234.75632 
L 261.140503 -247.761882 
L 282.175513 -271.23729 
L 303.210522 -294.90246 
L 324.245532 -290.543235 
L 324.245532 -297.108481 
L 324.245532 -297.108481 
L 303.210522 -301.317834 
L 282.175513 -276.454393 
L 261.140503 -252.20918 
L 240.105494 -236.239644 
L 219.070484 -212.690002 
L 198.035475 -191.63844 
L 177.000465 -170.638221 
L 155.965456 -162.39836 
L 134.930446 -138.446591 
L 113.895437 -115.872317 
L 92.860427 -90.61174 
L 72.877168 -73.626722 
z
" style="stroke: #dd8452; stroke-opacity: 0.2"/>
    </defs>
    <g clip-path="url(#pde60dc1a53)">
     <use xlink:href="#m061d21b980" x="0" y="348.998828" style="fill: #dd8452; fill-opacity: 0.2; stroke: #dd8452; stroke-opacity: 0.2"/>
    </g>
   </g>
   <g id="PolyCollection_3">
    <defs>
     <path id="m8f1a754375" d="M 72.877168 -55.480993 
L 72.877168 -55.447989 
L 92.860427 -57.494732 
L 113.895437 -59.08067 
L 134.930446 -59.192883 
L 155.965456 -58.848577 
L 177.000465 -58.87931 
L 198.035475 -59.087549 
L 219.070484 -59.200741 
L 240.105494 -60.645314 
L 261.140503 -60.572737 
L 282.175513 -59.088411 
L 303.210522 -59.095541 
L 324.245532 -59.174394 
L 324.245532 -59.239751 
L 324.245532 -59.239751 
L 303.210522 -59.185442 
L 282.175513 -59.177189 
L 261.140503 -60.619143 
L 240.105494 -60.714384 
L 219.070484 -59.291043 
L 198.035475 -59.155076 
L 177.000465 -58.93271 
L 155.965456 -58.885895 
L 134.930446 -59.283461 
L 113.895437 -59.171727 
L 92.860427 -57.536643 
L 72.877168 -55.480993 
z
" style="stroke: #55a868; stroke-opacity: 0.2"/>
    </defs>
    <g clip-path="url(#pde60dc1a53)">
     <use xlink:href="#m8f1a754375" x="0" y="348.998828" style="fill: #55a868; fill-opacity: 0.2; stroke: #55a868; stroke-opacity: 0.2"/>
    </g>
   </g>
   <g id="PolyCollection_4">
    <defs>
     <path id="m9b1984276c" d="M 72.877168 -55.264726 
L 72.877168 -55.262456 
L 92.860427 -56.4108 
L 113.895437 -57.08741 
L 134.930446 -65.658138 
L 155.965456 -70.427854 
L 177.000465 -74.118834 
L 198.035475 -78.346098 
L 219.070484 -82.560162 
L 240.105494 -86.718081 
L 261.140503 -91.309479 
L 282.175513 -96.577202 
L 303.210522 -105.742352 
L 324.245532 -119.981056 
L 324.245532 -120.777464 
L 324.245532 -120.777464 
L 303.210522 -106.183595 
L 282.175513 -96.8418 
L 261.140503 -91.490921 
L 240.105494 -86.822596 
L 219.070484 -82.71318 
L 198.035475 -78.470392 
L 177.000465 -74.226708 
L 155.965456 -70.534998 
L 134.930446 -65.738305 
L 113.895437 -57.105518 
L 92.860427 -56.414882 
L 72.877168 -55.264726 
z
" style="stroke: #c44e52; stroke-opacity: 0.2"/>
    </defs>
    <g clip-path="url(#pde60dc1a53)">
     <use xlink:href="#m9b1984276c" x="0" y="348.998828" style="fill: #c44e52; fill-opacity: 0.2; stroke: #c44e52; stroke-opacity: 0.2"/>
    </g>
   </g>
   <g id="PolyCollection_5">
    <defs>
     <path id="m87bffd2fa1" d="M 72.877168 -55.52783 
L 72.877168 -55.522005 
L 92.860427 -66.80069 
L 113.895437 -78.50755 
L 134.930446 -91.381791 
L 155.965456 -103.292316 
L 177.000465 -115.350222 
L 198.035475 -127.436155 
L 219.070484 -134.597741 
L 240.105494 -146.071497 
L 261.140503 -162.841349 
L 282.175513 -174.983381 
L 303.210522 -187.153391 
L 324.245532 -191.459084 
L 324.245532 -196.178669 
L 324.245532 -196.178669 
L 303.210522 -189.565714 
L 282.175513 -176.20984 
L 261.140503 -163.407221 
L 240.105494 -149.471683 
L 219.070484 -137.428209 
L 198.035475 -128.522157 
L 177.000465 -116.075954 
L 155.965456 -103.658132 
L 134.930446 -91.734212 
L 113.895437 -78.658987 
L 92.860427 -66.948583 
L 72.877168 -55.52783 
z
" style="stroke: #8172b3; stroke-opacity: 0.2"/>
    </defs>
    <g clip-path="url(#pde60dc1a53)">
     <use xlink:href="#m87bffd2fa1" x="0" y="348.998828" style="fill: #8172b3; fill-opacity: 0.2; stroke: #8172b3; stroke-opacity: 0.2"/>
    </g>
   </g>
   <g id="line2d_13">
    <path d="M 72.877168 281.969132 
L 92.860427 288.11061 
L 113.895437 286.31822 
L 134.930446 286.444427 
L 155.965456 286.593666 
L 177.000465 286.630719 
L 198.035475 286.735746 
L 219.070484 286.433475 
L 240.105494 284.777047 
L 261.140503 284.923393 
L 282.175513 286.531144 
L 303.210522 286.413052 
L 324.245532 286.420978 
" clip-path="url(#pde60dc1a53)" style="fill: none; stroke: #4c72b0; stroke-width: 1.5; stroke-linecap: round"/>
    <defs>
     <path id="m3b2699bbef" d="M 0 3 
C 0.795609 3 1.55874 2.683901 2.12132 2.12132 
C 2.683901 1.55874 3 0.795609 3 0 
C 3 -0.795609 2.683901 -1.55874 2.12132 -2.12132 
C 1.55874 -2.683901 0.795609 -3 0 -3 
C -0.795609 -3 -1.55874 -2.683901 -2.12132 -2.12132 
C -2.683901 -1.55874 -3 -0.795609 -3 0 
C -3 0.795609 -2.683901 1.55874 -2.12132 2.12132 
C -1.55874 2.683901 -0.795609 3 0 3 
z
" style="stroke: #ffffff; stroke-width: 0.75"/>
    </defs>
    <g clip-path="url(#pde60dc1a53)">
     <use xlink:href="#m3b2699bbef" x="72.877168" y="281.969132" style="fill: #4c72b0; stroke: #ffffff; stroke-width: 0.75"/>
     <use xlink:href="#m3b2699bbef" x="92.860427" y="288.11061" style="fill: #4c72b0; stroke: #ffffff; stroke-width: 0.75"/>
     <use xlink:href="#m3b2699bbef" x="113.895437" y="286.31822" style="fill: #4c72b0; stroke: #ffffff; stroke-width: 0.75"/>
     <use xlink:href="#m3b2699bbef" x="134.930446" y="286.444427" style="fill: #4c72b0; stroke: #ffffff; stroke-width: 0.75"/>
     <use xlink:href="#m3b2699bbef" x="155.965456" y="286.593666" style="fill: #4c72b0; stroke: #ffffff; stroke-width: 0.75"/>
     <use xlink:href="#m3b2699bbef" x="177.000465" y="286.630719" style="fill: #4c72b0; stroke: #ffffff; stroke-width: 0.75"/>
     <use xlink:href="#m3b2699bbef" x="198.035475" y="286.735746" style="fill: #4c72b0; stroke: #ffffff; stroke-width: 0.75"/>
     <use xlink:href="#m3b2699bbef" x="219.070484" y="286.433475" style="fill: #4c72b0; stroke: #ffffff; stroke-width: 0.75"/>
     <use xlink:href="#m3b2699bbef" x="240.105494" y="284.777047" style="fill: #4c72b0; stroke: #ffffff; stroke-width: 0.75"/>
     <use xlink:href="#m3b2699bbef" x="261.140503" y="284.923393" style="fill: #4c72b0; stroke: #ffffff; stroke-width: 0.75"/>
     <use xlink:href="#m3b2699bbef" x="282.175513" y="286.531144" style="fill: #4c72b0; stroke: #ffffff; stroke-width: 0.75"/>
     <use xlink:href="#m3b2699bbef" x="303.210522" y="286.413052" style="fill: #4c72b0; stroke: #ffffff; stroke-width: 0.75"/>
     <use xlink:href="#m3b2699bbef" x="324.245532" y="286.420978" style="fill: #4c72b0; stroke: #ffffff; stroke-width: 0.75"/>
    </g>
   </g>
   <g id="line2d_14">
    <path d="M 72.877168 275.458016 
L 92.860427 258.568176 
L 113.895437 233.920103 
L 134.930446 211.24324 
L 155.965456 187.092517 
L 177.000465 178.90996 
L 198.035475 158.713695 
L 219.070484 136.870155 
L 240.105494 113.503957 
L 261.140503 99.00512 
L 282.175513 75.028655 
L 303.210522 50.715409 
L 324.245532 55.31349 
" clip-path="url(#pde60dc1a53)" style="fill: none; stroke: #dd8452; stroke-width: 1.5; stroke-linecap: round"/>
    <defs>
     <path id="mcd5b19778d" d="M -1.5 3 
L 0 1.5 
L 1.5 3 
L 3 1.5 
L 1.5 0 
L 3 -1.5 
L 1.5 -3 
L 0 -1.5 
L -1.5 -3 
L -3 -1.5 
L -1.5 0 
L -3 1.5 
z
" style="stroke: #ffffff; stroke-width: 0.75; stroke-linejoin: miter"/>
    </defs>
    <g clip-path="url(#pde60dc1a53)">
     <use xlink:href="#mcd5b19778d" x="72.877168" y="275.458016" style="fill: #dd8452; stroke: #ffffff; stroke-width: 0.75; stroke-linejoin: miter"/>
     <use xlink:href="#mcd5b19778d" x="92.860427" y="258.568176" style="fill: #dd8452; stroke: #ffffff; stroke-width: 0.75; stroke-linejoin: miter"/>
     <use xlink:href="#mcd5b19778d" x="113.895437" y="233.920103" style="fill: #dd8452; stroke: #ffffff; stroke-width: 0.75; stroke-linejoin: miter"/>
     <use xlink:href="#mcd5b19778d" x="134.930446" y="211.24324" style="fill: #dd8452; stroke: #ffffff; stroke-width: 0.75; stroke-linejoin: miter"/>
     <use xlink:href="#mcd5b19778d" x="155.965456" y="187.092517" style="fill: #dd8452; stroke: #ffffff; stroke-width: 0.75; stroke-linejoin: miter"/>
     <use xlink:href="#mcd5b19778d" x="177.000465" y="178.90996" style="fill: #dd8452; stroke: #ffffff; stroke-width: 0.75; stroke-linejoin: miter"/>
     <use xlink:href="#mcd5b19778d" x="198.035475" y="158.713695" style="fill: #dd8452; stroke: #ffffff; stroke-width: 0.75; stroke-linejoin: miter"/>
     <use xlink:href="#mcd5b19778d" x="219.070484" y="136.870155" style="fill: #dd8452; stroke: #ffffff; stroke-width: 0.75; stroke-linejoin: miter"/>
     <use xlink:href="#mcd5b19778d" x="240.105494" y="113.503957" style="fill: #dd8452; stroke: #ffffff; stroke-width: 0.75; stroke-linejoin: miter"/>
     <use xlink:href="#mcd5b19778d" x="261.140503" y="99.00512" style="fill: #dd8452; stroke: #ffffff; stroke-width: 0.75; stroke-linejoin: miter"/>
     <use xlink:href="#mcd5b19778d" x="282.175513" y="75.028655" style="fill: #dd8452; stroke: #ffffff; stroke-width: 0.75; stroke-linejoin: miter"/>
     <use xlink:href="#mcd5b19778d" x="303.210522" y="50.715409" style="fill: #dd8452; stroke: #ffffff; stroke-width: 0.75; stroke-linejoin: miter"/>
     <use xlink:href="#mcd5b19778d" x="324.245532" y="55.31349" style="fill: #dd8452; stroke: #ffffff; stroke-width: 0.75; stroke-linejoin: miter"/>
    </g>
   </g>
   <g id="line2d_15">
    <path d="M 72.877168 293.535608 
L 92.860427 291.483582 
L 113.895437 289.874614 
L 134.930446 289.76113 
L 155.965456 290.132326 
L 177.000465 290.092406 
L 198.035475 289.879553 
L 219.070484 289.753146 
L 240.105494 288.321112 
L 261.140503 288.405239 
L 282.175513 289.866232 
L 303.210522 289.858549 
L 324.245532 289.795102 
" clip-path="url(#pde60dc1a53)" style="fill: none; stroke: #55a868; stroke-width: 1.5; stroke-linecap: round"/>
    <defs>
     <path id="mbe61671f82" d="M -2.12132 -2.12132 
L -2.12132 2.12132 
L 2.12132 2.12132 
L 2.12132 -2.12132 
z
" style="stroke: #ffffff; stroke-width: 0.75; stroke-linejoin: miter"/>
    </defs>
    <g clip-path="url(#pde60dc1a53)">
     <use xlink:href="#mbe61671f82" x="72.877168" y="293.535608" style="fill: #55a868; stroke: #ffffff; stroke-width: 0.75; stroke-linejoin: miter"/>
     <use xlink:href="#mbe61671f82" x="92.860427" y="291.483582" style="fill: #55a868; stroke: #ffffff; stroke-width: 0.75; stroke-linejoin: miter"/>
     <use xlink:href="#mbe61671f82" x="113.895437" y="289.874614" style="fill: #55a868; stroke: #ffffff; stroke-width: 0.75; stroke-linejoin: miter"/>
     <use xlink:href="#mbe61671f82" x="134.930446" y="289.76113" style="fill: #55a868; stroke: #ffffff; stroke-width: 0.75; stroke-linejoin: miter"/>
     <use xlink:href="#mbe61671f82" x="155.965456" y="290.132326" style="fill: #55a868; stroke: #ffffff; stroke-width: 0.75; stroke-linejoin: miter"/>
     <use xlink:href="#mbe61671f82" x="177.000465" y="290.092406" style="fill: #55a868; stroke: #ffffff; stroke-width: 0.75; stroke-linejoin: miter"/>
     <use xlink:href="#mbe61671f82" x="198.035475" y="289.879553" style="fill: #55a868; stroke: #ffffff; stroke-width: 0.75; stroke-linejoin: miter"/>
     <use xlink:href="#mbe61671f82" x="219.070484" y="289.753146" style="fill: #55a868; stroke: #ffffff; stroke-width: 0.75; stroke-linejoin: miter"/>
     <use xlink:href="#mbe61671f82" x="240.105494" y="288.321112" style="fill: #55a868; stroke: #ffffff; stroke-width: 0.75; stroke-linejoin: miter"/>
     <use xlink:href="#mbe61671f82" x="261.140503" y="288.405239" style="fill: #55a868; stroke: #ffffff; stroke-width: 0.75; stroke-linejoin: miter"/>
     <use xlink:href="#mbe61671f82" x="282.175513" y="289.866232" style="fill: #55a868; stroke: #ffffff; stroke-width: 0.75; stroke-linejoin: miter"/>
     <use xlink:href="#mbe61671f82" x="303.210522" y="289.858549" style="fill: #55a868; stroke: #ffffff; stroke-width: 0.75; stroke-linejoin: miter"/>
     <use xlink:href="#mbe61671f82" x="324.245532" y="289.795102" style="fill: #55a868; stroke: #ffffff; stroke-width: 0.75; stroke-linejoin: miter"/>
    </g>
   </g>
   <g id="line2d_16">
    <path d="M 72.877168 293.735354 
L 92.860427 292.586181 
L 113.895437 291.903478 
L 134.930446 283.30125 
L 155.965456 278.515629 
L 177.000465 274.82431 
L 198.035475 270.587794 
L 219.070484 266.372976 
L 240.105494 262.233033 
L 261.140503 257.606779 
L 282.175513 252.29682 
L 303.210522 243.049842 
L 324.245532 228.615508 
" clip-path="url(#pde60dc1a53)" style="fill: none; stroke: #c44e52; stroke-width: 1.5; stroke-linecap: round"/>
    <defs>
     <path id="m045e5242d5" d="M -1 3 
L 1 3 
L 1 1 
L 3 1 
L 3 -1 
L 1 -1 
L 1 -3 
L -1 -3 
L -1 -1 
L -3 -1 
L -3 1 
L -1 1 
z
" style="stroke: #ffffff; stroke-width: 0.75; stroke-linejoin: miter"/>
    </defs>
    <g clip-path="url(#pde60dc1a53)">
     <use xlink:href="#m045e5242d5" x="72.877168" y="293.735354" style="fill: #c44e52; stroke: #ffffff; stroke-width: 0.75; stroke-linejoin: miter"/>
     <use xlink:href="#m045e5242d5" x="92.860427" y="292.586181" style="fill: #c44e52; stroke: #ffffff; stroke-width: 0.75; stroke-linejoin: miter"/>
     <use xlink:href="#m045e5242d5" x="113.895437" y="291.903478" style="fill: #c44e52; stroke: #ffffff; stroke-width: 0.75; stroke-linejoin: miter"/>
     <use xlink:href="#m045e5242d5" x="134.930446" y="283.30125" style="fill: #c44e52; stroke: #ffffff; stroke-width: 0.75; stroke-linejoin: miter"/>
     <use xlink:href="#m045e5242d5" x="155.965456" y="278.515629" style="fill: #c44e52; stroke: #ffffff; stroke-width: 0.75; stroke-linejoin: miter"/>
     <use xlink:href="#m045e5242d5" x="177.000465" y="274.82431" style="fill: #c44e52; stroke: #ffffff; stroke-width: 0.75; stroke-linejoin: miter"/>
     <use xlink:href="#m045e5242d5" x="198.035475" y="270.587794" style="fill: #c44e52; stroke: #ffffff; stroke-width: 0.75; stroke-linejoin: miter"/>
     <use xlink:href="#m045e5242d5" x="219.070484" y="266.372976" style="fill: #c44e52; stroke: #ffffff; stroke-width: 0.75; stroke-linejoin: miter"/>
     <use xlink:href="#m045e5242d5" x="240.105494" y="262.233033" style="fill: #c44e52; stroke: #ffffff; stroke-width: 0.75; stroke-linejoin: miter"/>
     <use xlink:href="#m045e5242d5" x="261.140503" y="257.606779" style="fill: #c44e52; stroke: #ffffff; stroke-width: 0.75; stroke-linejoin: miter"/>
     <use xlink:href="#m045e5242d5" x="282.175513" y="252.29682" style="fill: #c44e52; stroke: #ffffff; stroke-width: 0.75; stroke-linejoin: miter"/>
     <use xlink:href="#m045e5242d5" x="303.210522" y="243.049842" style="fill: #c44e52; stroke: #ffffff; stroke-width: 0.75; stroke-linejoin: miter"/>
     <use xlink:href="#m045e5242d5" x="324.245532" y="228.615508" style="fill: #c44e52; stroke: #ffffff; stroke-width: 0.75; stroke-linejoin: miter"/>
    </g>
   </g>
   <g id="line2d_17">
    <path d="M 72.877168 293.474088 
L 92.860427 282.133133 
L 113.895437 270.414593 
L 134.930446 257.462913 
L 155.965456 245.538046 
L 177.000465 233.3242 
L 198.035475 221.102173 
L 219.070484 212.919353 
L 240.105494 201.19607 
L 261.140503 185.896967 
L 282.175513 173.474932 
L 303.210522 160.792246 
L 324.245532 155.072414 
" clip-path="url(#pde60dc1a53)" style="fill: none; stroke: #8172b3; stroke-width: 1.5; stroke-linecap: round"/>
    <defs>
     <path id="m4d057ec6d5" d="M 0 -3 
L -3 -0 
L -0 3 
L 3 0 
z
" style="stroke: #ffffff; stroke-width: 0.75; stroke-linejoin: miter"/>
    </defs>
    <g clip-path="url(#pde60dc1a53)">
     <use xlink:href="#m4d057ec6d5" x="72.877168" y="293.474088" style="fill: #8172b3; stroke: #ffffff; stroke-width: 0.75; stroke-linejoin: miter"/>
     <use xlink:href="#m4d057ec6d5" x="92.860427" y="282.133133" style="fill: #8172b3; stroke: #ffffff; stroke-width: 0.75; stroke-linejoin: miter"/>
     <use xlink:href="#m4d057ec6d5" x="113.895437" y="270.414593" style="fill: #8172b3; stroke: #ffffff; stroke-width: 0.75; stroke-linejoin: miter"/>
     <use xlink:href="#m4d057ec6d5" x="134.930446" y="257.462913" style="fill: #8172b3; stroke: #ffffff; stroke-width: 0.75; stroke-linejoin: miter"/>
     <use xlink:href="#m4d057ec6d5" x="155.965456" y="245.538046" style="fill: #8172b3; stroke: #ffffff; stroke-width: 0.75; stroke-linejoin: miter"/>
     <use xlink:href="#m4d057ec6d5" x="177.000465" y="233.3242" style="fill: #8172b3; stroke: #ffffff; stroke-width: 0.75; stroke-linejoin: miter"/>
     <use xlink:href="#m4d057ec6d5" x="198.035475" y="221.102173" style="fill: #8172b3; stroke: #ffffff; stroke-width: 0.75; stroke-linejoin: miter"/>
     <use xlink:href="#m4d057ec6d5" x="219.070484" y="212.919353" style="fill: #8172b3; stroke: #ffffff; stroke-width: 0.75; stroke-linejoin: miter"/>
     <use xlink:href="#m4d057ec6d5" x="240.105494" y="201.19607" style="fill: #8172b3; stroke: #ffffff; stroke-width: 0.75; stroke-linejoin: miter"/>
     <use xlink:href="#m4d057ec6d5" x="261.140503" y="185.896967" style="fill: #8172b3; stroke: #ffffff; stroke-width: 0.75; stroke-linejoin: miter"/>
     <use xlink:href="#m4d057ec6d5" x="282.175513" y="173.474932" style="fill: #8172b3; stroke: #ffffff; stroke-width: 0.75; stroke-linejoin: miter"/>
     <use xlink:href="#m4d057ec6d5" x="303.210522" y="160.792246" style="fill: #8172b3; stroke: #ffffff; stroke-width: 0.75; stroke-linejoin: miter"/>
     <use xlink:href="#m4d057ec6d5" x="324.245532" y="155.072414" style="fill: #8172b3; stroke: #ffffff; stroke-width: 0.75; stroke-linejoin: miter"/>
    </g>
   </g>
   <g id="line2d_18"/>
   <g id="line2d_19"/>
   <g id="line2d_20"/>
   <g id="line2d_21"/>
   <g id="line2d_22"/>
   <g id="patch_3">
    <path d="M 60.30875 306.039141 
L 60.30875 11.379141 
" style="fill: none; stroke: #ffffff; stroke-width: 1.25; stroke-linejoin: miter; stroke-linecap: square"/>
   </g>
   <g id="patch_4">
    <path d="M 60.30875 306.039141 
L 336.81395 306.039141 
" style="fill: none; stroke: #ffffff; stroke-width: 1.25; stroke-linejoin: miter; stroke-linecap: square"/>
   </g>
  </g>
  <g id="legend_1">
   <g id="line2d_23">
    <path d="M 356.452812 141.392852 
L 367.452812 141.392852 
L 378.452812 141.392852 
" style="fill: none; stroke: #4c72b0; stroke-width: 1.5; stroke-linecap: round"/>
    <defs>
     <path id="mb6d60739f6" d="M 0 3 
C 0.795609 3 1.55874 2.683901 2.12132 2.12132 
C 2.683901 1.55874 3 0.795609 3 0 
C 3 -0.795609 2.683901 -1.55874 2.12132 -2.12132 
C 1.55874 -2.683901 0.795609 -3 0 -3 
C -0.795609 -3 -1.55874 -2.683901 -2.12132 -2.12132 
C -2.683901 -1.55874 -3 -0.795609 -3 0 
C -3 0.795609 -2.683901 1.55874 -2.12132 2.12132 
C -1.55874 2.683901 -0.795609 3 0 3 
z
" style="stroke: #4c72b0"/>
    </defs>
    <g>
     <use xlink:href="#mb6d60739f6" x="367.452812" y="141.392852" style="fill: #4c72b0; stroke: #4c72b0"/>
    </g>
   </g>
   <g id="text_15">
    <!-- record4s % -->
    <g style="fill: #262626" transform="translate(387.252812 145.242852) scale(0.11 -0.11)">
     <defs>
      <path id="DejaVuSans-34" d="M 2419 4116 
L 825 1625 
L 2419 1625 
L 2419 4116 
z
M 2253 4666 
L 3047 4666 
L 3047 1625 
L 3713 1625 
L 3713 1100 
L 3047 1100 
L 3047 0 
L 2419 0 
L 2419 1100 
L 313 1100 
L 313 1709 
L 2253 4666 
z
" transform="scale(0.015625)"/>
      <path id="DejaVuSans-25" d="M 4653 2053 
Q 4381 2053 4226 1822 
Q 4072 1591 4072 1178 
Q 4072 772 4226 539 
Q 4381 306 4653 306 
Q 4919 306 5073 539 
Q 5228 772 5228 1178 
Q 5228 1588 5073 1820 
Q 4919 2053 4653 2053 
z
M 4653 2450 
Q 5147 2450 5437 2106 
Q 5728 1763 5728 1178 
Q 5728 594 5436 251 
Q 5144 -91 4653 -91 
Q 4153 -91 3862 251 
Q 3572 594 3572 1178 
Q 3572 1766 3864 2108 
Q 4156 2450 4653 2450 
z
M 1428 4353 
Q 1159 4353 1004 4120 
Q 850 3888 850 3481 
Q 850 3069 1003 2837 
Q 1156 2606 1428 2606 
Q 1700 2606 1854 2837 
Q 2009 3069 2009 3481 
Q 2009 3884 1853 4118 
Q 1697 4353 1428 4353 
z
M 4250 4750 
L 4750 4750 
L 1831 -91 
L 1331 -91 
L 4250 4750 
z
M 1428 4750 
Q 1922 4750 2215 4408 
Q 2509 4066 2509 3481 
Q 2509 2891 2217 2550 
Q 1925 2209 1428 2209 
Q 931 2209 642 2551 
Q 353 2894 353 3481 
Q 353 4063 643 4406 
Q 934 4750 1428 4750 
z
" transform="scale(0.015625)"/>
     </defs>
     <use xlink:href="#DejaVuSans-72"/>
     <use xlink:href="#DejaVuSans-65" x="38.863281"/>
     <use xlink:href="#DejaVuSans-63" x="100.386719"/>
     <use xlink:href="#DejaVuSans-6f" x="155.367188"/>
     <use xlink:href="#DejaVuSans-72" x="216.548828"/>
     <use xlink:href="#DejaVuSans-64" x="255.912109"/>
     <use xlink:href="#DejaVuSans-34" x="319.388672"/>
     <use xlink:href="#DejaVuSans-73" x="383.011719"/>
     <use xlink:href="#DejaVuSans-20" x="435.111328"/>
     <use xlink:href="#DejaVuSans-25" x="466.898438"/>
    </g>
   </g>
   <g id="line2d_24">
    <path d="M 356.452812 157.538789 
L 367.452812 157.538789 
L 378.452812 157.538789 
" style="fill: none; stroke: #dd8452; stroke-width: 1.5; stroke-linecap: round"/>
    <defs>
     <path id="m4c2f9fce03" d="M -1.5 3 
L 0 1.5 
L 1.5 3 
L 3 1.5 
L 1.5 0 
L 3 -1.5 
L 1.5 -3 
L 0 -1.5 
L -1.5 -3 
L -3 -1.5 
L -1.5 0 
L -3 1.5 
z
" style="stroke: #dd8452; stroke-linejoin: miter"/>
    </defs>
    <g>
     <use xlink:href="#m4c2f9fce03" x="367.452812" y="157.538789" style="fill: #dd8452; stroke: #dd8452; stroke-linejoin: miter"/>
    </g>
   </g>
   <g id="text_16">
    <!-- record4s ArrayRecord -->
    <g style="fill: #262626" transform="translate(387.252812 161.388789) scale(0.11 -0.11)">
     <defs>
      <path id="DejaVuSans-41" d="M 2188 4044 
L 1331 1722 
L 3047 1722 
L 2188 4044 
z
M 1831 4666 
L 2547 4666 
L 4325 0 
L 3669 0 
L 3244 1197 
L 1141 1197 
L 716 0 
L 50 0 
L 1831 4666 
z
" transform="scale(0.015625)"/>
      <path id="DejaVuSans-79" d="M 2059 -325 
Q 1816 -950 1584 -1140 
Q 1353 -1331 966 -1331 
L 506 -1331 
L 506 -850 
L 844 -850 
Q 1081 -850 1212 -737 
Q 1344 -625 1503 -206 
L 1606 56 
L 191 3500 
L 800 3500 
L 1894 763 
L 2988 3500 
L 3597 3500 
L 2059 -325 
z
" transform="scale(0.015625)"/>
     </defs>
     <use xlink:href="#DejaVuSans-72"/>
     <use xlink:href="#DejaVuSans-65" x="38.863281"/>
     <use xlink:href="#DejaVuSans-63" x="100.386719"/>
     <use xlink:href="#DejaVuSans-6f" x="155.367188"/>
     <use xlink:href="#DejaVuSans-72" x="216.548828"/>
     <use xlink:href="#DejaVuSans-64" x="255.912109"/>
     <use xlink:href="#DejaVuSans-34" x="319.388672"/>
     <use xlink:href="#DejaVuSans-73" x="383.011719"/>
     <use xlink:href="#DejaVuSans-20" x="435.111328"/>
     <use xlink:href="#DejaVuSans-41" x="466.898438"/>
     <use xlink:href="#DejaVuSans-72" x="535.306641"/>
     <use xlink:href="#DejaVuSans-72" x="574.669922"/>
     <use xlink:href="#DejaVuSans-61" x="615.783203"/>
     <use xlink:href="#DejaVuSans-79" x="677.0625"/>
     <use xlink:href="#DejaVuSans-52" x="736.242188"/>
     <use xlink:href="#DejaVuSans-65" x="801.224609"/>
     <use xlink:href="#DejaVuSans-63" x="862.748047"/>
     <use xlink:href="#DejaVuSans-6f" x="917.728516"/>
     <use xlink:href="#DejaVuSans-72" x="978.910156"/>
     <use xlink:href="#DejaVuSans-64" x="1018.273438"/>
    </g>
   </g>
   <g id="line2d_25">
    <path d="M 356.452812 173.684727 
L 367.452812 173.684727 
L 378.452812 173.684727 
" style="fill: none; stroke: #55a868; stroke-width: 1.5; stroke-linecap: round"/>
    <defs>
     <path id="mdc43cb641f" d="M -2.12132 -2.12132 
L -2.12132 2.12132 
L 2.12132 2.12132 
L 2.12132 -2.12132 
z
" style="stroke: #55a868; stroke-linejoin: miter"/>
    </defs>
    <g>
     <use xlink:href="#mdc43cb641f" x="367.452812" y="173.684727" style="fill: #55a868; stroke: #55a868; stroke-linejoin: miter"/>
    </g>
   </g>
   <g id="text_17">
    <!-- Scala 3 Map -->
    <g style="fill: #262626" transform="translate(387.252812 177.534727) scale(0.11 -0.11)">
     <defs>
      <path id="DejaVuSans-53" d="M 3425 4513 
L 3425 3897 
Q 3066 4069 2747 4153 
Q 2428 4238 2131 4238 
Q 1616 4238 1336 4038 
Q 1056 3838 1056 3469 
Q 1056 3159 1242 3001 
Q 1428 2844 1947 2747 
L 2328 2669 
Q 3034 2534 3370 2195 
Q 3706 1856 3706 1288 
Q 3706 609 3251 259 
Q 2797 -91 1919 -91 
Q 1588 -91 1214 -16 
Q 841 59 441 206 
L 441 856 
Q 825 641 1194 531 
Q 1563 422 1919 422 
Q 2459 422 2753 634 
Q 3047 847 3047 1241 
Q 3047 1584 2836 1778 
Q 2625 1972 2144 2069 
L 1759 2144 
Q 1053 2284 737 2584 
Q 422 2884 422 3419 
Q 422 4038 858 4394 
Q 1294 4750 2059 4750 
Q 2388 4750 2728 4690 
Q 3069 4631 3425 4513 
z
" transform="scale(0.015625)"/>
      <path id="DejaVuSans-6c" d="M 603 4863 
L 1178 4863 
L 1178 0 
L 603 0 
L 603 4863 
z
" transform="scale(0.015625)"/>
      <path id="DejaVuSans-4d" d="M 628 4666 
L 1569 4666 
L 2759 1491 
L 3956 4666 
L 4897 4666 
L 4897 0 
L 4281 0 
L 4281 4097 
L 3078 897 
L 2444 897 
L 1241 4097 
L 1241 0 
L 628 0 
L 628 4666 
z
" transform="scale(0.015625)"/>
     </defs>
     <use xlink:href="#DejaVuSans-53"/>
     <use xlink:href="#DejaVuSans-63" x="63.476562"/>
     <use xlink:href="#DejaVuSans-61" x="118.457031"/>
     <use xlink:href="#DejaVuSans-6c" x="179.736328"/>
     <use xlink:href="#DejaVuSans-61" x="207.519531"/>
     <use xlink:href="#DejaVuSans-20" x="268.798828"/>
     <use xlink:href="#DejaVuSans-33" x="300.585938"/>
     <use xlink:href="#DejaVuSans-20" x="364.208984"/>
     <use xlink:href="#DejaVuSans-4d" x="395.996094"/>
     <use xlink:href="#DejaVuSans-61" x="482.275391"/>
     <use xlink:href="#DejaVuSans-70" x="543.554688"/>
    </g>
   </g>
   <g id="line2d_26">
    <path d="M 356.452812 189.830664 
L 367.452812 189.830664 
L 378.452812 189.830664 
" style="fill: none; stroke: #c44e52; stroke-width: 1.5; stroke-linecap: round"/>
    <defs>
     <path id="mf091380729" d="M -1 3 
L 1 3 
L 1 1 
L 3 1 
L 3 -1 
L 1 -1 
L 1 -3 
L -1 -3 
L -1 -1 
L -3 -1 
L -3 1 
L -1 1 
z
" style="stroke: #c44e52; stroke-linejoin: miter"/>
    </defs>
    <g>
     <use xlink:href="#mf091380729" x="367.452812" y="189.830664" style="fill: #c44e52; stroke: #c44e52; stroke-linejoin: miter"/>
    </g>
   </g>
   <g id="text_18">
    <!-- Scala 3 case class -->
    <g style="fill: #262626" transform="translate(387.252812 193.680664) scale(0.11 -0.11)">
     <use xlink:href="#DejaVuSans-53"/>
     <use xlink:href="#DejaVuSans-63" x="63.476562"/>
     <use xlink:href="#DejaVuSans-61" x="118.457031"/>
     <use xlink:href="#DejaVuSans-6c" x="179.736328"/>
     <use xlink:href="#DejaVuSans-61" x="207.519531"/>
     <use xlink:href="#DejaVuSans-20" x="268.798828"/>
     <use xlink:href="#DejaVuSans-33" x="300.585938"/>
     <use xlink:href="#DejaVuSans-20" x="364.208984"/>
     <use xlink:href="#DejaVuSans-63" x="395.996094"/>
     <use xlink:href="#DejaVuSans-61" x="450.976562"/>
     <use xlink:href="#DejaVuSans-73" x="512.255859"/>
     <use xlink:href="#DejaVuSans-65" x="564.355469"/>
     <use xlink:href="#DejaVuSans-20" x="625.878906"/>
     <use xlink:href="#DejaVuSans-63" x="657.666016"/>
     <use xlink:href="#DejaVuSans-6c" x="712.646484"/>
     <use xlink:href="#DejaVuSans-61" x="740.429688"/>
     <use xlink:href="#DejaVuSans-73" x="801.708984"/>
     <use xlink:href="#DejaVuSans-73" x="853.808594"/>
    </g>
   </g>
   <g id="line2d_27">
    <path d="M 356.452812 205.976602 
L 367.452812 205.976602 
L 378.452812 205.976602 
" style="fill: none; stroke: #8172b3; stroke-width: 1.5; stroke-linecap: round"/>
    <defs>
     <path id="m3ef4c0fa76" d="M 0 -3 
L -3 -0 
L -0 3 
L 3 0 
z
" style="stroke: #8172b3; stroke-linejoin: miter"/>
    </defs>
    <g>
     <use xlink:href="#m3ef4c0fa76" x="367.452812" y="205.976602" style="fill: #8172b3; stroke: #8172b3; stroke-linejoin: miter"/>
    </g>
   </g>
   <g id="text_19">
    <!-- shapeless Record -->
    <g style="fill: #262626" transform="translate(387.252812 209.826602) scale(0.11 -0.11)">
     <defs>
      <path id="DejaVuSans-68" d="M 3513 2113 
L 3513 0 
L 2938 0 
L 2938 2094 
Q 2938 2591 2744 2837 
Q 2550 3084 2163 3084 
Q 1697 3084 1428 2787 
Q 1159 2491 1159 1978 
L 1159 0 
L 581 0 
L 581 4863 
L 1159 4863 
L 1159 2956 
Q 1366 3272 1645 3428 
Q 1925 3584 2291 3584 
Q 2894 3584 3203 3211 
Q 3513 2838 3513 2113 
z
" transform="scale(0.015625)"/>
     </defs>
     <use xlink:href="#DejaVuSans-73"/>
     <use xlink:href="#DejaVuSans-68" x="52.099609"/>
     <use xlink:href="#DejaVuSans-61" x="115.478516"/>
     <use xlink:href="#DejaVuSans-70" x="176.757812"/>
     <use xlink:href="#DejaVuSans-65" x="240.234375"/>
     <use xlink:href="#DejaVuSans-6c" x="301.757812"/>
     <use xlink:href="#DejaVuSans-65" x="329.541016"/>
     <use xlink:href="#DejaVuSans-73" x="391.064453"/>
     <use xlink:href="#DejaVuSans-73" x="443.164062"/>
     <use xlink:href="#DejaVuSans-20" x="495.263672"/>
     <use xlink:href="#DejaVuSans-52" x="527.050781"/>
     <use xlink:href="#DejaVuSans-65" x="592.033203"/>
     <use xlink:href="#DejaVuSans-63" x="653.556641"/>
     <use xlink:href="#DejaVuSans-6f" x="708.537109"/>
     <use xlink:href="#DejaVuSans-72" x="769.71875"/>
     <use xlink:href="#DejaVuSans-64" x="809.082031"/>
    </g>
   </g>
  </g>
 </g>
 <defs>
  <clipPath id="pde60dc1a53">
   <rect x="60.30875" y="11.379141" width="276.5052" height="294.66"/>
  </clipPath>
 </defs>
</svg>
